<svg id="Layer_1" xmlns="http://www.w3.org/2000/svg" xmlns:xlink="http://www.w3.org/1999/xlink" x="0px" y="0px" viewBox="0 0 552.39 658.94" xml:space="preserve" class="css-509z9a"><style type="text/css">
	.pist0{fill:#FFFFFF;}
	.pist1{fill:#FDEAE4;}
	.pist2{fill:#EBC9B1;}
	.pist3{fill:#88BADE;}
	.pist4{fill:#F2F2F2;}
	.pist5{fill:#6BB39A;}
	.pist6{fill:#51B79C;}
	.pist7{fill:none;stroke:#FFFFFF;stroke-miterlimit:10;}
	.pist8{fill:#DEABB0;}
	.pist9{fill:none;stroke:#DEABB0;stroke-width:2;stroke-miterlimit:10;}
	.pist10{clip-path:url(#SVGID_2_);fill:#007666;}
	.pist11{clip-path:url(#SVGID_2_);}
	.pist12{fill:#034C42;}
	.pist13{fill:#248E7A;}
	.pist14{fill:#007666;}
	.pist15{fill:#EECFCE;}
	.pist16{fill:#F8E2DD;}
	.pist17{fill:#F3D9D5;}
	.pist18{fill:#FDEBE5;}
	.pist19{fill:none;}
	.pist20{fill:#E5E5E6;}
	.pist21{fill:#F5F6F7;}
	.pist22{fill:#EDECED;}
	.pist23{fill:#FBFBFB;}
	.pist24{fill:none;stroke:#248E7A;stroke-width:2;stroke-miterlimit:10;}
	.pist25{fill:#D17657;}
	.pist26{fill:#EB9F6E;}
	.pist27{fill:none;stroke:#FFFFFF;stroke-width:7;stroke-miterlimit:10;}
	.pist28{fill:#EBC9B2;}
	.pist29{fill:none;stroke:#FDEBE5;stroke-width:5;stroke-miterlimit:10;}
	.pist30{fill:none;stroke:#EB9F6E;stroke-width:4;stroke-miterlimit:10;}
	.pist31{fill:#6AB29A;}
	.pist32{fill:#D28E77;}
	.pist33{fill:#3C66AF;}
	.pist34{clip-path:url(#SVGID_4_);}
	.pist35{fill:#DFE4EB;}
	.pist36{fill:#FFE69F;}
	.pist37{clip-path:url(#SVGID_6_);fill:#315CA7;}
	.pist38{clip-path:url(#SVGID_6_);}
	.pist39{clip-path:url(#SVGID_6_);fill:#248E7A;}
	.pist40{clip-path:url(#SVGID_6_);fill:#EB9F6E;}
	.pist41{clip-path:url(#SVGID_6_);fill:#EBC9B2;}
	.pist42{fill:#020203;}
	.pist43{fill:none;stroke:#020203;stroke-width:0.5;stroke-miterlimit:10;}
	.pist44{fill:none;stroke:#020203;stroke-miterlimit:10;}
	.pist45{fill:#FFFFFF;stroke:#020203;stroke-width:0.75;stroke-miterlimit:10;}
	.pist46{fill:#FFFFFF;stroke:#020203;stroke-miterlimit:10;}
	.pist47{fill:#020203;stroke:#FFFFFF;stroke-miterlimit:10;}
	.pist48{fill:none;stroke:#C1BFB2;stroke-miterlimit:10;}
	.pist49{fill:none;stroke:#FFFFFF;stroke-width:0.5;stroke-miterlimit:10;}
	.pist50{fill:none;stroke:#B8B7B7;stroke-miterlimit:10;}
	.pist51{clip-path:url(#SVGID_8_);fill:#315CA7;}
	.pist52{clip-path:url(#SVGID_8_);}
	.pist53{clip-path:url(#SVGID_8_);fill:#248D7B;}
	.pist54{clip-path:url(#SVGID_8_);fill:#EC9F6F;}
	.pist55{fill:none;stroke:#248D7B;stroke-width:2;stroke-miterlimit:10;}
	.pist56{fill:none;stroke:#FDEAE4;stroke-width:5;stroke-miterlimit:10;}
	.pist57{clip-path:url(#SVGID_8_);fill:#EBC9B1;}
	.pist58{fill:none;stroke:#020203;stroke-width:2;stroke-miterlimit:10;}
	.pist59{clip-path:url(#SVGID_10_);fill:#315CA7;}
	.pist60{clip-path:url(#SVGID_10_);}
	.pist61{clip-path:url(#SVGID_10_);fill:#248D7B;}
	.pist62{clip-path:url(#SVGID_10_);fill:#EC9F6F;}
	.pist63{clip-path:url(#SVGID_10_);fill:#EBC9B1;}
	.pist64{fill:none;stroke:#020203;stroke-width:5;stroke-miterlimit:10;}
</style><g><path class="pist2" d="M544.57,625.3c-19.19-31.07,14.87-164.71-51.38-261.72S379.04,243.34,363.84,238.84 c-15.2-4.51-68.26-1.96-125.19-33.3S-25.62,234.5,2.63,389.04s346.96,154.07,421.89,191.07c32.24,20.8,72.2,39.55,91.17,58.68 C557.69,681.15,557.9,646.88,544.57,625.3z"/><path class="pist2" d="M238.65,205.53c0,0,54.58,41.38,78.96,44.55s49.47,3.44,69.01,22.69s7.08,14.36,19.89,31.25 c12.81,16.89,1.05,13.73-1.28,24.33c-2.33,10.61-21.86,13.64-25.21,14.4c-3.35,0.76,0.03,3.88,20.84,11.06s71.34,40.72,86.24,62.78 c14.9,22.06,21.12,33.71,16.93,41.76c-4.19,8.05,26.63,27.48,22.74,39.78c-3.89,12.3-30.41-21.95-14.92,30.88 c15.5,52.83,22.5,91.74,34.82,111.77c12.31,20.04-3.12,17.96-3.12,17.96s-28.98-33.09-44.09-41.62 c-15.11-8.54-12.81-16.89-25.16-34.67c-12.35-17.78-23.49-14.71-36.37-33.22c-12.88-18.51-4.92-19.83-14.55-38.47 c-9.63-18.64-15.6-17.65-15.62,0.75c-0.02,18.4-15.73,13.64-23.81,5.58c-8.08-8.06-18.5,0.61-29.18-31.76 c-10.68-32.37-27.69-28.94-31.68-44.43s2.39-65.81,9.27-84.73c6.88-18.92-9.41,30.79-17.98,42.02s-25.74-55.43-27.13-87.29 S274.92,232.48,238.65,205.53z"/></g><g><g><rect x="230.52" y="40.22" class="pist42" width="77.49" height="9.03"/><path class="pist42" d="M336.48,170.27c-1.19,5.21,2.08,10.4,7.28,11.59c0.71,0.16,1.43,0.24,2.15,0.24h4.27 c1.01,0.01,1.83,0.83,1.83,1.83v17.82c0,1.01-0.82,1.83-1.82,1.83h-3.74c-4.69-0.11-8.78,2.98-9.97,7.54 c-1.19,5.21,2.08,10.4,7.28,11.59c0.71,0.16,1.43,0.24,2.15,0.24h4.27c1.01,0.01,1.83,0.83,1.83,1.83v17.82 c0,1.01-0.82,1.83-1.82,1.83h-3.74c-4.7-0.09-8.78,2.98-9.97,7.54c-1.19,5.21,2.08,10.4,7.28,11.59c0.71,0.16,1.43,0.24,2.15,0.24 h4.27c1.01,0.01,1.83,0.83,1.83,1.83v17.85c0,1.01-0.82,1.83-1.82,1.83h-3.92c-4.22-0.05-8.01,2.53-9.51,6.48 c-1.75,5.04,0.93,10.58,5.98,12.33c1.02,0.35,2.09,0.53,3.17,0.54h6.1v21.5h-5.6c-5.23-0.08-9.66,3.88-10.15,9.09 c-0.16,2.58,0.69,5.07,2.39,7c1.71,1.94,4.07,3.1,6.65,3.27c0.21,0.01,0.41,0.01,0.61,0.01h6.1v27.74h-81.54V137.74h81.54v23.16 c0,1.01-0.82,1.83-1.82,1.83h-3.74c-4.69-0.1-8.78,2.98-9.96,7.51L336.48,170.27z"/><path class="pist42" d="M353.01,131.37v4.37h-84.54v239.53h84.54v22.93c0,29.22-23.67,37.91-44.21,37.91 c-7.41-0.06-14.81-0.75-22.11-2.06c-11.39-1.97-23.04-1.97-34.44,0c-7.3,1.31-14.71,2-22.13,2.06c-20.54,0-44.21-8.69-44.21-37.91 v-53.67h7.1c4.79,0,8.67-3.88,8.67-8.67c0-0.62-0.07-1.24-0.2-1.85c-1.02-4.09-4.74-6.93-8.95-6.85h-6.62v-23.5h7.1 c2.3-0.02,4.5-0.93,6.14-2.55c2.44-2.42,3.21-6.07,1.96-9.28c-1.4-3.39-4.74-5.59-8.41-5.52h-3.96c-1.57,0-2.83-1.26-2.83-2.83 v-17.85c0-1.56,1.26-2.82,2.83-2.83h4.27c2.3-0.01,4.5-0.92,6.14-2.54c2.1-2.1,2.98-5.13,2.32-8.03c-1.05-4.07-4.77-6.88-8.97-6.8 h-3.76c-1.57,0-2.83-1.26-2.83-2.82v-17.83c0-1.56,1.26-2.82,2.83-2.83h4.27c2.3-0.01,4.5-0.92,6.14-2.54 c2.1-2.1,2.98-5.14,2.32-8.04c-1.05-4.06-4.77-6.88-8.97-6.79h-3.76c-1.57,0-2.83-1.26-2.83-2.83v-17.82 c0-1.56,1.26-2.82,2.83-2.83h4.27c2.3-0.01,4.5-0.92,6.14-2.54c2.1-2.1,2.98-5.13,2.32-8.03c-1.05-4.07-4.77-6.89-8.97-6.8h-3.76 c-1.56,0-2.83-1.26-2.83-2.83v-29.53c0,0-1.59-7.1,11.85-30.02c10.33-17.62,22.75-38.98,27.92-47.89 c1.17-2.01,3.12-3.44,5.38-3.96c0-0.17,0.05-0.26,0.08-0.26h76.64c0.06,0,0.08,0.09,0.11,0.26c2.26,0.52,4.19,1.96,5.35,3.96 c5.18,8.91,17.6,30.27,27.92,47.89C354.6,124.27,353.01,131.37,353.01,131.37z"/><path class="pist42" d="M239.44,0.87h60.04c7.79,0,14.11,6.32,14.11,14.11v12.35c0,7.79-6.32,14.11-14.11,14.11h-60.04 c-7.79,0-14.11-6.32-14.11-14.11V14.98C225.33,7.19,231.65,0.87,239.44,0.87z"/></g></g></svg>