<svg id="Layer_1" xmlns="http://www.w3.org/2000/svg" xmlns:xlink="http://www.w3.org/1999/xlink" x="0px" y="0px" viewBox="0 0 1318.72 1070.22" xml:space="preserve" class="bottom right"><style type="text/css">
	.herost0{fill:#248E7A;}
	.herost1{fill:#EB9F6E;}
	.herost2{fill:#FDEBE5;}
	.herost3{fill:#EBC9B2;}
	.herost4{fill:#51B79C;}
	.herost5{fill:none;stroke:#FFFFFF;stroke-miterlimit:10;}
	.herost6{fill:#DEABB0;}
	.herost7{fill:#FFFFFF;}
	.herost8{fill:#D17657;}
	.herost9{fill:none;stroke:#DEABB0;stroke-width:2;stroke-miterlimit:10;}
	.herost10{clip-path:url(#SVGID_2_);fill:#007666;}
	.herost11{clip-path:url(#SVGID_2_);}
	.herost12{fill:#034C42;}
	.herost13{fill:#007666;}
	.herost14{fill:#EECFCE;}
	.herost15{fill:#F8E2DD;}
	.herost16{fill:#F3D9D5;}
	.herost17{fill:none;}
	.herost18{fill:#E5E5E6;}
	.herost19{fill:#F5F6F7;}
	.herost20{fill:#EDECED;}
	.herost21{fill:#FBFBFB;}
	.herost22{fill:none;stroke:#FFFFFF;stroke-width:7;stroke-miterlimit:10;}
	.herost23{fill:none;stroke:#248E7A;stroke-width:2;stroke-miterlimit:10;}
	.herost24{fill:none;stroke:#FDEBE5;stroke-width:5;stroke-miterlimit:10;}
	.herost25{fill:none;stroke:#EB9F6E;stroke-width:4;stroke-miterlimit:10;}
</style><path class="herost0" d="M260.55,971.8c69.1-25.66,74-121.17,105.95-199.23C483.79,486,946.63,481.08,939.12,415.84 c-8.43-73.34-601.8-141.21-836.3,104.68C72.62,552.18,8.1,619.84,4.77,719.47C4.29,733.8,2.61,832.15,78.76,906.26 C116.08,942.6,195.57,995.93,260.55,971.8z"/><path class="herost1" d="M1283.36,348.67c-15.37,13.65-57.14,8.24-121.81,61.3c-133.17,100.14-292.98,101.74-377.62,23.32 c-54.04-50.07-628.74,320.5-631.24,286.18l295.72,135.07l343.94,215.68c0,0,205.86-34.14,342.06-271.13s74.96-173.49,131.34-280.89 C1322.14,410.79,1341.78,296.8,1283.36,348.67z"/><g><path class="herost2" d="M391.47,1049.39c-2.56-11.18,21.2-33.68,47.73-58.8c0.58-0.55,2.18-2.06,2.28-4.15 c0.14-2.87-2.65-5.11-3.9-6.16c-4.97-4.18-8.36-10.01-13.18-14.38c-11.86-10.75-13.17-32.92-13.78-43.37 c-0.66-11.18,0.08-31.17,6.2-32.67c3.48-0.85,7.78,4.52,8.04,4.86c3.62,4.62,1.99,8.43,4.28,13.12c3.11,6.35,9.02,5.3,15.46,10.23 c12.61,9.65,12.08,30.6,11.94,36.15c-0.35,14.08-5.62,23.82-4.7,24.18c1.35,0.53,5.46-23.32,24.43-41.53 c10.63-10.2,22.14-15,20.91-20.79c-0.77-3.62-5.97-5.15-9.7-6.41c-9.84-3.31-22.53-11.61-47.91-28.19 c-15.35-10.04-30.13-19.69-28.21-26.41c1.79-6.28,17.3-6.88,21.35-7.03c19.88-0.77,45.87,8.13,57.4,28.13 c0.01,0.02,0.03,0.05,0.04,0.08c5.85,11.46,5.24,17.24,10.61,25.91c1.44,2.33,2.04,3.57,2.7,3.81 c8.77,3.25,32.87-46.92,37.59-51.34c0.2-0.19,1.13-1.01,1.53-2.37c0.51-1.74-0.13-3.38-0.51-4.21 c-6.68-14.96-11.58-19.83-11.58-19.83c-13.97-13.88-17.47-40.84-22.36-78.37c-0.55-4.22-1.26-10.59,1.35-11.95 c3.92-2.03,12.91,8.44,16.42,12.53c9.85,11.47,25.81,30.07,27.45,57.55c1.07,17.9-4.4,32.07-2.3,32.67 c1.13,0.32,2.77-3.74,8.67-15.05c11.94-22.9,17.91-34.35,22.82-38.8c2.03-1.84,4.14-3.45,4.05-5.73 c-0.22-5.58-13.41-7.9-23.1-11.61c-33.16-12.67-45.21-48.97-53.87-75.03c-0.9-2.72-2.19-6.99-0.28-8.85 c4.65-4.54,24.42,9.08,30.04,12.95c19.4,13.36,37.67,25.95,43.62,47.84c2.76,10.17,2.57,21.27,6.27,21.75 c2.48,0.32,4.93-4.36,6.65-7.51c17.16-31.26,32.79-38.32,29.15-51.4c-1.51-5.42-5.26-8.08-8.57-11.17 c-32.33-30.13-26.33-109.76-10.98-114c1.71-0.47,3.27,0.07,4.42,0.56c21.53,9.21,38.17,48.23,31.88,70.47 c0,0-3.36,11.89-5.34,28.91c-0.21,1.82-0.2,3.81-0.2,3.96c0.02,3.16,0.03,4.74,0.49,4.96c2.9,1.4,22.5-40.54,25.63-52.72 c0.83-3.24,0.84-5.71,0.78-7.1c-0.22-4.6-1.82-7.99-2.45-9.28c-9.96-20.58-14.93-30.87-20.32-39.43 c-15.9-25.27-12.35-64.74-3.46-67.96c8.07-2.93,28.33,21.22,34.93,48.21c6.21,25.44-1.14,47.54,2.55,48.38 c2.21,0.5,3.97-7.64,14.08-25.54c8.64-15.29,15.01-22.9,11.96-29.35c-1.49-3.13-4.47-4.46-6.04-5.24 c-21.06-10.44-35.55-45.81-39.76-56.09c-2.17-5.29-15.68-38.29-7.98-43.39c6.37-4.23,28.06,10.11,38.78,29.73 c6.48,11.85,17.44,41.17,18.3,56.97c0.06,1.05,0.21,4.56,1.48,4.86c1.63,0.39,4.13-4.63,9.03-15.34 c0.81-1.77,7.49-16.58,15.93-44.88c0.48-1.62,1-3.42,0.49-5.57c-1.85-7.81-14.25-7.58-24.98-13.44 c-12.57-6.87-17.73-20-28.03-46.28c-5.42-13.83-8.37-21.58-5.13-24.68c5.84-5.58,26.91,8.57,32.45,12.29 c10.99,7.38,29.35,19.72,30.37,35.75c0.12,1.9,0.21,7.32,1.01,15.77c1.19,12.72,2.21,13.61,2.77,13.68 c1.42,0.17,2.91-4.65,4.71-9.44c8.72-23.21,17.8-27.02,17.39-40.9c-0.07-2.36-0.25-7-2.72-12c-6.17-12.49-18.63-10.97-32.02-19.54 c-15.75-10.08-20.7-29.57-30.58-68.54c-0.75-2.94-1.88-7.7,0.51-10.11c4.4-4.45,18.29,1.55,26.95,7.31 c24.32,16.16,32.11,46.81,33.19,51.11c2.1,8.27,4.69,16.42,6.3,24.8c1.46,7.54,1.93,12.19,3.4,12.31c1.95,0.16,3.3-7.92,7.07-19.12 c6.16-18.3,13.94-30.48,17.44-44.6c0.1-0.4,1.37-5.67,1.26-12.66c-0.06-4.04-0.11-6.11-1.26-8.02c-2.88-4.82-10.2-4.55-14.36-5.3 c-11.96-2.15-18.69-16.42-26.61-33.22c-9.45-20.03-19.73-52.33-12.33-56.5c1.63-0.92,4.01-0.41,12.36,5.21 c19.58,13.19,34.75,23.41,42.78,42.65c8.55,20.48,4.16,39.59,7.62,39.88c1.72,0.15,2.93-4.58,6.74-13.9 c10.17-24.87,17.82-30.88,14.69-36.76c-2.61-4.88-8.97-2.72-22.6-6.98c-13.31-4.16-22.05-10.85-28.73-15.98 c-1.49-1.14-22.1-17.28-28.13-38.87c-0.74-2.66-1.44-6.03,0.25-7.75c2.43-2.46,8.32-0.06,20.7,4.87 c21.28,8.49,20.7,8.11,21.14,8.38c19.99,12.57,18.73,36.48,31.78,38.05c3.15,0.38,7.61-0.62,10.58-3.46 c2.92-2.79,3.03-6.11,4-10.59c3.38-15.62,11.11-17.6,10.61-28.68c-0.07-1.45-0.34-6.21-3.19-10.97c-5.35-8.92-14.82-6.3-25.6-12.07 c-13.4-7.16-18.73-21.35-25.29-38.82c-3.98-10.61-7.42-19.76-3.9-22.88c5.52-4.89,24.3,8.49,32.69,14.47 c12.6,8.97,20.57,14.65,25.04,25.88c5.57,13.99-0.25,27.26,1.72,27.68c1.87,0.39,3.25-12.16,12.95-28.44 c2.41-4.05,4.17-6.36,4.19-10.09c0.04-8.08-8.12-13.47-12.24-17.16c-19.63-17.61-17.93-60.16-8.89-64.04 c5.96-2.56,16.65,11.05,18.98,14.02c15.83,20.16,9,48,12.4,48.26c1.87,0.15,2.35-8.17,9.31-22.24c3.89-7.86,5.85-9.54,5.43-12.83 c-1.11-8.84-17.28-13.17-23.36-15.19C820.4,65.83,791.19,9.51,798.05,1.32c4.51-5.37,26.94,7.17,32.22,10.12 c8.99,5.03,38.83,21.71,43.56,46.31c0.65,3.38,1.54,10.62,5.9,12.2c4.35,1.58,8.19-3.9,15.29-2.63c4.4,0.79,5.14,3.29,8.01,3.65 c6.92,0.86,11.74-12.2,19.44-22.64c13.31-18.05,37.59-31.87,54.39-26.28c2.34,0.78,7.51,2.5,9.65,7.11 c5.58,12.02-14.11,33.54-29.27,44.23c-16.11,11.37-40.54,20.01-50.98,16.43c-1.17-0.4-5.37-2.06-8.55-0.09 c-2.88,1.78-3.48,5.64-3.72,6.99c-3.17,17.48-23.7,30.93-18.6,42.03c1.35,2.94,3.89,4.38,4.76,4.88 c9.06,5.16,20.35-4.44,31.53-7.91c27.06-8.4,62.45,16.36,60.66,25.99c-0.77,4.14-8.46,5.82-19.9,8.32 c-9.01,1.97-26.4,5.77-44.98-1.47c-16.31-6.36-24.69-17.77-30.04-14.22c-2.05,1.36-1.33,3.38-4.47,11 c-3.93,9.51-7.91,13.26-7,14.19c1.28,1.31,9.3-5.98,23.86-14.66c10.11-6.02,15.29-9.05,21.61-9.71 c10.25-1.08,24.37,2.77,25.73,9.54c2.39,11.91-33.17,40.51-61.32,35.61c-6.06-1.05-14.97-4.21-21.24,0.65 c-3.24,2.51-2.75,4.83-6.55,14.39c-5.82,14.65-10.06,16.98-11.4,27.39c-0.57,4.4-0.77,11.4,1.04,11.88 c2.34,0.62,5.19-10.55,12.05-20.58c13.74-20.07,42.1-33.42,61.64-25.69c3.51,1.39,6.75,2.67,8.08,5.85 c5.32,12.77-24.16,46.93-57.51,52.01c-10.02,1.53-14.14-0.52-22.02,3.55c-18.61,9.61-25.65,36.52-21.99,38.86 c2.15,1.38,6.35-6.82,19.86-16.48c3.59-2.57,37.48-26.14,67.06-14c5.03,2.06,8.04,3.3,8.97,6.25 c4.73,15.01-49.69,56.85-84.09,50.23c-3-0.58-7.97-1.93-13.71,0.1c-9.39,3.32-12.34,12.71-21.23,32.22 c-13.2,28.98-21.34,40.46-17.43,44.03c2.26,2.06,6.99,0.09,7.7-0.21c8.89-3.7,8.04-15,13.55-24.58c9.77-17,33.4-17.96,77.16-19.75 c2.19-0.09,5.63-0.19,6.8,1.77c3.1,5.18-11.73,21.34-25.64,31.54c-21.25,15.59-44.14,20.05-58.87,22.77 c-7.25,1.34-12.98-1.33-18.97,2.5c-6.76,4.33-7.56,11.01-13.58,26.96c-8.43,22.32-13.76,27.47-11.34,30.1 c4.54,4.94,22.28-14.43,52.6-18.21c24.55-3.06,51.31,4.86,51.99,13.07c0.21,2.49-2.01,4.77-6.59,8.14 c-7.79,5.73-46.25,34-78.66,19.6c-8.87-3.94-15.71-10.38-23.13-7.35c-5.04,2.06-7.29,7.24-9.06,11.25 c-16.57,37.64-22.82,44.63-19.56,47.56c3.84,3.45,11.72-6.95,32.75-13.19c30.44-9.04,54.51,0.7,65.11,4.99 c11.83,4.79,12.16,7.61,12.15,8.45c-0.1,6.38-21.57,12.39-38.49,14.29c-3.41,0.38-45.47,4.91-68.77-2.14 c-1.92-0.58-7.05-2.25-11.12,0.24c-3.34,2.04-3.9,5.62-6.43,12.98c-4.78,13.89-7.74,15.62-6.51,17.18 c4.76,6.05,51.69-16.4,61.77-32.59c0.9-1.45,4.17-7.13,7.81-6.78c2.62,0.25,4.26,3.5,4.63,4.23c5.31,10.52-14.73,52.83-48.42,62 c-18.14,4.94-36.54-0.74-47.31,12.93c-1.9,2.4-2.83,4.49-3.55,6.07c-15.54,34.21-33.07,53.21-28.77,57.42 c2.12,2.08,7.25-1.47,9.02,0.92c2.46,3.34-5.42,13.03-5.98,13.71c-6.53,7.93-12.04,9.4-18.17,14 c-14.27,10.69-21.04,30.15-17.55,33.37c2.05,1.89,7.27-2.19,17.21-7.28c32.32-16.54,61.28-16.47,76.74-9.6 c2.6,1.16,5.07,2.61,5.4,4.84c0.25,1.7-0.34,6.51-26.9,18.77c-23.38,10.8-35.07,16.2-48.56,17.39c-21.12,1.88-30.4-5-41.11,2.76 c-6.08,4.41-7.89,10.11-11.29,18.46c-3.68,9.04-21.68,51.83-50.13,81.9c-7.88,8.33-16.53,15.64-15.28,17.43 c1.74,2.5,17.96-12.39,41.65-12.59c6.79-0.06,15.59,2.53,33.2,7.69c19.01,5.58,23.17,8.74,23.39,11.97 c0.19,2.81-2.64,5.24-5.02,6.99c-25.19,18.59-50.72,13.5-50.72,13.5c-22.44-4.48-30.93-19.75-48.09-14.74 c-2.87,0.84-4.65,1.86-8.01,3.78c-12.41,7.09-15.82,14.9-34.76,44.09c-7.95,12.26-10.34,15.49-8.92,19.01 c2.72,6.7,14.68,2.94,30.33,8.24c29.55,10.02,39.84,41.39,41.93,53.03c1.16,6.48,0.06,8.43-0.99,9.09c-3.1,1.95-9.18-5-19.4-10.95 c-12.69-7.4-15.26-3.65-24.47-9.02c-19.1-11.14-18.09-33.05-31.61-34.8c-4.54-0.59-8.11,1.43-12.19,3.73 c-24.04,13.58-20.28,47.46-35.7,51.35C403.2,1061.12,392.9,1055.64,391.47,1049.39z"/></g><g><path class="herost8" d="M862.26,829.71c0,0-1.08-8.82-1.89-13.8c-0.81-4.99-0.39-6.18-0.39-6.18s-9.94-9.1-22.77-13.34 s-28.48-9.03-30.74-36.38c-2.26-27.35,9.06-24.24,9.42-34.08c0.36-9.84-2.18-13.95-2.18-13.95s0.02,4.76,10.93,8.19 c10.91,3.43,17.98,5.27,21.74,7.54c3.77,2.27,3.52,3.2,6.51,4.37s11.07,4.04,12.55,6.91s0,2.82,3.75,5.95s6.76,9.07,7.54,12.98 c0.78,3.91-1.09,6.13-0.01,9.32c1.08,3.19,4.66,2.9,5.83,7.36c1.16,4.46-4.12,18.84-10.34,25.88c-6.22,7.04-10.42,9.65-9.24,16.06 c1.18,6.41,1.79,13.42,1.79,13.42L862.26,829.71z"/><path class="herost8" d="M814.95,715.35c3.48,3.96,10.64,18.38,10.64,18.38c1.12,2.3,9.49,17.94,12.01,24.3 c2.52,6.35,6.94,17.39,11.63,23.48c4.68,6.09,12.09,24.04,12.94,25.88c0,0-0.88,3.14-0.63,4.87"/><path class="herost8" d="M858.97,800.05c0,0-11.09-6.61-18.82-10.54c-7.72-3.93-9.72-2.34-16.15-6.6 c-5.52-3.66-13.76-15.71-16.16-19.31c-0.4-0.6-0.5-2-0.5-2"/><path class="herost8" d="M855.13,791.86c0,0-27.02-16.26-35.49-25.03c-8.47-8.76-11.67-19.05-11.67-19.05l-0.88-3.38"/><path class="herost8" d="M846.97,778.62c0,0-19.03-14.84-24.09-21.08c-5.06-6.24-10.88-23.53-10.88-23.53"/><path class="herost8" d="M838.98,761.96c0,0-7.16-6.38-14.99-17.29s-8.12-17.63-8.12-17.63"/><path class="herost8" d="M861.92,806.45c0,0,4.49-7.79,7.95-12.65c3.46-4.86,9.79-14.14,7.52-22.54l-1.95-5.18"/><path class="herost8" d="M858.97,800.05c0,0,6.94-8.57,8.48-15.53c1.54-6.95,3.42-13.54,3.01-23.03c-0.42-9.49-0.63-12.94-0.63-12.94 s-0.66-3.08-1.95-4.77"/><path class="herost8" d="M856.08,793.81c0,0,6.38-20.87,6.26-28.87c-0.11-8-3.89-23.63-3.89-23.63s-1.22-6.79-5.56-9.23"/><path class="herost8" d="M849.77,782.24c0,0,3.9-12.71,1.7-25.09c-2.2-12.38-4.82-21.75-4.82-21.75s-4.73-9.59-12.03-11.17 c-0.25-0.05-4.43-2.37-4.69-2.41"/><path class="herost8" d="M838.6,760.53c0,0,4.62-15.86-0.89-24.48c0,0-7.22-11.86-11.73-14.05c-4.7-2.28-8.51-5.12-8.51-5.12"/></g><g><path class="herost8" d="M708.29,935.24c0,0,6.78-5.73,10.51-9.14c3.73-3.41,4.96-3.71,4.96-3.71s2.17-13.31-1.31-26.35 c-3.48-13.05-8.04-28.78,13.61-45.64c21.65-16.87,25.24-5.7,33.67-10.79s10.48-9.46,10.48-9.46s-3.97,2.63-0.87,13.63 c3.1,11.01,5.44,17.93,5.6,22.32c0.17,4.39-0.75,4.7-0.09,7.84c0.66,3.14,2.68,11.47,1.09,14.28c-1.59,2.81-2.35,1.54-2.93,6.4 c-0.57,4.85-3.88,10.62-6.73,13.42c-2.85,2.79-5.72,2.45-7.8,5.09s0.13,5.49-2.97,8.91c-3.1,3.42-18.02,6.87-27.31,5.52 c-9.3-1.35-13.78-3.43-18.49,1.07c-4.71,4.5-10.25,8.85-10.25,8.85L708.29,935.24z"/><path class="herost8" d="M778.07,833.03c-1.4,5.08-9.55,18.97-9.55,18.97c-1.31,2.19-9.81,17.77-13.75,23.36s-10.75,15.33-13.28,22.59 c-2.53,7.25-13.5,23.28-14.57,25c0,0-3.11,0.99-4.42,2.14"/><path class="herost8" d="M731.31,916.25c0,0-0.54-12.9-1.49-21.51s-3.36-9.41-3.32-17.13c0.04-6.62,5.61-20.12,7.31-24.09 c0.28-0.66,1.4-1.51,1.4-1.51"/><path class="herost8" d="M736.06,908.54c0,0-1.19-31.52,1.5-43.4c2.69-11.89,9.55-20.2,9.55-20.2l2.34-2.59"/><path class="herost8" d="M742.67,894.47c0,0,1.99-24.05,4.44-31.7s13.73-21.99,13.73-21.99"/><path class="herost8" d="M752.23,878.65c0,0,1.42-9.49,6.26-22.02c4.84-12.53,10.31-16.45,10.31-16.45"/><path class="herost8" d="M727.57,922.22c0,0,8.98-0.51,14.94-0.28s17.19,0.45,22.97-6.05l3.27-4.47"/><path class="herost8" d="M731.31,916.25c0,0,10.98,1.11,17.64-1.41s13.21-4.55,20.92-10.1c7.71-5.55,10.48-7.61,10.48-7.61 s2.21-2.24,2.93-4.24"/><path class="herost8" d="M734.95,910.4c0,0,20.95-6.09,27.59-10.57c6.64-4.48,17.64-16.2,17.64-16.2s5.02-4.74,4.68-9.7"/><path class="herost8" d="M741.17,898.79c0,0,12.77-3.7,21.92-12.32s15.56-15.95,15.56-15.95s5.43-9.21,2.76-16.19 c-0.09-0.24-0.44-5.01-0.55-5.24"/><path class="herost8" d="M753.22,877.56c0,0,15.8-4.82,19.99-14.16c0,0,5.97-12.53,5.33-17.51c-0.66-5.19-0.38-9.93-0.38-9.93"/></g><g><path class="herost8" d="M856.16,672.61c0,0,8.82-1.08,13.8-1.89c4.99-0.81,6.18-0.39,6.18-0.39s9.1-9.94,13.34-22.77 s9.03-28.48,36.38-30.74c27.35-2.26,24.24,9.06,34.08,9.42c9.84,0.36,13.95-2.18,13.95-2.18s-4.76,0.02-8.19,10.93 c-3.43,10.91-5.27,17.98-7.54,21.74c-2.27,3.77-3.2,3.52-4.37,6.51c-1.17,2.99-4.04,11.07-6.91,12.55c-2.86,1.48-2.82,0-5.95,3.75 c-3.14,3.75-9.07,6.76-12.98,7.54c-3.91,0.78-6.13-1.09-9.32-0.01c-3.19,1.08-2.9,4.66-7.36,5.83 c-4.46,1.16-18.84-4.12-25.88-10.34c-7.04-6.22-9.65-10.42-16.06-9.24c-6.41,1.18-13.42,1.79-13.42,1.79L856.16,672.61z"/><path class="herost8" d="M970.53,625.3c-3.96,3.48-18.38,10.64-18.38,10.64c-2.3,1.12-17.94,9.49-24.3,12.01s-17.39,6.94-23.48,11.63 c-6.09,4.68-24.04,12.09-25.88,12.94c0,0-3.14-0.88-4.87-0.63"/><path class="herost8" d="M885.82,669.32c0,0,6.61-11.09,10.54-18.82s2.34-9.72,6.6-16.15c3.66-5.52,15.71-13.76,19.31-16.16 c0.6-0.4,2-0.5,2-0.5"/><path class="herost8" d="M894.02,665.48c0,0,16.26-27.02,25.03-35.49c8.76-8.47,19.05-11.67,19.05-11.67l3.38-0.88"/><path class="herost8" d="M907.25,657.32c0,0,14.84-19.03,21.08-24.09s23.53-10.88,23.53-10.88"/><path class="herost8" d="M923.92,649.33c0,0,6.38-7.16,17.29-14.99s17.63-8.12,17.63-8.12"/><path class="herost8" d="M879.42,672.27c0,0,7.79,4.49,12.65,7.95c4.86,3.46,14.14,9.79,22.54,7.52l5.18-1.95"/><path class="herost8" d="M885.82,669.32c0,0,8.57,6.94,15.53,8.48c6.95,1.54,13.54,3.42,23.03,3.01c9.49-0.42,12.94-0.63,12.94-0.63 s3.08-0.66,4.77-1.95"/><path class="herost8" d="M892.07,666.43c0,0,20.87,6.38,28.87,6.26c8-0.11,23.63-3.89,23.63-3.89s6.79-1.22,9.23-5.56"/><path class="herost8" d="M903.63,660.12c0,0,12.71,3.9,25.09,1.7c12.38-2.2,21.75-4.82,21.75-4.82s9.59-4.73,11.17-12.03 c0.05-0.25,2.37-4.43,2.41-4.69"/><path class="herost8" d="M925.34,648.96c0,0,15.86,4.62,24.48-0.89c0,0,11.86-7.22,14.05-11.73c2.28-4.7,5.12-8.51,5.12-8.51"/></g><g><path class="herost8" d="M1023.27,615.13c0,0-1.08-8.82-1.89-13.8c-0.81-4.99-0.39-6.18-0.39-6.18s-9.94-9.1-22.77-13.34 c-12.82-4.23-28.48-9.03-30.74-36.38c-2.26-27.35,9.06-24.24,9.42-34.08c0.36-9.84-2.18-13.95-2.18-13.95s0.02,4.76,10.93,8.19 c10.91,3.44,17.98,5.27,21.74,7.54c3.77,2.27,3.52,3.2,6.51,4.37c2.99,1.17,11.07,4.04,12.55,6.91s0,2.82,3.75,5.95 c3.75,3.14,6.76,9.07,7.54,12.98c0.78,3.91-1.09,6.13-0.01,9.32c1.08,3.19,4.66,2.9,5.83,7.36c1.16,4.46-4.12,18.84-10.34,25.88 c-6.22,7.04-10.42,9.65-9.24,16.06s1.79,13.42,1.79,13.42L1023.27,615.13z"/><path class="herost8" d="M975.97,500.77c3.48,3.96,10.64,18.38,10.64,18.38c1.12,2.3,9.49,17.94,12.01,24.3 c2.52,6.35,6.94,17.39,11.63,23.48c4.68,6.09,12.09,24.04,12.94,25.88c0,0-0.88,3.14-0.63,4.87"/><path class="herost8" d="M1019.98,585.48c0,0-11.09-6.61-18.82-10.54c-7.72-3.93-9.72-2.34-16.15-6.6 c-5.52-3.66-13.76-15.71-16.16-19.31c-0.4-0.6-0.5-2-0.5-2"/><path class="herost8" d="M1016.14,577.28c0,0-27.02-16.26-35.49-25.03c-8.47-8.76-11.67-19.05-11.67-19.05l-0.88-3.38"/><path class="herost8" d="M1007.98,564.04c0,0-19.03-14.84-24.09-21.08c-5.06-6.24-10.88-23.53-10.88-23.53"/><path class="herost8" d="M999.99,547.38c0,0-7.16-6.38-14.99-17.29c-7.83-10.91-8.12-17.63-8.12-17.63"/><path class="herost8" d="M1022.94,591.87c0,0,4.49-7.79,7.95-12.65c3.46-4.86,9.79-14.14,7.52-22.54l-1.95-5.18"/><path class="herost8" d="M1019.98,585.48c0,0,6.94-8.57,8.48-15.53s3.42-13.54,3.01-23.03c-0.42-9.49-0.63-12.94-0.63-12.94 s-0.66-3.08-1.95-4.77"/><path class="herost8" d="M1017.09,579.23c0,0,6.38-20.87,6.26-28.87c-0.11-8-3.89-23.63-3.89-23.63s-1.22-6.79-5.56-9.23"/><path class="herost8" d="M1010.78,567.67c0,0,3.9-12.71,1.7-25.09c-2.2-12.38-4.82-21.75-4.82-21.75s-4.73-9.59-12.03-11.17 c-0.25-0.05-4.43-2.37-4.69-2.41"/><path class="herost8" d="M999.62,545.96c0,0,4.62-15.86-0.89-24.48c0,0-7.22-11.86-11.73-14.05c-4.7-2.28-8.51-5.12-8.51-5.12"/></g><g><path class="herost8" d="M1180.8,484.49c0,0-8.82,1.08-13.8,1.89c-4.99,0.81-6.18,0.39-6.18,0.39s-9.1,9.94-13.34,22.77 c-4.23,12.82-9.03,28.48-36.38,30.74c-27.35,2.26-24.24-9.06-34.08-9.42c-9.84-0.36-13.95,2.18-13.95,2.18s4.76-0.02,8.19-10.93 c3.44-10.91,5.27-17.98,7.54-21.74c2.27-3.77,3.2-3.52,4.37-6.51s4.04-11.07,6.91-12.55c2.86-1.48,2.82,0,5.95-3.75 s9.07-6.76,12.98-7.54c3.91-0.78,6.13,1.09,9.32,0.01c3.19-1.08,2.9-4.66,7.36-5.83s18.84,4.12,25.88,10.34 c7.04,6.22,9.65,10.42,16.06,9.24c6.41-1.18,13.42-1.79,13.42-1.79L1180.8,484.49z"/><path class="herost8" d="M1066.44,531.8c3.96-3.48,18.38-10.64,18.38-10.64c2.3-1.12,17.94-9.49,24.3-12.01 c6.35-2.52,17.39-6.94,23.48-11.63c6.09-4.68,24.04-12.09,25.88-12.94c0,0,3.14,0.88,4.87,0.63"/><path class="herost8" d="M1151.14,487.78c0,0-6.61,11.09-10.54,18.82s-2.34,9.72-6.6,16.15c-3.66,5.52-15.71,13.76-19.31,16.16 c-0.6,0.4-2,0.5-2,0.5"/><path class="herost8" d="M1142.95,491.63c0,0-16.26,27.02-25.03,35.49c-8.76,8.47-19.05,11.67-19.05,11.67l-3.38,0.88"/><path class="herost8" d="M1129.71,499.78c0,0-14.84,19.03-21.08,24.09s-23.53,10.88-23.53,10.88"/><path class="herost8" d="M1113.05,507.78c0,0-6.38,7.16-17.29,14.99c-10.91,7.83-17.63,8.12-17.63,8.12"/><path class="herost8" d="M1157.54,484.83c0,0-7.79-4.49-12.65-7.95c-4.86-3.46-14.14-9.79-22.54-7.52l-5.18,1.95"/><path class="herost8" d="M1151.14,487.78c0,0-8.57-6.94-15.53-8.48c-6.95-1.54-13.54-3.42-23.03-3.01s-12.94,0.63-12.94,0.63 s-3.08,0.66-4.77,1.95"/><path class="herost8" d="M1144.9,490.68c0,0-20.87-6.38-28.87-6.26c-8,0.11-23.63,3.89-23.63,3.89s-6.79,1.22-9.23,5.56"/><path class="herost8" d="M1133.33,496.99c0,0-12.71-3.9-25.09-1.7c-12.38,2.2-21.75,4.82-21.75,4.82s-9.59,4.73-11.17,12.03 c-0.05,0.25-2.37,4.43-2.41,4.69"/><path class="herost8" d="M1111.62,508.15c0,0-15.86-4.62-24.48,0.89c0,0-11.86,7.22-14.05,11.73c-2.28,4.7-5.12,8.51-5.12,8.51"/></g></svg>