<svg id="Layer_1" xmlns="http://www.w3.org/2000/svg" xmlns:xlink="http://www.w3.org/1999/xlink" x="0px" y="0px" viewBox="0 0 653.86 796.02" xml:space="preserve" class="bottom left"><style type="text/css">
	.herost0{fill:#248E7A;}
	.herost1{fill:#EB9F6E;}
	.herost2{fill:#FDEBE5;}
	.herost3{fill:#EBC9B2;}
	.herost4{fill:#51B79C;}
	.herost5{fill:none;stroke:#FFFFFF;stroke-miterlimit:10;}
	.herost6{fill:#DEABB0;}
	.herost7{fill:#FFFFFF;}
	.herost8{fill:#D17657;}
	.herost9{fill:none;stroke:#DEABB0;stroke-width:2;stroke-miterlimit:10;}
	.herost10{clip-path:url(#SVGID_2_);fill:#007666;}
	.herost11{clip-path:url(#SVGID_2_);}
	.herost12{fill:#034C42;}
	.herost13{fill:#007666;}
	.herost14{fill:#EECFCE;}
	.herost15{fill:#F8E2DD;}
	.herost16{fill:#F3D9D5;}
	.herost17{fill:none;}
	.herost18{fill:#E5E5E6;}
	.herost19{fill:#F5F6F7;}
	.herost20{fill:#EDECED;}
	.herost21{fill:#FBFBFB;}
	.herost22{fill:none;stroke:#FFFFFF;stroke-width:7;stroke-miterlimit:10;}
	.herost23{fill:none;stroke:#248E7A;stroke-width:2;stroke-miterlimit:10;}
	.herost24{fill:none;stroke:#FDEBE5;stroke-width:5;stroke-miterlimit:10;}
	.herost25{fill:none;stroke:#EB9F6E;stroke-width:4;stroke-miterlimit:10;}
</style><path class="herost1" d="M5.69,558.22c325.45,120.87,300.16,145.8,443.72-24.96s32.5-250.57-17.19-266.95 c-49.69-16.38-48.09-170.91-101.5-184.18S74.21,106.5,61.98,266.3S5.69,558.22,5.69,558.22z"/><g><path class="herost22" d="M51.48,593.57c0,0,34.01-18.95,52.91-30.48s24.44-11.8,24.44-11.8s20.53-55.41,16.54-114.46 c-3.99-59.06-10.38-130.54,96.94-184.88s113.37-3.27,153.92-18.06c40.55-14.79,53.02-31.86,53.02-31.86s-19.29,7.95-15.22,57.9 s8.29,81.7,5.31,100.73c-2.98,19.03-7.17,19.57-6.97,33.64c0.19,14.07,1.86,51.6-7.32,62.34c-9.18,10.74-11.43,4.66-17.97,25.06 c-6.55,20.4-25.64,42.42-40.24,52.04c-14.6,9.62-26.69,5.72-37.84,15.35c-11.15,9.63-4.07,23.72-20.26,35.81 s-83.28,14.39-122.13,0.77s-56.4-26.37-80.45-10.98s-51.53,29.45-51.53,29.45L51.48,593.57z"/><path class="herost22" d="M437.66,212.62c-10.32,20.67-57.06,73.56-57.06,73.56c-7.49,8.33-57.17,68.17-78.81,88.89 s-59.13,56.91-76.14,85.98s-77.65,88.78-83.71,95.28c0,0-14.21,1.63-20.81,5.49"/><path class="herost22" d="M166.46,531.23c0,0,8.51-55.95,11.7-93.8c3.19-37.85-6.54-43.31,0.13-76.49 c5.73-28.46,41.06-81.81,51.73-97.49c1.77-2.6,7.3-5.34,7.3-5.34"/><path class="herost22" d="M193.39,502.08c0,0,21.4-136.57,42.98-185.43s58.07-78.85,58.07-78.85l12.25-9.15"/><path class="herost22" d="M233.66,447.12c0,0,28.81-101.77,45.77-132.63S357,231.45,357,231.45"/><path class="herost22" d="M288.1,387.13c0,0,14.08-39.63,45.44-89.43s58.18-62.1,58.18-62.1"/><path class="herost22" d="M145.36,553.78c0,0,39.04,5.37,64.49,11.37c25.46,6,73.58,16.42,103.91-6.7l17.81-16.49"/><path class="herost22" d="M166.46,531.23c0,0,46.28,14.03,77.05,8.78c30.77-5.25,60.63-8.47,98.49-25.83 c37.85-17.37,51.5-23.93,51.5-23.93s11.41-7.77,16.16-15.79"/><path class="herost22" d="M187.03,509.16c0,0,95.25-8.58,127.56-22.25s89.51-54.82,89.51-54.82s25.57-16.16,28.28-37.79"/><path class="herost22" d="M223.56,464.44c0,0,58.04-5.17,104.67-34.55s80.36-55.49,80.36-55.49s31.11-35.03,25.5-67.3 c-0.19-1.11,2.31-21.9,2.03-23.01"/><path class="herost22" d="M293.27,383.27c0,0,72.02-7.44,97.91-44.06c0,0,36.21-48.88,37.66-70.82c1.5-22.86,6.71-43.01,6.71-43.01"/></g><g><path class="herost23" d="M357,793.42c0,0,7.97-6.48,12.35-10.34c4.38-3.86,5.81-4.18,5.81-4.18s2.8-15.33-0.94-30.5 s-8.67-33.44,16.73-52.47c25.4-19.03,29.31-6.04,39.16-11.74s12.32-10.7,12.32-10.7s-4.65,2.95-1.3,15.74 c3.34,12.79,5.89,20.85,5.99,25.93c0.1,5.08-0.97,5.41-0.27,9.06c0.69,3.65,2.84,13.32,0.95,16.53c-1.89,3.21-2.76,1.73-3.52,7.33 c-0.77,5.6-4.72,12.19-8.07,15.36c-3.35,3.17-6.67,2.71-9.13,5.72s0.03,6.35-3.62,10.23c-3.65,3.88-20.98,7.55-31.69,5.79 c-10.72-1.76-15.86-4.27-21.4,0.83c-5.55,5.1-12.04,10.01-12.04,10.01L357,793.42z"/><path class="herost23" d="M439.9,676.78c-1.73,5.84-11.46,21.72-11.46,21.72c-1.57,2.51-11.73,20.33-16.41,26.7 c-4.67,6.37-12.76,17.49-15.85,25.82c-3.09,8.33-16.11,26.62-17.39,28.58c0,0-3.62,1.07-5.15,2.38"/><path class="herost23" d="M384.02,771.96c0,0-0.35-14.93-1.25-24.9c-0.9-9.98-3.68-10.95-3.46-19.88c0.19-7.66,6.93-23.13,8.98-27.69 c0.34-0.76,1.65-1.72,1.65-1.72"/><path class="herost23" d="M389.68,763.16c0,0-0.69-36.46,2.68-50.14c3.37-13.68,11.48-23.14,11.48-23.14l2.76-2.94"/><path class="herost23" d="M397.63,747.04c0,0,2.83-27.76,5.82-36.55c3-8.79,16.35-25.12,16.35-25.12"/><path class="herost23" d="M409.03,728.96c0,0,1.84-10.94,7.71-25.31c5.87-14.37,12.27-18.8,12.27-18.8"/><path class="herost23" d="M379.57,778.79c0,0,10.39-0.39,17.28,0c6.89,0.39,19.87,0.9,26.69-6.49l3.87-5.1"/><path class="herost23" d="M384.02,771.96c0,0,12.67,1.53,20.42-1.24c7.75-2.77,15.37-4.97,24.41-11.22s12.29-8.57,12.29-8.57 s2.61-2.54,3.48-4.84"/><path class="herost23" d="M388.35,765.29c0,0,24.35-6.59,32.12-11.62c7.77-5.03,20.75-18.34,20.75-18.34s5.9-5.37,5.62-11.11"/><path class="herost23" d="M395.8,752c0,0,14.84-4,25.61-13.77c10.77-9.77,18.34-18.09,18.34-18.09s6.48-10.52,3.55-18.65 c-0.1-0.28-0.4-5.8-0.53-6.07"/><path class="herost23" d="M410.19,727.72c0,0,18.37-5.23,23.42-15.93c0,0,7.17-14.36,6.54-20.12c-0.66-6.01-0.23-11.48-0.23-11.48"/></g><g><path class="herost23" d="M520.65,664.2c0,0,3.14-9.78,4.7-15.41c1.56-5.63,2.58-6.68,2.58-6.68s-6.03-14.37-17.44-25.03 s-25.53-23.28-14.64-53.09c10.88-29.81,21.25-21.06,26.4-31.22c5.15-10.16,4.47-15.69,4.47-15.69s-2.28,5.01,7.5,13.9 c9.79,8.89,16.32,14.24,19.18,18.45c2.86,4.2,2.15,5.06,4.72,7.74c2.57,2.68,9.66,9.61,9.83,13.33c0.17,3.72-1.36,2.96,1.05,8.07 c2.42,5.11,2.71,12.79,1.63,17.28c-1.08,4.48-4.11,5.91-4.52,9.78c-0.41,3.86,3.49,5.3,2.55,10.55s-13.45,17.78-23.39,22.16 c-9.94,4.38-15.62,5.08-17.48,12.38c-1.86,7.3-4.62,14.96-4.62,14.96L520.65,664.2z"/><path class="herost23" d="M526.39,521.21c1.74,5.84,2.26,24.46,2.26,24.46c0.06,2.95,1.27,23.44,0.84,31.33 c-0.44,7.89-1.14,21.62,0.83,30.29c1.96,8.67,1.04,31.1,1.05,33.44c0,0-2.44,2.87-3.02,4.81"/><path class="herost23" d="M531.57,631.46c0,0-8.44-12.31-14.65-20.18s-9.07-7.16-13.76-14.76c-4.03-6.52-6.83-23.16-7.6-28.1 c-0.13-0.82,0.44-2.34,0.44-2.34"/><path class="herost23" d="M531.5,621c0,0-20.49-30.17-25.14-43.47c-4.65-13.3-3.02-25.66-3.02-25.66l0.71-3.97"/><path class="herost23" d="M529.36,603.15c0,0-12.79-24.8-15.09-33.8c-2.29-9-0.02-29.97-0.02-29.97"/><path class="herost23" d="M529.03,581.78c0,0-4.43-10.17-7.36-25.42c-2.93-15.25,0.02-22.45,0.02-22.45"/><path class="herost23" d="M531.57,639.61c0,0,8.49-6,14.47-9.43c5.98-3.43,17.13-10.1,18.81-20.02l0.46-6.39"/><path class="herost23" d="M531.57,631.46c0,0,11.44-5.64,16.43-12.19c4.98-6.56,10.16-12.56,14.32-22.73 c4.16-10.17,5.61-13.89,5.61-13.89s0.8-3.55,0.27-5.96"/><path class="herost23" d="M531.55,623.51c0,0,16.8-18.82,20.56-27.28c3.76-8.46,7.36-26.69,7.36-26.69s2.01-7.72-1.36-12.38"/><path class="herost23" d="M530.53,608.31c0,0,10.25-11.46,13.94-25.52s5.48-25.17,5.48-25.17s-0.32-12.35-7.22-17.56 c-0.24-0.18-3.5-4.64-3.76-4.8"/><path class="herost23" d="M529.33,580.11c0,0,12.53-14.41,10.92-26.13c0,0-1.83-15.94-5.51-20.43c-3.83-4.68-6.46-9.5-6.46-9.5"/></g><g><path class="herost23" d="M620.75,456.81c0,0-1.25-10.19-2.19-15.96c-0.94-5.77-0.45-7.15-0.45-7.15s-11.5-10.52-26.33-15.42 c-14.83-4.9-32.93-10.44-35.54-42.07c-2.61-31.63,10.47-28.03,10.89-39.41c0.42-11.38-2.52-16.12-2.52-16.12s0.03,5.5,12.64,9.48 c12.61,3.97,20.79,6.1,25.14,8.72c4.35,2.62,4.07,3.7,7.53,5.05c3.46,1.35,12.79,4.68,14.51,7.99c1.71,3.31,0,3.26,4.34,6.88 s7.82,10.48,8.72,15.01c0.9,4.52-1.25,7.09-0.01,10.77c1.24,3.68,5.39,3.35,6.74,8.51c1.35,5.16-4.76,21.78-11.95,29.92 c-7.19,8.14-12.05,11.16-10.68,18.57c1.37,7.41,2.07,15.52,2.07,15.52L620.75,456.81z"/><path class="herost23" d="M566.05,324.57c4.03,4.58,12.3,21.26,12.3,21.26c1.29,2.66,10.98,20.75,13.89,28.09 c2.91,7.35,8.03,20.11,13.44,27.15s13.97,27.8,14.96,29.93c0,0-1.01,3.63-0.73,5.63"/><path class="herost23" d="M616.94,422.52c0,0-12.83-7.64-21.76-12.18c-8.93-4.54-11.23-2.71-18.68-7.64 c-6.39-4.23-15.91-18.17-18.68-22.33c-0.46-0.69-0.58-2.31-0.58-2.31"/><path class="herost23" d="M612.5,413.04c0,0-31.25-18.8-41.04-28.94c-9.79-10.13-13.5-22.03-13.5-22.03l-1.02-3.9"/><path class="herost23" d="M603.07,397.73c0,0-22-17.16-27.86-24.37c-5.85-7.21-12.58-27.21-12.58-27.21"/><path class="herost23" d="M593.82,378.47c0,0-8.28-7.38-17.34-19.99s-9.39-20.39-9.39-20.39"/><path class="herost23" d="M620.36,429.92c0,0,5.19-9,9.19-14.63s11.33-16.35,8.69-26.06l-2.26-5.99"/><path class="herost23" d="M616.94,422.52c0,0,8.03-9.91,9.81-17.95c1.78-8.04,3.96-15.66,3.48-26.63c-0.48-10.98-0.73-14.96-0.73-14.96 s-0.77-3.56-2.25-5.52"/><path class="herost23" d="M613.6,415.3c0,0,7.37-24.13,7.24-33.38c-0.13-9.25-4.5-27.32-4.5-27.32s-1.41-7.86-6.42-10.67"/><path class="herost23" d="M606.3,401.92c0,0,4.51-14.7,1.96-29.01c-2.54-14.31-5.57-25.15-5.57-25.15s-5.47-11.08-13.91-12.92 c-0.29-0.06-5.12-2.74-5.42-2.78"/><path class="herost23" d="M593.4,376.82c0,0,5.34-18.34-1.03-28.31c0,0-8.34-13.71-13.56-16.24c-5.44-2.64-9.84-5.92-9.84-5.92"/></g><g><path class="herost23" d="M651.34,267.18c0,0-6.89-7.62-10.97-11.8s-4.48-5.58-4.48-5.58s-15.46-1.99-30.41,2.53 c-14.95,4.53-32.94,10.4-53.27-13.97c-20.33-24.37-7.56-28.95-13.76-38.5c-6.2-9.55-11.33-11.74-11.33-11.74s3.19,4.49,15.79,0.48 c12.6-4.01,20.51-6.97,25.58-7.33c5.07-0.36,5.46,0.68,9.06-0.2c3.61-0.88,13.16-3.54,16.46-1.81c3.3,1.72,1.87,2.66,7.51,3.14 c5.63,0.47,12.42,4.08,15.76,7.26c3.34,3.18,3.05,6.52,6.19,8.82c3.14,2.3,6.34-0.36,10.41,3.09c4.07,3.45,8.63,20.55,7.43,31.35 c-1.2,10.79-3.44,16.06,1.94,21.33c5.38,5.27,10.62,11.5,10.62,11.5L651.34,267.18z"/><path class="herost23" d="M530.53,190.47c5.92,1.43,22.29,10.31,22.29,10.31c2.58,1.43,20.91,10.66,27.52,14.99 s18.13,11.83,26.61,14.48c8.48,2.65,27.42,14.7,29.45,15.87c0,0,1.26,3.56,2.64,5.02"/><path class="herost23" d="M628.5,241.31c0,0-14.89,1.13-24.81,2.55c-9.92,1.42-10.75,4.25-19.67,4.5c-7.66,0.21-23.46-5.71-28.13-7.52 c-0.77-0.3-1.8-1.56-1.8-1.56"/><path class="herost23" d="M619.41,236.12c0,0-36.38,2.59-50.21-0.06c-13.84-2.65-23.71-10.26-23.71-10.26l-3.08-2.61"/><path class="herost23" d="M602.89,229.02c0,0-27.87-1.38-36.81-3.91c-8.94-2.53-25.94-15.02-25.94-15.02"/><path class="herost23" d="M584.25,218.58c0,0-11.02-1.27-25.68-6.38s-19.41-11.28-19.41-11.28"/><path class="herost23" d="M635.55,245.4c0,0-0.93-10.35-0.9-17.25c0.03-6.9-0.14-19.89-7.88-26.31l-5.3-3.6"/><path class="herost23" d="M628.5,241.31c0,0,0.87-12.73-2.31-20.33s-5.77-15.09-12.48-23.79s-9.2-11.82-9.2-11.82s-2.67-2.47-5.02-3.22 "/><path class="herost23" d="M621.61,237.33c0,0-7.85-23.98-13.28-31.47s-19.4-19.76-19.4-19.76s-5.67-5.62-11.39-5.03"/><path class="herost23" d="M607.95,230.59c0,0-4.77-14.61-15.08-24.86c-10.31-10.25-19.03-17.37-19.03-17.37s-10.85-5.92-18.81-2.57 c-0.27,0.12-5.77,0.7-6.03,0.84"/><path class="herost23" d="M582.95,217.48c0,0-6.18-18.07-17.13-22.56c0,0-14.71-6.41-20.44-5.48c-5.97,0.97-11.46,0.82-11.46,0.82"/></g><g><path class="herost23" d="M512.39,2.7c0,0-8.49,5.77-13.19,9.25c-4.7,3.47-6.15,3.67-6.15,3.67s-4.1,15.04-1.66,30.46 s5.79,34.06-21.14,50.85s-29.71,3.52-40.02,8.35c-10.31,4.84-13.19,9.61-13.19,9.61s4.88-2.54,2.64-15.57s-4.09-21.27-3.75-26.34 s1.42-5.31,1.04-9c-0.38-3.69-1.7-13.52,0.46-16.55c2.16-3.04,2.89-1.49,4.14-7.01c1.24-5.51,5.74-11.75,9.36-14.62 c3.61-2.87,6.88-2.13,9.58-4.92c2.71-2.79,0.51-6.33,4.48-9.89c3.97-3.56,21.54-5.73,32.07-3.06c10.53,2.67,15.44,5.61,21.4,1 C504.42,4.34,511.31,0,511.31,0L512.39,2.7z"/><path class="herost23" d="M419.84,111.85c2.23-5.67,13.27-20.67,13.27-20.67c1.77-2.36,13.43-19.25,18.63-25.2 c5.2-5.95,14.2-16.34,17.99-24.38c3.79-8.04,18.32-25.15,19.76-27c0,0,3.69-0.76,5.34-1.93"/><path class="herost23" d="M483.64,21.78c0,0-0.93,14.9-0.88,24.92s2.73,11.23,1.76,20.1c-0.84,7.61-8.87,22.46-11.31,26.83 c-0.4,0.72-1.79,1.57-1.79,1.57"/><path class="herost23" d="M477.24,30.06c0,0-2.42,36.39-6.95,49.73c-4.53,13.34-13.41,22.08-13.41,22.08l-3,2.69"/><path class="herost23" d="M467.95,45.45c0,0-5.19,27.42-8.92,35.92c-3.73,8.51-18.44,23.63-18.44,23.63"/><path class="herost23" d="M455.05,62.49c0,0-2.77,10.74-9.85,24.56s-13.83,17.68-13.83,17.68"/><path class="herost23" d="M488.65,15.35c0,0-10.38-0.5-17.21-1.48s-19.72-2.59-27.15,4.19L440,22.82"/><path class="herost23" d="M483.64,21.78c0,0-12.49-2.6-20.45-0.5s-15.73,3.65-25.27,9.1s-12.97,7.49-12.97,7.49s-2.81,2.31-3.88,4.53"/><path class="herost23" d="M478.75,28.06c0,0-24.83,4.48-33,8.84s-22.24,16.5-22.24,16.5s-6.34,4.85-6.55,10.59"/><path class="herost23" d="M470.2,40.66c0,0-15.13,2.72-26.69,11.53c-11.56,8.81-19.82,16.46-19.82,16.46s-7.35,9.93-5.12,18.28 c0.08,0.29-0.09,5.81,0.01,6.09"/><path class="herost23" d="M453.78,63.62c0,0-18.75,3.64-24.7,13.87c0,0-8.37,13.69-8.24,19.49c0.14,6.04-0.75,11.46-0.75,11.46"/></g></svg>