<svg id="Layer_1" xmlns="http://www.w3.org/2000/svg" xmlns:xlink="http://www.w3.org/1999/xlink" x="0px" y="0px" viewBox="0 0 571.22 644.19" xml:space="preserve" class="css-509z9a"><style type="text/css">
	.cist0{fill:#FFFFFF;}
	.cist1{fill:#FDEAE4;}
	.cist2{fill:#EBC9B1;}
	.cist3{fill:#88BADE;}
	.cist4{fill:#F2F2F2;}
	.cist5{fill:#6BB39A;}
	.cist6{fill:#51B79C;}
	.cist7{fill:none;stroke:#FFFFFF;stroke-miterlimit:10;}
	.cist8{fill:#DEABB0;}
	.cist9{fill:none;stroke:#DEABB0;stroke-width:2;stroke-miterlimit:10;}
	.cist10{clip-path:url(#SVGID_2_);fill:#007666;}
	.cist11{clip-path:url(#SVGID_2_);}
	.cist12{fill:#034C42;}
	.cist13{fill:#248E7A;}
	.cist14{fill:#007666;}
	.cist15{fill:#EECFCE;}
	.cist16{fill:#F8E2DD;}
	.cist17{fill:#F3D9D5;}
	.cist18{fill:#FDEBE5;}
	.cist19{fill:none;}
	.cist20{fill:#E5E5E6;}
	.cist21{fill:#F5F6F7;}
	.cist22{fill:#EDECED;}
	.cist23{fill:#FBFBFB;}
	.cist24{fill:none;stroke:#248E7A;stroke-width:2;stroke-miterlimit:10;}
	.cist25{fill:#D17657;}
	.cist26{fill:#EB9F6E;}
	.cist27{fill:none;stroke:#FFFFFF;stroke-width:7;stroke-miterlimit:10;}
	.cist28{fill:#EBC9B2;}
	.cist29{fill:none;stroke:#FDEBE5;stroke-width:5;stroke-miterlimit:10;}
	.cist30{fill:none;stroke:#EB9F6E;stroke-width:4;stroke-miterlimit:10;}
	.cist31{fill:#6AB29A;}
	.cist32{fill:#D28E77;}
	.cist33{fill:#3C66AF;}
	.cist34{clip-path:url(#SVGID_4_);}
	.cist35{fill:#DFE4EB;}
	.cist36{fill:#FFE69F;}
	.cist37{clip-path:url(#SVGID_6_);fill:#315CA7;}
	.cist38{clip-path:url(#SVGID_6_);}
	.cist39{clip-path:url(#SVGID_6_);fill:#248E7A;}
	.cist40{clip-path:url(#SVGID_6_);fill:#EB9F6E;}
	.cist41{clip-path:url(#SVGID_6_);fill:#EBC9B2;}
	.cist42{fill:#020203;}
	.cist43{fill:none;stroke:#020203;stroke-width:0.5;stroke-miterlimit:10;}
	.cist44{fill:none;stroke:#020203;stroke-miterlimit:10;}
	.cist45{fill:#FFFFFF;stroke:#020203;stroke-width:0.75;stroke-miterlimit:10;}
	.cist46{fill:#FFFFFF;stroke:#020203;stroke-miterlimit:10;}
	.cist47{fill:#020203;stroke:#FFFFFF;stroke-miterlimit:10;}
	.cist48{fill:none;stroke:#C1BFB2;stroke-miterlimit:10;}
	.cist49{fill:none;stroke:#FFFFFF;stroke-width:0.5;stroke-miterlimit:10;}
	.cist50{fill:none;stroke:#B8B7B7;stroke-miterlimit:10;}
	.cist51{clip-path:url(#SVGID_8_);fill:#315CA7;}
	.cist52{clip-path:url(#SVGID_8_);}
	.cist53{clip-path:url(#SVGID_8_);fill:#248D7B;}
	.cist54{clip-path:url(#SVGID_8_);fill:#EC9F6F;}
	.cist55{fill:none;stroke:#248D7B;stroke-width:2;stroke-miterlimit:10;}
	.cist56{fill:none;stroke:#FDEAE4;stroke-width:5;stroke-miterlimit:10;}
	.cist57{clip-path:url(#SVGID_8_);fill:#EBC9B1;}
	.cist58{fill:none;stroke:#020203;stroke-width:2;stroke-miterlimit:10;}
	.cist59{clip-path:url(#SVGID_10_);fill:#315CA7;}
	.cist60{clip-path:url(#SVGID_10_);}
	.cist61{clip-path:url(#SVGID_10_);fill:#248D7B;}
	.cist62{clip-path:url(#SVGID_10_);fill:#EC9F6F;}
	.cist63{clip-path:url(#SVGID_10_);fill:#EBC9B1;}
	.cist64{fill:none;stroke:#020203;stroke-width:5;stroke-miterlimit:10;}
</style><path class="cist5" d="M255.11,470.17c-0.59-34.9-55.72-33.79-75.96-70.05C124.78,302.69,366.99,15.62,475.82,31.29 c110.81,15.95,156.41,356.27-38.55,516.38C299.38,660.9,75.9,655.48,69.8,626.44C63.94,598.52,256.22,535.52,255.11,470.17z"/><path class="cist42" d="M543.81,294.67c0.01,54.46-44.12,98.61-98.58,98.63c0,0-0.01,0-0.01,0H152.03c-4.98,0-9.95-0.38-14.87-1.13 h-0.04c-75.34-3.85-135.04-65-137.08-140.41v-0.25C0,250.26,0,249.03,0,247.79c0-60,37.04-113.76,93.1-135.14 C93.74,49.8,145.21-0.63,208.06,0.01c43.96,0.45,83.72,26.17,102.16,66.07c55.33-29.91,124.43-9.29,154.34,46.04 c14.58,26.97,17.66,58.69,8.56,87.96C515.04,212.47,543.81,250.96,543.81,294.67z"/><path class="cist0" d="M160.02,206.52c-3.1-1.06-6.26-1.93-9.46-2.58c-3.3-0.69-6.67-1.05-10.04-1.05c-12.49,0-21.8,2.94-27.92,8.82 c-6.12,5.87-9.18,15.2-9.18,27.98c-0.09,5.14,0.82,10.26,2.67,15.06c1.68,4.26,4.29,8.09,7.65,11.21c3.46,3.16,7.52,5.57,11.95,7.1 c4.95,1.71,10.16,2.55,15.4,2.49c5.97,0,11.89-1.05,17.49-3.11c5.22-1.81,10.05-4.58,14.24-8.17l6.7,11.09 c-2.11,1.76-4.35,3.36-6.7,4.78c-2.96,1.8-6.06,3.37-9.27,4.69c-3.77,1.54-7.68,2.73-11.67,3.54c-4.56,0.92-9.21,1.37-13.86,1.33 c-7.45,0.14-14.86-1.06-21.89-3.53c-5.96-2.13-11.36-5.6-15.78-10.13c-4.29-4.54-7.55-9.95-9.56-15.87 c-2.24-6.62-3.34-13.57-3.25-20.56c-0.12-7.28,1.01-14.52,3.34-21.41c2-5.88,5.31-11.24,9.66-15.68c4.34-4.29,9.56-7.59,15.29-9.66 c6.44-2.31,13.24-3.44,20.07-3.34c7.76-0.19,15.51,0.64,23.04,2.49c5.17,1.37,10.19,3.23,15.01,5.54l-0.19,0.57v26.58h-13.77V206.52 z"/><path class="cist0" d="M201.7,239.6c0-15.42,4.01-27.63,12.04-36.62c8.04-8.99,19.51-13.48,34.42-13.48 c7.12-0.18,14.19,1.16,20.75,3.91c5.54,2.42,10.47,6.05,14.44,10.62c3.91,4.64,6.81,10.04,8.5,15.87 c1.89,6.39,2.82,13.03,2.78,19.69c0.09,7.03-0.94,14.04-3.06,20.74c-1.84,5.84-4.9,11.22-8.99,15.78 c-4.05,4.41-9.05,7.84-14.62,10.04c-6.31,2.44-13.03,3.64-19.79,3.53c-7.08,0.16-14.12-1.17-20.65-3.91 c-5.58-2.41-10.54-6.03-14.53-10.62c-3.92-4.63-6.82-10.04-8.5-15.87C202.59,252.9,201.65,246.26,201.7,239.6z M217.57,239.6 c0,4.51,0.55,9,1.62,13.39c1.01,4.3,2.78,8.38,5.24,12.04c2.42,3.58,5.65,6.53,9.44,8.61c4.37,2.29,9.27,3.41,14.2,3.25 c10.17,0,17.82-3.15,22.97-9.46c5.14-6.31,7.72-15.59,7.72-27.82c0-4.54-0.54-9.07-1.62-13.48c-1.03-4.28-2.84-8.33-5.34-11.95 c-2.47-3.56-5.73-6.51-9.53-8.61c-4.38-2.28-9.27-3.4-14.2-3.25c-10.17,0-17.79,3.12-22.87,9.37 C220.11,217.93,217.57,227.23,217.57,239.6L217.57,239.6z"/><path class="cist0" d="M401.33,187.4c0,11.73-5.56,24.8-16.69,39.2c-13.89,17.23-29.51,32.99-46.61,47.04h67.5v13.77h-85.09v-13.77 c2.42-2.29,5.73-5.29,9.95-8.99c4.2-3.69,8.73-7.8,13.57-12.33c4.85-4.52,9.79-9.4,14.82-14.62c4.89-5.06,9.46-10.43,13.67-16.07 c3.87-5.13,7.2-10.64,9.94-16.44c2.43-4.95,3.73-10.36,3.83-15.87c0.37-6.57-1.79-13.04-6.03-18.07c-4.79-4.7-11.38-7.11-18.07-6.6 c-5.88-0.14-11.75,0.64-17.4,2.29c-4.62,1.48-8.95,3.75-12.81,6.7l-6.5-10.52c5.56-3.99,11.75-7.03,18.31-8.99 c6.88-1.97,14.02-2.94,21.18-2.87c12.01,0,21.08,3.25,27.22,9.75C398.54,168.25,401.85,177.73,401.33,187.4z"/></svg>