<svg xmlns="http://www.w3.org/2000/svg" viewBox="0 0 1080 1080" class="css-p2c4z4"><style>.report1{fill:none}.report3{fill:#070707}.report18{fill:#fff}.report37{fill:#f4ffff}</style><g id="Layer_1"><path d="M1069.02 631.74c-50.67 292.16-328.59 487.95-620.77 437.27C269.4 1038 126.68 921.83 54.51 769.36 19.27 694.95.84 611.9 3.21 525.89c.03-1.26.06-2.51.11-3.77.85-24.45 3.37-49.1 7.67-73.87C61.66 156.08 339.58-39.69 631.74 10.99c292.18 50.67 487.95 328.59 437.28 620.75z" fill="#fce8e1"/><path class="report1" d="M1069.01 631.74c-50.67 292.16-328.59 487.94-620.77 437.27-120.93-20.97-225.33-80.88-302.58-164.62-37.01-40.1-67.79-85.66-91.15-135.04-12.95-27.39-23.65-55.93-31.86-85.37-.36-1.21-.69-2.43-1.01-3.65A531.613 531.613 0 013.21 525.88c.03-1.26.06-2.51.1-3.77.85-24.45 3.37-49.1 7.67-73.87C61.65 156.08 339.57-39.69 631.74 10.99c292.18 50.67 487.94 328.59 437.27 620.75z"/><path d="M798.21 255.7l-134.7 633.02s-5.1 53.69-65.77 43.89c-60.68-9.81 139.31-741.9 139.31-741.9s71.86 2.57 61.16 64.99z" fill="#242626"/><path class="report3" d="M789.13 247.35s8.35-47.3-37.8-54.6c-283.45-44.82-305.53-48.91-305.53-48.91s-39.49-11.75-50.08 44.94c-8.61 46.08-128.35 609.99-128.35 609.99s-8.66 40.09 30.44 49.93c35.86 9.03 299.92 83.89 299.92 83.89s47.97 11.48 57.42-43.57c13.75-79.99 133.98-641.67 133.98-641.67z"/><path d="M639.86 892.01l128.8-650.06s5.96-34.88-33.69-41.84c-40.36-7.09-297.33-52.17-297.33-52.17s-28.86 1.41-35.76 45.44c-6.05 38.61-122.07 601.5-122.07 601.5s-6.35 35.9 24.29 45.65c24.69 7.86 291.31 84.05 291.31 84.05s37.1 8.75 44.45-32.57z" fill="none" stroke="#242626" stroke-miterlimit="10"/><path d="M630.14 878.79l127.12-635.03s4.36-24.37-25.49-28.76c-38.99-5.74-286.51-50.94-286.51-50.94s-24.95-5.13-33.06 37c-7.05 36.62-122.54 591.47-122.54 591.47s-5.7 28.93 17.2 35.09c23.88 6.41 290.5 80.59 290.5 80.59s26.77 11.27 32.78-29.42z" fill="#f8f0eb"/><path class="report3" d="M685.01 241.21l-208.69-38.25s-15.6-1.91-12.35-15.91c.7-3 2.78-12.08 2.78-14.13 0-6.81-7.56-6.31-7.56-6.31l255.57 45.46s-5.89-1.05-8.69 9.93c-1.68 6.6-7.56 21.66-21.06 19.21z"/><path class="report37" d="M483.52 291.2l104.89 21.62c1.95-6.93 4.18-14.23 6.72-21.78l-102.09-22.12a310.96 310.96 0 00-9.52 22.28zM465.26 334.8l104.89 21.62c1.95-6.93 4.18-14.23 6.72-21.78l-102.09-22.12a300.31 300.31 0 00-9.52 22.28zM442.23 376.75l104.89 21.62c1.95-6.93 4.18-14.23 6.72-21.78l-102.09-22.12a306.48 306.48 0 00-9.52 22.28zM447.05 424.78l104.89 21.62c1.95-6.93 4.18-14.23 6.72-21.78L456.57 402.5a306.48 306.48 0 00-9.52 22.28zM442.23 470.24l104.89 21.62c1.95-6.93 4.18-14.23 6.72-21.78l-102.09-22.12a306.48 306.48 0 00-9.52 22.28zM446.99 518.27l104.89 21.62c1.95-6.93 4.18-14.23 6.72-21.78l-102.09-22.12a310.96 310.96 0 00-9.52 22.28zM437.98 563.65l104.89 21.62c1.95-6.93 4.18-14.23 6.72-21.78L447.5 541.36c-3.69 7.78-6.83 15.24-9.52 22.29zM393.14 553.17l3.95.8c3.53-6.75 7.02-14.07 10.35-22.05l-2.16-.44c-4.48 7.37-8.52 14.63-12.14 21.69zM419.72 605.94l104.89 21.62c1.95-6.93 4.18-14.23 6.72-21.78l-102.09-22.12c-3.7 7.77-6.84 15.23-9.52 22.28zM391.16 646.92l104.89 21.62c1.95-6.93 4.18-14.23 6.72-21.78l-102.09-22.12c-3.69 7.78-6.83 15.23-9.52 22.28zM546.37 679.4l1.68.37c2.91-7.02 6.15-14.23 9.71-21.57l-3.51-.76a210.35 210.35 0 00-5.3 14.43c-.77 2.32-1.64 4.87-2.58 7.53zM383.05 691.62l104.89 21.62c1.95-6.93 4.18-14.23 6.72-21.78l-102.09-22.12a310.96 310.96 0 00-9.52 22.28zM369.99 734.31l104.89 21.62c1.95-6.93 4.18-14.23 6.72-21.78l-102.09-22.12a306.48 306.48 0 00-9.52 22.28zM348.22 777.31l104.89 21.62c1.95-6.93 4.18-14.23 6.72-21.78l-102.09-22.12a306.48 306.48 0 00-9.52 22.28z"/><path d="M520.43 807.43l15.42 82.83 72.81 20.88s-29.65-79.78-19.64-151.51c1.45-10.37 3.12-19.6 5-27.97v-.02c3-13.38 6.61-24.64 10.83-35.11 11.43-28.41 31.41-56.79 52.82-99.08 34.99-69.16 26.73-130.68 24.19-153.72-2.57-23.06-4.27-77.69 26.46-146 23.57-52.34 43.73-72.88 43.73-72.88s-5.4-7.18-15.85-9.01S529.02 405.3 529.02 405.3l-8.59 402.13z" opacity="0.22"/><path d="M304.46 821.96c-53.2-100.31-13.87-152.19.54-196.31 16.36-50.07 47.05-68.85 67.24-130.63 21.32-65.23-3.7-91.17 5.76-161.37 5.24-38.87 23.36-103.49 70.19-168.36l287.99 50.56c-46.83 64.88-65.4 139.41-70.64 178.28-9.47 70.2 15.55 96.14-5.76 161.37-20.19 61.78-54.18 82.37-70.54 132.44-14.42 44.12-48.6 118.6 4.6 218.9l-289.38-84.88z" fill="#f2f2f2"/><path class="report18" d="M481.97 269.48l122.47 25.96c.62-9.77 12.32-38.51 15.88-45.85l-117.95-25.73c-6.59 5.45-18.55 37.11-20.4 45.62zM495.25 340.78l127.88 26.94c1.11-6.69 2.59-14.31 4.5-22.71l-127.88-27.3c-1.55 6.94-3.1 14.65-4.5 23.07zM425.77 326.16l37.44 7.89c1.33-8.44 2.84-16.2 4.36-23.2l-36.27-7.75c-2.47 8.74-4.24 16.52-5.53 23.06zM490.31 387.24l127.37 27.94c.29-7.31.91-15.07 1.91-23.33l-127.44-28.31c-.27 2.39-.51 4.83-.73 7.29-.51 5.75-.89 11.22-1.11 16.41zM421.74 372.2l36.87 8.09c.22-5.94.62-12.23 1.22-18.94.16-1.64.31-3.26.47-4.87v-.02l-37.73-8.37c-.87 8.71-1.03 16.64-.83 24.11zM617.64 437.53l-127.68-28.4c.15 8.91.62 16.93 1.2 24.37l128.21 28.14c-.76-7.38-1.4-15.4-1.73-24.11zM423.36 394.33c.27 2.66.58 5.32.86 7.98.6 5.45 1.22 11.06 1.73 16.88l33.83 7.42c-.62-7.47-1.15-15.53-1.37-24.48l-35.05-7.8zM493.28 456.67c.75 8.42 1.26 16.35 1.09 24.39l128.21 28.42c.47-7.98.09-15.62-.69-23.95l-128.61-28.86zM425.6 465.82l37.09 8.22c.35-8.11-.09-16.04-.8-24.42v-.02l-34.87-7.82c-.01 7.58-.4 15.56-1.42 24.04zM487.65 518.62c-.97 2.9-1.97 5.56-2.97 7.98l126.57 28.14c1.71-4.19 3.32-8.66 4.92-13.49.97-3.01 1.84-5.87 2.55-8.62l-127.02-28.6c-.99 4.62-2.32 9.47-4.05 14.59zM415.23 511.15l36.91 8.2c1.33-3.04 2.64-6.38 3.92-10.21 1.44-4.3 2.61-8.42 3.55-12.36l-37.91-8.53c-1.51 6.67-3.43 13.69-5.85 21.03-.2.63-.4 1.25-.62 1.87zM474.12 545.58c-4.5 6.25-9.59 12.16-15.82 20.74l132.6 26.74c4.37-6.85 8.53-13.65 12.43-21.07l-129.21-26.41zM397.08 553.98l27.69 5.58c6.18-8.82 11.32-14.89 15.8-20.85l-33.14-6.78a272.07 272.07 0 01-10.35 22.05zM438.56 598.05c-2.04 3.74-3.97 7.44-5.83 11.12l130.52 28.76c3.97-7.58 8.09-14.51 12.16-21.05l-130.96-29.27c-1.88 3.19-3.85 6.67-5.89 10.44zM371.76 595.74l28.25 6.23c2.17-4.41 4.5-8.88 6.96-13.4 1.6-2.95 3.15-5.69 4.65-8.29l-26.17-5.85c-4.08 6.65-8.09 12.72-11.81 18.41-.64 1-1.26 1.93-1.88 2.9zM423.47 628.91c-3.35 7.62-6.29 15.04-8.91 22.16l131.8 28.34c.95-2.66 1.82-5.21 2.57-7.53 1.66-5.05 3.43-9.84 5.3-14.42l-130.76-28.55zM349.58 637.08l32.48 6.98c2.57-7.13 5.47-14.6 8.8-22.29l-31.11-6.78c-3.92 6.94-7.31 14.03-10.17 22.09z"/><path class="report1" d="M369.19 687.09l32.21 6.87c1.71-6.91 3.79-14.51 6.31-22.71l-32.35-7c-2.49 8.28-4.53 15.95-6.17 22.84z"/><path class="report18" d="M407.72 671.25c-2.53 8.2-4.61 15.8-6.31 22.71l130.85 27.92c2.28-7.93 4.67-15.35 7-22.18l-131.54-28.45zM333.41 679.44l35.78 7.64a398.63 398.63 0 016.18-22.84l-33.06-7.16c-1.09 2.68-2.19 5.41-3.28 8.13-1.92 4.75-3.85 9.49-5.62 14.23zM325.47 747.85c1.47 8.03 3.85 16.61 7.37 25.91l88.99 19.32c-1.81-8.2-2.35-18.33-2.06-24.2l-94.3-21.03z"/><path class="report3" d="M685.01 241.21l-208.69-38.25s-15.6-1.91-12.35-15.91c.7-3 2.78-12.08 2.78-14.13 0-6.81-7.56-6.31-7.56-6.31l255.57 45.46s-5.89-1.05-8.69 9.93c-1.68 6.6-7.56 21.66-21.06 19.21z"/></g></svg>