<svg id="Layer_1" enable-background="new 0 0 512 512" height="512" viewBox="0 0 512 512" width="512" xmlns="http://www.w3.org/2000/svg"><g><path d="m335.321 318.27c-17.961-1.809-21.894-10.27-47.33-10.27-29.397 0-30.818 12-64 12-25.601 0-32.037-7.217-43.99-9.01-5.968-.905-8.799-7.852-5.23-12.66l26.96-36.48c4.09-5.56 6.26-12.14 6.26-19.03v-66.82c0-4.42 3.58-8 8-8h80c4.42 0 8 3.58 8 8v66.82c0 6.89 2.17 13.47 6.27 19.03l32.29 43.71c4.122 5.54-.325 13.411-7.23 12.71z" fill="#edebfd"/><path d="m335.321 318.27c-7.188-.724-12.431-2.56-19.2-5.19-7.616-10.297 8.521 11.561-37.86-51.23-4.1-5.56-6.27-12.14-6.27-19.03v-66.82c0-4.42-3.58-8-8-8h32c4.42 0 8 3.58 8 8v66.82c0 6.89 2.17 13.47 6.27 19.03l32.29 43.71c4.122 5.54-.325 13.411-7.23 12.71z" fill="#d2d2fc"/><path d="m263.991 168v143.61c-5.418 1.837-9.661 3.79-16 5.51v-149.12z" fill="#aa7569"/><path d="m351.991 0h-36c-37.495 0-68 30.505-68 68v20c0 4.418 3.582 8 8 8h36c37.495 0 68-30.505 68-68v-20c0-4.418-3.582-8-8-8z" fill="#79cb9c"/><path d="m359.991 8v20c0 37.5-30.5 68-68 68h-32c37.5 0 68-30.5 68-68v-20c0-4.42-3.58-8-8-8h32c4.42 0 8 3.58 8 8z" fill="#63ac7d"/><path d="m195.991 0h-36c-4.418 0-8 3.582-8 8v20c0 37.495 30.505 68 68 68h36c4.418 0 8-3.582 8-8v-20c0-37.495-30.505-68-68-68z" fill="#79cb9c"/><path d="m263.991 68v20c0 4.42-3.58 8-8 8h-32c4.42 0 8-3.58 8-8v-20c0-37.5-30.5-68-68-68h32c37.5 0 68 30.5 68 68z" fill="#63ac7d"/><path d="m310.136 42.878c-2.828-3.394-7.874-3.852-11.267-1.024l-34.878 29.066v-14.92c0-4.418-3.582-8-8-8s-8 3.582-8 8v14.92l-34.879-29.066c-3.393-2.828-8.438-2.371-11.267 1.024s-2.37 8.439 1.024 11.268l45.121 37.601v36.253c0 4.418 3.582 8 8 8s8-3.582 8-8v-36.253l45.121-37.601c3.396-2.829 3.855-7.873 1.025-11.268z" fill="#aa7569"/><path d="m301.991 120h-92c-9.925 0-18 8.075-18 18v28c0 9.925 8.075 18 18 18h92c9.925 0 18-8.075 18-18v-28c0-9.925-8.075-18-18-18z" fill="#edebfd"/><path d="m319.991 138v28c0 9.93-8.08 18-18 18h-32c9.92 0 18-8.07 18-18v-28c0-9.93-8.08-18-18-18h32c9.92 0 18 8.07 18 18z" fill="#d2d2fc"/><path d="m428.995 422.495-86.44-116.94c-1.342-1.814-3.387-2.978-5.631-3.204-14.254-1.437-20.83-10.351-48.933-10.351-33.385 0-34.292 12-64 12-23.158 0-26.641-6.572-41.595-8.83-2.938-.443-5.867.771-7.629 3.155l-91.772 124.16c-27.078 36.511-1.225 89.515 45.137 89.515h255.718c46.291 0 72.241-52.903 45.145-89.505z" fill="#79cb9c"/><path d="m383.851 512h-32c46.229 0 72.288-52.828 45.14-89.51-65.885-89.132-76.503-103.479-95.91-129.74 17.52 2.183 24.381 8.442 35.84 9.6 2.25.23 4.29 1.39 5.63 3.2l86.44 116.94c27.18 36.726 1.045 89.51-45.14 89.51z" fill="#63ac7d"/><circle cx="159.991" cy="448" fill="#edebfd" r="24"/><path d="m183.991 448c0 18.576-20.252 29.96-36 20.77 15.991-9.255 15.98-32.291 0-41.54 15.754-9.194 36 2.199 36 20.77z" fill="#d2d2fc"/><g fill="#edebfd"><circle cx="231.991" cy="392" r="24"/><circle cx="295.991" cy="432" r="24"/><path d="m223.991 464c-4.413 0-8-3.578-8-8 0-5.107 4.691-8.833 9.56-7.84 4.484.88 7.165 5.311 6.28 9.4-.741 3.789-4.086 6.44-7.84 6.44z"/><path d="m295.991 375.993c-4.409 0-7.993-3.575-7.993-7.993 0-5.103 4.687-8.825 9.551-7.833 4.51.886 7.151 5.337 6.275 9.392-.741 3.791-4.09 6.434-7.833 6.434z"/><path d="m367.991 448c-6.455 0-10.172-7.223-6.65-12.44 2.74-4.161 8.734-4.797 12.311-1.22 5.019 5.169 1.422 13.66-5.661 13.66z"/><path d="m335.991 480c-6.455 0-10.172-7.223-6.65-12.44 2.74-4.161 8.734-4.797 12.311-1.22 4.99 4.991 1.495 13.66-5.661 13.66z"/><path d="m175.991 408c-6.455 0-10.172-7.223-6.65-12.44 2.74-4.161 8.734-4.797 12.311-1.22 5.091 5.244 1.302 13.66-5.661 13.66z"/></g><path d="m255.991 392c0 18.576-20.252 29.96-36 20.77 15.991-9.255 15.98-32.291 0-41.54 15.754-9.194 36 2.199 36 20.77z" fill="#d2d2fc"/><path d="m319.991 432c0 18.576-20.252 29.96-36 20.77 15.991-9.255 15.98-32.291 0-41.54 15.754-9.194 36 2.199 36 20.77z" fill="#d2d2fc"/></g></svg>