<svg id="Capa_1" enable-background="new 0 0 512 512" height="512" viewBox="0 0 512 512" width="512" xmlns="http://www.w3.org/2000/svg"><g><path d="m457.483 237.582-20.83-40.103c-1.814-3.489-5.384-5.656-9.315-5.656h-48.356c-5.79 0-10.5 4.71-10.5 10.5v40.099c0 5.79 4.71 10.5 10.5 10.5h69.185c7.883 0 12.942-8.356 9.316-15.34.001 0 .001 0 0 0zm-74.002.34v-31.099h41.123l16.153 31.099z"/><path d="m112.5 329.058c-15.314 0-27.772 12.459-27.772 27.772s12.458 27.772 27.772 27.772 27.772-12.459 27.772-27.772-12.458-27.772-27.772-27.772zm0 40.545c-7.043 0-12.772-5.729-12.772-12.772s5.729-12.772 12.772-12.772 12.772 5.729 12.772 12.772-5.729 12.772-12.772 12.772z"/><path d="m232.951 329.058c-15.314 0-27.772 12.459-27.772 27.772s12.458 27.772 27.772 27.772 27.772-12.459 27.772-27.772-12.458-27.772-27.772-27.772zm0 40.545c-7.043 0-12.772-5.729-12.772-12.772s5.729-12.772 12.772-12.772 12.772 5.729 12.772 12.772-5.729 12.772-12.772 12.772z"/><path d="m420.213 329.058c-15.313 0-27.772 12.459-27.772 27.772s12.459 27.772 27.772 27.772 27.772-12.459 27.772-27.772-12.459-27.772-27.772-27.772zm0 40.545c-7.043 0-12.772-5.729-12.772-12.772s5.729-12.772 12.772-12.772 12.772 5.729 12.772 12.772-5.729 12.772-12.772 12.772z"/><path d="m501.052 316.832c0-10.433 0-44.151 0-56.505 0-3.397-.827-6.785-2.393-9.796l-11.984-23.073c-1.908-3.677-6.438-5.107-10.112-3.198-3.676 1.909-5.108 6.437-3.198 10.112l11.984 23.075c.864 1.659.703 2.738.703 6.218h-25.552c-7.995 0-14.5 6.505-14.5 14.5v11c0 7.995 6.505 14.5 14.5 14.5h25.552v13.143h-27.021c-10.232-9.914-24.181-15.737-38.818-15.737s0 0 0 0c-.009 0-.018.001-.027.001-14.805.008-28.677 5.936-38.791 15.737h-21.965v-136.917h81.838c2.342 0 4.468 1.292 5.548 3.37l10.415 20.051c1.909 3.677 6.438 5.108 10.112 3.198 3.676-1.909 5.108-6.437 3.198-10.112l-10.415-20.052c-3.671-7.065-10.896-11.455-18.858-11.455h-81.838v-21.669h6.688c7.385 0 13.393-6.009 13.393-13.394v-17.025c0-7.385-6.008-13.393-13.393-13.393-32.858 0-240.753 0-274.338 0-5.461 0-10.326 3.266-12.395 8.319l-11.243 27.462c-1.569 3.834.266 8.213 4.1 9.782 3.836 1.57 8.213-.266 9.782-4.099l10.834-26.465h34.697l-81.53 202.398h-19.675v-39.694c1.589-4.297 9.612-23.807 42.416-103.871 1.57-3.833-.265-8.213-4.098-9.783-3.835-1.57-8.213.265-9.783 4.098-45.41 110.833-43.879 106.489-43.535 109.549v39.704c-6.265.044-11.35 5.15-11.35 11.425v24.664c0 6.303 5.127 11.43 11.429 11.43h45.831c3.676 27.209 27.039 48.259 55.24 48.259s51.564-21.049 55.241-48.259h9.97c3.677 27.209 27.039 48.259 55.241 48.259 28.201 0 51.563-21.049 55.24-48.259h76.781c3.677 27.209 27.039 48.259 55.24 48.259s51.564-21.049 55.241-48.259h25.118c6.302 0 11.429-5.127 11.429-11.43v-24.664c-.001-6.139-4.871-11.15-10.949-11.404zm-40.052-28.167v-10h25.052v10zm-90.626 43.143c-2.775 5.523-4.622 11.619-5.418 17.522h-76.749c-.777-5.761-2.598-11.911-5.418-17.522zm-192.679 17.522h-9.939c-.798-5.911-2.65-12.016-5.417-17.522h20.774c-2.796 5.562-4.629 11.681-5.418 17.522zm-82.898-45.362 76.357-189.557h32.502l-76.036 188.76c-10.872-3.069-22.272-2.746-32.823.797zm184.962-189.557-79.444 197.22c-.219.158-.429.329-.646.49-1.924 1.436-3.768 2.973-5.537 4.687h-28.405l81.529-202.396h32.503zm84.751 13.812h-12.58c-4.143 0-7.5 3.357-7.5 7.5v181.085h-72.66c-6.395-6.196-14.833-11.266-24.37-13.828l75.959-188.568h41.151zm-57.322-13.812-75.193 186.667c-3.988.068-8.288.637-11.852 1.477l75.788-188.144zm-76.103 0-81.043 201.19c-2.324-2.12-5.558-4.595-8.652-6.468l78.438-194.723h11.257zm-87.359 0h11.257l-81.529 202.397h-11.257zm-128.726 217.397h47.663c-2.788 5.548-4.624 11.644-5.417 17.522h-42.246zm97.5 65.781c-22.475 0-40.759-18.284-40.759-40.759 0-22.599 18.431-40.76 40.759-40.76 22.418 0 40.759 18.243 40.759 40.76.001 22.475-18.284 40.759-40.759 40.759zm120.451 0c-22.475 0-40.759-18.284-40.759-40.759 0-22.435 18.335-40.957 41.122-40.751 22.188.189 40.396 18.275 40.396 40.751 0 22.475-18.284 40.759-40.759 40.759zm187.261 0c-22.475 0-40.759-18.284-40.759-40.759 0-22.707 18.529-40.76 40.759-40.76.008 0 .016.001.024.001 22.243.013 40.735 18.086 40.735 40.759.001 22.475-18.284 40.759-40.759 40.759zm76.788-48.259h-21.531c-.801-5.938-2.652-12.018-5.418-17.522h26.949z"/></g></svg>