<svg height="512" viewBox="0 0 60 60" width="512" xmlns="http://www.w3.org/2000/svg"><g id="Page-1" fill="none" fill-rule="evenodd"><g id="027---Lorry-At-Landfill" fill-rule="nonzero"><path id="Shape" d="m17 42v10c-.0032948 1.1032019-.8967981 1.9967052-2 2h-12.49c-.33307584-.4288359-.51265674-.957015-.51-1.5 0-1.3807119 1.11928813-2.5 2.5-2.5.26616028.0009831.53011164.048359.78.14.5438427-1.2971837 1.81342635-2.1409442 3.22-2.14.32882865.0035287.65546493.0540395.97.15.685194-1.3174417 2.0450338-2.1456728 3.53-2.15 0-2.209139 1.790861-4 4-4z" fill="#60a917"/><path id="Shape" d="m59 28v4c0 .5522847-.4477153 1-1 1h-2.13c-.4601182-1.7604403-2.0504234-2.9885159-3.87-2.9885159s-3.4098818 1.2280756-3.87 2.9885159h-3.13v-18c0-.5522847.4477153-1 1-1h5c1.1032019.0032948 1.9967052.8967981 2 2v6c.0032948 1.1032019.8967981 1.9967052 2 2v2c.0032948 1.1032019.8967981 1.9967052 2 2z" fill="#f44335"/><path id="Shape" d="m57 28c-1.1032019-.0032948-1.9967052-.8967981-2-2v-2c-1.1032019-.0032948-1.9967052-.8967981-2-2v-6c-.0032948-1.1032019-.8967981-1.9967052-2-2h-3c1.1032019.0032948 1.9967052.8967981 2 2v6c.0032948 1.1032019.8967981 1.9967052 2 2v2c.0032948 1.1032019.8967981 1.9967052 2 2h2v4c-.0030757.2386157-.0930232.4679284-.253.645.047102.1161302.088157.2346223.123.355h2.13c.5522847 0 1-.4477153 1-1v-4z" fill="#c81e1e"/><path id="Shape" d="m56 34c0 2.209139-1.790861 4-4 4s-4-1.790861-4-4c-.0030533-.3377372.0406959-.6742693.13-1 .4601182-1.7604403 2.0504234-2.9885159 3.87-2.9885159s3.4098818 1.2280756 3.87 2.9885159c.0893041.3257307.1330533.6622628.13 1z" fill="#7f8e94"/><path id="Shape" d="m55.87 33c-.2809992-1.1195273-1.0354382-2.0612697-2.0666794-2.5797709-1.0312413-.5185012-2.2371146-.5623907-3.3033206-.1202291 1.1739865.4725074 2.0536612 1.4746685 2.37 2.7.0893041.3257307.1330533.6622628.13 1-.0032957 1.6269922-.9917334 3.08988-2.5 3.7 1.2316045.5024769 2.6325778.3585029 3.7362432-.3839629 1.1036653-.7424658 1.7650185-1.985875 1.7637568-3.3160371.0030533-.3377372-.0406959-.6742693-.13-1z" fill="#545c60"/><circle id="Oval" cx="25" cy="34" fill="#7f8e94" r="4"/><path id="Shape" d="m25 30c-.5146869.0021442-1.0240797.1040228-1.5.3 1.5106493.6093694 2.4998715 2.0750763 2.4998715 3.704s-.9892222 3.0946306-2.4998715 3.704c1.4960688.6053048 3.209337.2522552 4.3442174-.8952038 1.1348805-1.147459 1.4690246-2.8645145.8472667-4.3538207-.621758-1.4893061-2.0776019-2.4590745-3.6914841-2.4589755z" fill="#545c60"/><path id="Shape" d="m59 25v3h-2c-1.1032019-.0032948-1.9967052-.8967981-2-2v-2h3c.5522847 0 1 .4477153 1 1z" fill="#ffdc00"/><path id="Shape" d="m45 30v3c0 .5522847-.4477153 1-1 1h-15c0-2.209139-1.790861-4-4-4z" fill="#607d8b"/><path id="Shape" d="m25 30c-2.209139 0-4 1.790861-4 4h-5c-.5522847 0-1-.4477153-1-1v-2c0-.5522847.4477153-1 1-1z" fill="#607d8b"/><path id="Shape" d="m10.9 8.411 18.561-7.274c.4928434-.19245047 1.0420196-.18082204 1.5262749.03231784.4842553.21313987.8637609.61026097 1.0547251 1.10368216l6.52 16.772c.401941 1.0275075-.1041338 2.1864233-1.131 2.59l-21.343 8.365-6.883-17.7c-.60274556-1.5419207.15518134-3.28090457 1.695-3.889z" fill="#f44335"/><path id="Shape" d="m38.562 19.045-6.52-16.772c-.1909642-.49342119-.5704698-.89054229-1.0547251-1.10368216-.4842553-.21313988-1.0334315-.22476831-1.5262749-.03231784l-.957.376c.237459.20672852.42194.46733376.538.76l6.52 16.772c.401941 1.0275075-.1041338 2.1864233-1.131 2.59l-18.74 7.345.4 1.02 21.343-8.365c1.0256862-.4047678 1.5302644-1.5633294 1.128-2.59z" fill="#c81e1e"/><path id="Shape" d="m49 21c-.5522847 0-1-.4477153-1-1v-2c0-.5522847.4477153-1 1-1s1 .4477153 1 1v2c0 .5522847-.4477153 1-1 1z" fill="#02a9f4"/><path id="Shape" d="m59 40v18c0 .5522847-.4477153 1-1 1h-56c-.55228475 0-1-.4477153-1-1v-3c0-.5522847.44771525-1 1-1h13c1.1032019-.0032948 1.9967052-.8967981 2-2v-12c.0032948-1.1032019.8967981-1.9967052 2-2h38c1.1032019.0032948 1.9967052.8967981 2 2z" fill="#a0522d"/><path id="Shape" d="m57 38h-3c1.1032019.0032948 1.9967052.8967981 2 2v18c0 .5522847-.4477153 1-1 1h3c.5522847 0 1-.4477153 1-1v-18c-.0032948-1.1032019-.8967981-1.9967052-2-2z" fill="#783e22"/><path id="Shape" d="m9.53 13.11c-1.97292901.4386374-3.40962838 2.1413923-3.51 4.16-1.24229195.4195491-2.23568096 1.3666395-2.71399946 2.5875089-.47831851 1.2208694-.39266908 2.5907111.23399946 3.7424911-1.38141576.9337353-1.91234479 2.712329-1.26882767 4.2505283.64351713 1.5381992 2.2827873 2.4088738 3.91756947 2.0807603 1.63478216-.3281136 2.81112677-1.7639041 2.8112582-3.4312886-.00504912-.0937976-.01506315-.1872618-.03-.28.74552341.5088852 1.6273546.7807541 2.53.78 1.1009771.0062204 2.1642806-.4005467 2.98-1.14z" fill="#60a917"/><path id="Shape" d="m55 43h-4c-.5522847 0-1-.4477153-1-1s.4477153-1 1-1h4c.5522847 0 1 .4477153 1 1s-.4477153 1-1 1z" fill="#783e22"/><path id="Shape" d="m51 47h-4c-.5522847 0-1-.4477153-1-1s.4477153-1 1-1h4c.5522847 0 1 .4477153 1 1s-.4477153 1-1 1z" fill="#783e22"/><path id="Shape" d="m55 51h-4c-.5522847 0-1-.4477153-1-1s.4477153-1 1-1h4c.5522847 0 1 .4477153 1 1s-.4477153 1-1 1z" fill="#783e22"/><path id="Shape" d="m51 55h-4c-.5522847 0-1-.4477153-1-1s.4477153-1 1-1h4c.5522847 0 1 .4477153 1 1s-.4477153 1-1 1z" fill="#783e22"/><path id="Shape" d="m43 43h-4c-.5522847 0-1-.4477153-1-1s.4477153-1 1-1h4c.5522847 0 1 .4477153 1 1s-.4477153 1-1 1z" fill="#783e22"/><path id="Shape" d="m39 47h-4c-.5522847 0-1-.4477153-1-1s.4477153-1 1-1h4c.5522847 0 1 .4477153 1 1s-.4477153 1-1 1z" fill="#783e22"/><path id="Shape" d="m43 51h-4c-.5522847 0-1-.4477153-1-1s.4477153-1 1-1h4c.5522847 0 1 .4477153 1 1s-.4477153 1-1 1z" fill="#783e22"/><path id="Shape" d="m39 55h-4c-.5522847 0-1-.4477153-1-1s.4477153-1 1-1h4c.5522847 0 1 .4477153 1 1s-.4477153 1-1 1z" fill="#783e22"/><path id="Shape" d="m31 43h-4c-.5522847 0-1-.4477153-1-1s.4477153-1 1-1h4c.5522847 0 1 .4477153 1 1s-.4477153 1-1 1z" fill="#783e22"/><path id="Shape" d="m27 47h-4c-.5522847 0-1-.4477153-1-1s.4477153-1 1-1h4c.5522847 0 1 .4477153 1 1s-.4477153 1-1 1z" fill="#783e22"/><path id="Shape" d="m31 51h-4c-.5522847 0-1-.4477153-1-1s.4477153-1 1-1h4c.5522847 0 1 .4477153 1 1s-.4477153 1-1 1z" fill="#783e22"/><path id="Shape" d="m27 55h-4c-.5522847 0-1-.4477153-1-1s.4477153-1 1-1h4c.5522847 0 1 .4477153 1 1s-.4477153 1-1 1z" fill="#783e22"/><g fill="#000"><path id="Shape" d="m58 23h-3c-.5522847 0-1-.4477153-1-1v-6c0-1.6568542-1.3431458-3-3-3h-5c-1.1045695 0-2 .8954305-2 2v14h-6.382l-2.66-5.322 2.842-1.112c1.53866-.6065439 2.2983094-2.3421193 1.7-3.884l-6.526-16.771c-.2871896-.74013895-.8569423-1.33567696-1.5836532-1.65532474-.726711-.31964777-1.5507116-.33715973-2.2903468-.04867526l-18.562 7.273c-1.99080948.78837497-3.00771415 3.0046718-2.307 5.028-1.65256679.7548546-2.82659723 2.2760808-3.138 4.066-1.88792273.9156957-3.08847636 2.8277316-3.093 4.926.00115604.6184539.11012061 1.2319718.322 1.813-1.33606983 1.3286653-1.70287545 3.3490472-.91912317 5.0625718.78375227 1.7135246 2.55208406 2.7573119 4.43099733 2.61547 1.87891326-.1418418 3.47050296-1.4392745 3.98812584-3.2510418 1.3851688.4312903 2.8838939.3057389 4.178-.35l.788 2.029c-.4947518.3753551-.7861392.9599788-.788 1.581v2c0 1.1045695.8954305 2 2 2h4.1c.1542758.7276558.4704292 1.4112306.925 2h-2.025c-1.6568542 0-3 1.3431458-3 3v1.109c-1.9911098.4080906-3.5382302 1.9789156-3.916 3.976-1.238804.2351379-2.34273343.9303633-3.09 1.946-1.67540755-.2066545-3.32164978.5619026-4.239 1.979-1.10115929-.0925568-2.18042788.3456598-2.90537169 1.1796712-.7249438.8340114-1.00861149 1.9637845-.76362831 3.0413288-.66361739.340949-1.08228971 1.02293-1.086 1.769v3c0 1.1045695.8954305 2 2 2h56c1.1045695 0 2-.8954305 2-2v-18c0-1.6568542-1.3431458-3-3-3h-1.026c.6618067-.8603889 1.0223232-1.9145307 1.026-3h1c1.1045695 0 2-.8954305 2-2v-7c0-1.1045695-.8954305-2-2-2zm0 4h-1c-.5522847 0-1-.4477153-1-1v-1h2zm-9.974 10h-19.052c.4545708-.5887694.7707242-1.2723442.925-2h14.101c.7113268-.002145 1.3675874-.3832487 1.722-1h1.278c.0036768 1.0854693.3641933 2.1396111 1.026 3zm-4.026-4h-14.1c-.1542758-.7276558-.4704292-1.4112306-.925-2h15.025zm-8.618-4h-14l11.708-4.589zm-24.113-19.658 18.557-7.273c.2453653-.09633709.5190542-.09062947.7601898.01585331.2411356.10648279.4297214.30491048.5238102.55114669l6.52 16.771c.0981066.247264.0936505.5234272-.0123826.7673972s-.3049035.4356377-.5526174.5326028l-20.409 8-6.518-16.771c-.40102098-1.0285736.104436-2.18786226 1.131-2.594zm-1.737 16.051c-.32245687-.218992-.74277462-.2306598-1.07688374-.0298937s-.52111265.5773731-.47911626.9648937c0 .012.022.159.024.172-.00036612 1.1909173-.84074796 2.2162491-2.00841498 2.4504239s-2.3384201-.3878253-2.79796387-1.486508-.08028732-2.3690021.90637885-3.0359159c.4212036-.285301.5610793-.8413608.325-1.292-.49195716-.8941073-.56166441-1.9604561-.19029211-2.9109992.37137231-.9505432 1.14550734-1.6872072 2.11329211-2.0110008.38319837-.1332833.64788882-.484887.67-.89.06663352-1.254969.80098953-2.3778772 1.924-2.942l4.325 11.125c-1.1672998.6677022-2.6105944.6236498-3.735-.114zm6.468 5.607h5.026c-.4545708.5887694-.7707242 1.2723442-.925 2h-4.101zm6 3c0-1.6568542 1.3431458-3 3-3s3 1.3431458 3 3-1.3431458 3-3 3-3-1.3431458-3-3zm-17.06 17.081c.50049416.1797362 1.05411692-.0636821 1.26-.554.38826573-.9265056 1.29543055-1.5287842 2.3-1.527.23440867.0034315.46711263.0404756.691.11.45552822.1323016.9413272-.0736304 1.163-.493.5134455-.9883948 1.5322162-1.6109769 2.646-1.617.5522847 0 1-.4477153 1-1 .0052514-1.2667854.8056491-2.3937454 2-2.816v8.816c0 .5522847-.4477153 1-1 1h-11.91c-.19421598-.5325631-.06784731-1.1292517.32558717-1.5373602.39343447-.4081085.9850979-.5562326 1.52441283-.3816398zm53.06-11.081v18h-56v-3h13c1.6568542 0 3-1.3431458 3-3v-12c0-.5522847.4477153-1 1-1h38c.5522847 0 1 .4477153 1 1zm-9-6c0-1.6568542 1.3431458-3 3-3s3 1.3431458 3 3-1.3431458 3-3 3-3-1.3431458-3-3zm7.576-2c-.7922291-1.8216773-2.5895119-2.9999437-4.576-2.9999437s-3.7837709 1.1782664-4.576 2.9999437h-1.424v-7h3c.5522847 0 1-.4477153 1-1s-.4477153-1-1-1h-3v-8h5c.5522847 0 1 .4477153 1 1v6c.0052514 1.2667854.8056491 2.3937454 2 2.816v1.184c0 1.6568542 1.3431458 3 3 3h1v3z"/><path id="Shape" d="m30.949 18.8c.2010317.5147294.7812706.7690316 1.296.5679999.5147293-.2010316.7690316-.7812705.568-1.2959999l-4.364-11.181c-.1300447-.33279291-.4277538-.57092823-.7809832-.62470269-.3532295-.05377446-.7083153.08498156-.9315001.36400001-.2231847.27901844-.2805614.65590978-.1505167.98870268z"/><path id="Shape" d="m25.36 20.979c.2010316.5147294.7812706.7690316 1.296.568s.7690316-.7812706.568-1.296l-4.365-11.178c-.2226453-.4788098-.7791973-.7019935-1.2709728-.50967461s-.7492694.73385189-.5880272 1.23667461z"/><path id="Shape" d="m19.771 23.161c.2010317.5144532.7810468.7685316 1.2955.5675.5144532-.2010317.7685316-.7810468.5675-1.2955l-4.363-11.179c-.2010317-.5147294-.7812706-.7690316-1.296-.568-.5147294.2010317-.7690316.7812706-.568 1.296z"/><circle id="Oval" cx="52" cy="34" r="1"/><circle id="Oval" cx="25" cy="34" r="1"/><path id="Shape" d="m50 42c0 .5522847.4477153 1 1 1h4c.5522847 0 1-.4477153 1-1s-.4477153-1-1-1h-4c-.5522847 0-1 .4477153-1 1z"/><path id="Shape" d="m47 47h4c.5522847 0 1-.4477153 1-1s-.4477153-1-1-1h-4c-.5522847 0-1 .4477153-1 1s.4477153 1 1 1z"/><path id="Shape" d="m55 49h-4c-.5522847 0-1 .4477153-1 1s.4477153 1 1 1h4c.5522847 0 1-.4477153 1-1s-.4477153-1-1-1z"/><path id="Shape" d="m51 53h-4c-.5522847 0-1 .4477153-1 1s.4477153 1 1 1h4c.5522847 0 1-.4477153 1-1s-.4477153-1-1-1z"/><path id="Shape" d="m43 41h-4c-.5522847 0-1 .4477153-1 1s.4477153 1 1 1h4c.5522847 0 1-.4477153 1-1s-.4477153-1-1-1z"/><path id="Shape" d="m35 47h4c.5522847 0 1-.4477153 1-1s-.4477153-1-1-1h-4c-.5522847 0-1 .4477153-1 1s.4477153 1 1 1z"/><path id="Shape" d="m43 49h-4c-.5522847 0-1 .4477153-1 1s.4477153 1 1 1h4c.5522847 0 1-.4477153 1-1s-.4477153-1-1-1z"/><path id="Shape" d="m39 53h-4c-.5522847 0-1 .4477153-1 1s.4477153 1 1 1h4c.5522847 0 1-.4477153 1-1s-.4477153-1-1-1z"/><path id="Shape" d="m31 41h-4c-.5522847 0-1 .4477153-1 1s.4477153 1 1 1h4c.5522847 0 1-.4477153 1-1s-.4477153-1-1-1z"/><path id="Shape" d="m23 47h4c.5522847 0 1-.4477153 1-1s-.4477153-1-1-1h-4c-.5522847 0-1 .4477153-1 1s.4477153 1 1 1z"/><path id="Shape" d="m31 49h-4c-.5522847 0-1 .4477153-1 1s.4477153 1 1 1h4c.5522847 0 1-.4477153 1-1s-.4477153-1-1-1z"/><path id="Shape" d="m27 53h-4c-.5522847 0-1 .4477153-1 1s.4477153 1 1 1h4c.5522847 0 1-.4477153 1-1s-.4477153-1-1-1z"/></g></g></g></svg>