<svg id="Layer_1" xmlns="http://www.w3.org/2000/svg" xmlns:xlink="http://www.w3.org/1999/xlink" x="0px" y="0px" viewBox="0 0 910.3 696" xml:space="preserve" style=""><style type="text/css">
	.st0{fill:#EBC9B1;}
	.st1{fill:#F2F2F2;}
	.st2{fill:#FCEAE4;}
	.st3{fill:#87BADE;}
	.st4{fill:#6AB29A;}
	.st5{fill:#FFFFFF;}
	.st6{font-family:'PTMono-Regular';}
	.st7{font-size:13.6311px;}
	.st8{font-size:24.536px;}
	.st9{fill:none;stroke:#000000;stroke-width:0.5;stroke-miterlimit:10;}
	.st10{fill:none;stroke:#000000;stroke-miterlimit:10;}
	.st11{fill:#FFFFFF;stroke:#000000;stroke-width:0.75;stroke-miterlimit:10;}
	.st12{fill:#FFFFFF;stroke:#000000;stroke-miterlimit:10;}
	.st13{stroke:#FFFFFF;stroke-miterlimit:10;}
	.st14{fill:none;stroke:#C1BFB2;stroke-miterlimit:10;}
	.st15{fill:none;stroke:#FFFFFF;stroke-width:0.5;stroke-miterlimit:10;}
	.st16{fill:none;stroke:#B7B7B7;stroke-miterlimit:10;}
</style><g><path class="st0" d="M362.9,670.9c-6.6-14,14.1-68.5-9.1-112.4s-42.2-56-48.4-58.6s-28.6-4.1-51-20s-112.4-0.4-107.9,65.8 C151,612,284.9,627,314.6,646.1c12.5,10.3,28.4,20.1,35.5,29C365.7,695,367.4,680.6,362.9,670.9z"/><path class="st0" d="M254.4,480c0,0,21,20,31,22.5s20.6,3.8,27.9,12.8s2.3,6.4,6.9,14.1s-0.2,5.8-1.7,10.2 c-1.5,4.3-9.8,4.7-11.3,4.8c-1.4,0.2-0.2,1.6,8.2,5.6c8.4,4,28,20.5,33.2,30.5s7.3,15.2,5.1,18.3s9.9,12.8,7.6,17.8 s-11.7-10.7-7.7,12.3c4,22.9,5.1,39.6,9.3,48.6c4.2,9-2.2,7.4-2.2,7.4s-10.6-15.3-16.5-19.6s-4.6-7.7-8.9-15.8s-9.2-7.3-13.7-15.7 s-1.1-8.6-4.3-16.8c-3.1-8.3-5.7-8.2-6.6-0.4s-7.3,5-10.3,1.2s-7.8-0.6-10.7-14.7s-10.2-13.5-11.2-20.2c-0.9-6.7,4.1-27.5,7.9-35.2 s-5.4,12.5-9.6,16.8c-4.1,4.3-8.2-24.5-7.2-38C270.7,513.1,268.3,493,254.4,480z"/></g><g><path class="st1" d="M729.7,354.8c-1.3-17.4,16.7-33,40.7-35.8c0.2-0.9,0.4-1.9,0.7-2.8c4.1-14.8,16.8-25,31.1-26.8 c3.6-11.2,15.5-19.9,30.7-22.9c3.5-19.1,20.9-33.1,40.8-31.8c21.5,1.4,37.9,19.9,36.6,41.4c-0.8,13.3-8.2,24.6-18.8,31 c-5,14.7-24.3,24.9-46.6,23.5c0,0-0.3-0.1-0.6,0c-0.6,0.1-0.9,0.8-1.1,1.1c-0.3,0.7-0.3,1.2-0.4,2.1c0,0-0.1,0.5-0.5,2.2 c-3.4,12.3-12.6,21.4-23.9,25.1l0,0c-6.2,12-21.7,21.2-40.4,22.7C752.7,385.8,731,372.8,729.7,354.8z"/></g><g><path class="st2" d="M208.6,358c0.1-5.2-5.2-6.8-70.7-44.4c-28.6-16.4-29.9-17.4-35.8-19.6C55.5,276.9,1.4,291.5,0,305 c-0.9,8.4,19.8,9.7,43.9,35.7C61.4,359.5,60,369,70.4,379C106.7,413.9,208.2,380.7,208.6,358z"/></g><path class="st3" d="M708.9,465.2c-2,11.7,10.7,15.7,10.5,32c-0.2,21.2-21.9,27.4-32.7,49.6c-15.3,31.5-1.1,79.8,22.2,86 c18.9,5,46.3-17.2,54.8-40.8c4.6-12.7-0.3-14.9,2.3-29.8c6.8-38.3,42.8-44,51.3-81.6c1.1-4.8,6.7-29.7-7-43 C786,414.1,713.5,438.7,708.9,465.2z"/><path class="st4" d="M680.5,158.4c-0.2-10.6-17-10.3-23.1-21.3c-16.5-29.6,57.1-116.9,90.2-112.2c33.7,4.9,47.6,108.4-11.7,157.1 C694,216.4,626,214.8,624.1,206C622.3,197.4,680.8,178.2,680.5,158.4z"/><path d="M143.9,313.1c-0.2-0.1-0.5-0.1-0.7-0.1s-0.5-0.1-0.8-0.1c-0.1,0-3.8-0.7-5.5-2.2c-0.3-0.3-0.7-0.6-0.9-1 c-0.4-0.5-1.1-0.9-1.8-0.9c-3.7,0.1-7.5-0.1-11.2-0.6c-0.3,0-0.6-0.1-0.9-0.1c-1.4,0-2.8,0.5-3.9,1.4c-0.6,0.5-1.3,0.9-2,1.3 c-0.7,0.5-1.5,0.9-2.3,1.2c-0.2,0.1-0.5,0.2-0.7,0.2c0.1-0.2,0.2-0.5,0.3-0.6c1-1.3,1.8-2.8,2.3-4.4c0.1-0.2,0-0.4-0.1-0.5l-0.1-0.2 h-0.3c-0.2,0-0.4,0.1-0.5,0.2c-0.3,0.4-0.7,0.7-1.1,0.9c-0.1,0.1-0.3,0.2-0.4,0.3c-1.7,1.2-4.6,1.5-5.4,1.5c-0.1,0-0.2,0-0.2,0h-0.2 c-0.3,0-0.6-0.1-0.8-0.1c-0.2,0-0.4,0-0.6,0c0.2-0.1,0.4-0.3,0.6-0.4s4.7-2.3,5.7-4.8l3-10.1c2.2,2.4,10.9,3.7,19,3.7 c8.2,0,16.9-2.5,19.1-4.9l1,4.8l1.7,5.6v0.2c0,0.1,0.1,0.4,0.1,0.4l0.2,0.3c1,1.3,2.2,2.5,3.6,3.5c0.6,0.4,1,1,1.2,1.8 c-0.2-0.1-0.8-0.3-1.1-0.5c-0.5-0.3-1.1-0.6-1.7-0.8c-1.3-0.2-2.6-0.6-3.8-1c-0.4-0.2-0.9-0.3-1.4-0.3c-0.4,0-0.8,0.1-1.2,0.2 c-2,0.8-4.6,1.1-8.6,1.5c-0.4,0-0.7,0.3-0.8,0.6c-0.1,0.3,0,0.7,0.2,1c1.1,1.1,2.3,2,3.6,2.8c0.1,0.1,0.2,0.2,0.4,0.3 c-0.3,0-0.6,0-0.8,0h-0.8L143.9,313.1z"/><path class="st5" d="M134.2,297.8c-11.3,0-18.9-2.4-18.9-4.7s7.6-4.7,18.9-4.7s18.9,2.4,18.9,4.7S145.6,297.8,134.2,297.8z"/><path d="M134.2,288.6c11,0,18.7,2.4,18.7,4.5s-7.7,4.5-18.7,4.5s-18.7-2.4-18.7-4.5C115.6,291,123.2,288.6,134.2,288.6 M134.2,288.2 c-10.6,0-19.1,2.2-19.1,4.9s8.6,4.9,19.1,4.9s19.1-2.2,19.1-4.9S144.8,288.2,134.2,288.2z"/><path d="M134.2,290.3c10.7,0,15.6,1.9,15.6,2.6s-4.9,2.6-15.6,2.6s-15.6-1.9-15.6-2.6C118.7,292.2,123.5,290.3,134.2,290.3  M134.2,289.6c-9,0-16.3,1.5-16.3,3.3s7.3,3.3,16.3,3.3s16.3-1.5,16.3-3.3S143.2,289.6,134.2,289.6z"/><path d="M134.2,291.5c6.8,0,10.6,0.9,11.3,1.4c-0.7,0.5-4.5,1.4-11.3,1.4s-10.6-0.9-11.3-1.4C123.6,292.4,127.4,291.5,134.2,291.5  M134.2,290.9c-6.6,0-11.9,0.9-11.9,2s5.3,2,11.9,2c6.6,0,11.9-0.9,11.9-2C146.2,291.8,140.8,290.9,134.2,290.9z"/><path d="M134.2,292.7c2.4,0,4.4,0.1,5.7,0.2c-1.3,0.1-3.2,0.2-5.7,0.2s-4.4-0.1-5.7-0.2C129.8,292.8,131.8,292.7,134.2,292.7  M134.2,292.2c-4.2,0-7.6,0.3-7.6,0.7c0,0.4,3.4,0.7,7.6,0.7s7.6-0.3,7.6-0.7C141.9,292.5,138.4,292.2,134.2,292.2z"/><path d="M158.2,303.5c-0.6,0-1.3-0.1-1.9-0.2h-0.1l-0.3,0.2c0-0.1-0.2,0.1-0.2,0l-1.9-6c0.4,0.4,1.8,1.5,2.2,1.9 c1.8,2,6.8,2.6,7,2.6s0.4,0.1,0.6,0.2c-0.2,0.1-0.4,0.2-0.6,0.2c-0.3,0.1-0.5,0.2-0.8,0.4l-0.2,0.1 C160.9,303.2,159.5,303.5,158.2,303.5z"/><path d="M810,299.2c0,5.7-4.6,10.3-10.3,10.3s-10.3-4.6-10.3-10.3c0-4.4,2.8-8.3,6.9-9.7h6.8C807.2,290.9,810,294.8,810,299.2z"/><path d="M843.7,266.5c0,0,0.8-3.9,4-4.5s3.9-1.4,11.1-0.8s12.5,1,12.5,1s4.5-0.4,8.9,6.6s5.9,11,6.2,12s-0.5,12.6-0.5,12.6h-0.7v0.8 h1.5c0.3,0.1,0.5,0.4,0.5,0.7c0,0.6-0.3,5.9-0.3,5.9l-1.9,0.5c0,0-1,0.5-1-0.3s-0.1-1-0.5-1s-5.9-0.4-5.9-0.4s-1.1,0.2-1.2-0.5 s-1.1-6-2.4-7.4c-1.3-1.5-1.4-2.3-5-2.5c-3.5-0.1-9.3-0.3-9.3-0.3s-0.8-0.1-1.4,1l-0.6,1.1h-5.9l-9.5-3.5v-7.7 C842.4,279.6,843,269,843.7,266.5z"/><path class="st1" d="M542.4,298.3c-37.1-51.1-83.7-51.5-125.4-92.7c-30.3-29.9-62.3-85.6-57.2-199L358.6,7l0.7-0.7L352.9,0l-12,12 l-6.3-6.3l-12,12l-6.3-6.3l-12,12l-6.3-6.3l-12,12l-6.3-6.3l-12,12l-6.3-6.3l-12,12l-6.3-6.3l-12,12l-6.3-6.3l-12,12l-6.3-6.3 l-12,12l-6.3-6.3l-12,12L177,64c-5,113.3,27,168.9,57.3,198.8c41.7,41.1,88.3,41.6,125.4,92.7c31.4,43.3,35,94.2,33.6,129l6.3,6.3 l12-12l6.3,6.3l12-12l6.3,6.3l12-12l6.3,6.3l12-12l6.3,6.3l12-12l6.3,6.3l12-12l6.3,6.3l12-12l6.3,6.3l12-12l6.3,6.3l12-12l6.3,6.3 l12-12C577.4,392.5,573.8,341.6,542.4,298.3z M341.2,12.4l-1,0.3l0.6-0.6L341.2,12.4z M323,18.1l-1,0.3l0.6-0.6L323,18.1z  M304.7,23.8l-1,0.3l0.6-0.6L304.7,23.8z M286.5,29.5l-1,0.3l0.6-0.6L286.5,29.5z M268.2,35.2l-1,0.3l0.6-0.7L268.2,35.2z M249.9,41 l-1,0.3l0.6-0.7L249.9,41z M231.7,46.7l-1,0.3l0.6-0.7L231.7,46.7z M213.4,52.4l-1,0.3L213,52L213.4,52.4z M195.1,58.1l-1,0.3 l0.6-0.7L195.1,58.1z"/><text transform="matrix(1 0 0 1 494.466 189.8104)" class="st6 st7">28,000 tonnes </text><text transform="matrix(1 0 0 1 551.715 206.1673)" class="st6 st7">of co2</text><text transform="matrix(1 0 0 1 93.4382 272.9686)" class="st6 st7">200,000 trees cut down</text><text transform="matrix(1 0 0 1 660.4532 330.3734)" class="st6 st7">10,640 tonnes</text><text transform="matrix(1 0 0 1 653.9001 346.7308)" class="st6 st7">of paper waste</text><text transform="matrix(1 0 0 1 269.4323 74.9779)" class="st6 st8">More than 11.2 billion    </text><text transform="matrix(1 0 0 1 269.4323 104.4208)" class="st6 st8">receipts printed </text><text transform="matrix(1 0 0 1 269.4323 133.8641)" class="st6 st8">in the UK each year</text><line class="st9" x1="376.4" y1="170.2" x2="601.6" y2="170.2"/><line class="st9" x1="524" y1="309.8" x2="767.8" y2="309.8"/><text transform="matrix(1 0 0 1 603.6857 554.7338)" class="st6 st7">1,600,000,000</text><text transform="matrix(1 0 0 1 587.3283 571.0912)" class="st6 st7">litres of water</text><polyline class="st9" points="712.6,534.2 529.9,534.2 529.9,431.5 "/><line class="st9" x1="51.6" y1="248.7" x2="298.8" y2="248.7"/><text transform="matrix(1 0 0 1 203.8002 458.6244)" class="st6 st7">more than 50% contain BPA</text><line class="st9" x1="203.8" y1="434.4" x2="418.2" y2="434.4"/><path d="M163.4,360.5c-0.4-0.1-0.8-0.2-1.2-0.2c-0.4-0.1-0.9-0.1-1.2-0.2c-0.3,0-6.4-1.1-9.3-3.6c-0.6-0.5-1.1-1.1-1.6-1.7 c-0.6-0.8-1.6-1.3-2.7-1.3c-6.2,0.1-12.4-0.2-18.6-1c-0.5-0.1-1-0.1-1.4-0.1c-2.3,0-4.6,0.8-6.3,2.3c-1,0.8-2.2,1.6-3.3,2.2 c-1.2,0.8-2.5,1.5-3.8,2c-0.5,0.2-1,0.4-1.6,0.4c-0.1,0-0.1,0-0.1,0l0,0c0,0-0.1-0.3,0.6-1.5c1.6-2.2,2.9-4.6,3.7-7.1 c0.1-0.2,0-0.4-0.1-0.6s-0.3-0.2-0.5-0.2s-0.4,0.1-0.6,0.3c-0.5,0.6-1.2,1.1-1.9,1.6c-0.2,0.1-0.4,0.3-0.6,0.4 c-2.8,2.1-7.7,2.6-9.2,2.6c-0.2,0-0.3,0-0.4,0H103c-0.4-0.1-0.9-0.1-1.3-0.1c-0.5,0-1.1,0-1.6-0.2c0.4-0.4,0.8-0.8,1.4-1 c0.3-0.1,7.7-3.8,9.3-7.8l5.1-17.2c2.8,4.1,17.4,6.5,31.6,6.5s28.8-2.4,31.6-6.5l1.9,6.6l2.8,9.3l0,0v0.3c0.1,0.2,0.2,0.4,0.4,0.4 l-0.1,0.2l0.2,0.3c1.7,2.1,3.7,4,5.8,5.7c1.7,1.5,2.2,2.9,2,3.4c0,0.1-0.1,0.1-0.2,0.1c-0.1,0-0.1,0-0.2,0c-0.2,0-1.2-0.6-1.9-0.9 c-0.9-0.5-1.8-0.9-2.7-1.2c-2.2-0.4-4.3-1-6.4-1.8c-0.7-0.3-1.5-0.5-2.2-0.5c-0.6,0-1.3,0.1-1.9,0.3c-3.4,1.3-7.6,1.8-14.4,2.5 c-0.5,0-0.9,0.4-1.1,0.8c-0.2,0.5-0.1,1,0.3,1.3c1.8,1.7,3.8,3.3,5.9,4.6c0.9,0.7,1,1,1,1c-0.6,0.1-1.3,0.2-1.9,0.1h-1.2 L163.4,360.5z"/><path d="M183.9,344.2c0.1,0.2,0.3,0.5,0.5,0.7l-0.2-0.6C184.2,344.3,184.1,344.2,183.9,344.2z"/><path class="st5" d="M147.4,334.9c-18.7,0-31.2-4-31.2-7.7s12.5-7.7,31.2-7.7s31.2,4,31.2,7.7S166.1,334.9,147.4,334.9z"/><path d="M147.4,320c7.4-0.1,14.9,0.7,22.1,2.4c6.3,1.6,8.6,3.6,8.6,4.9s-2.3,3.2-8.6,4.9c-7.3,1.7-14.7,2.5-22.1,2.4 c-7.4,0.1-14.9-0.7-22.2-2.4c-6.3-1.6-8.6-3.6-8.6-4.9s2.3-3.2,8.6-4.9C132.5,320.7,140,319.9,147.4,320 M147.4,319.1 c-17.5,0-31.7,3.6-31.7,8.1s14.2,8.1,31.7,8.1s31.6-3.6,31.6-8.1C179.1,322.7,164.9,319.1,147.4,319.1z"/><path d="M147.4,322.3c16.8,0,26,3,26,4.5c0,0.4-1.3,1.8-7.2,3c-6.2,1.1-12.5,1.6-18.9,1.6c-16.8,0-26-3-26-4.5c0-0.4,1.3-1.8,7.2-3 C134.8,322.8,141.1,322.2,147.4,322.3 M147.4,321.4c-14.9,0-26.9,2.4-26.9,5.5s12.1,5.5,26.9,5.5s26.9-2.4,26.9-5.5 S162.3,321.4,147.4,321.4L147.4,321.4z"/><path d="M147.4,324.5c11.4,0,17.7,1.5,18.8,2.4c-1.1,0.9-7.3,2.4-18.8,2.4c-11.4,0-17.7-1.5-18.8-2.4 C129.8,326,136,324.5,147.4,324.5 M147.4,323.6c-10.9,0-19.8,1.5-19.8,3.3s8.8,3.3,19.8,3.3c10.9,0,19.8-1.5,19.8-3.3 S158.3,323.6,147.4,323.6L147.4,323.6z"/><path d="M147.4,326.6c2.9,0,5.5,0.1,7.4,0.2c-2,0.1-4.5,0.2-7.4,0.2s-5.5-0.1-7.4-0.2C141.9,326.7,144.5,326.6,147.4,326.6  M147.4,325.7c-7,0-12.6,0.5-12.6,1.1s5.6,1.1,12.6,1.1s12.6-0.5,12.6-1.1S154.4,325.7,147.4,325.7L147.4,325.7z"/><path d="M187,344.6c-1.1,0-2.1-0.1-3.2-0.4h-0.1h-0.3v0.1c-0.1-0.2-0.2-0.4-0.2-0.5l-2.2-8.9c1,0.7,1.9,1.5,2.7,2.4 c2.9,3.2,11.1,4.2,11.4,4.2c0.6,0.1,1.1,0.2,1.6,0.5c-0.4,0.3-0.9,0.6-1.4,0.7c-0.4,0.2-0.9,0.4-1.2,0.6l-0.3,0.1 C191.6,344.2,189.3,344.6,187,344.6z"/><path d="M61.4,336.3c-0.4,0-0.8,0-1.3-0.1c0.2-0.2,0.4-0.4,0.6-0.5c1.6-1,3-2.1,4.3-3.4c0.3-0.3,0.4-0.7,0.2-1.1 c-0.1-0.4-0.5-0.6-0.9-0.7c-4.9-0.5-8-0.9-10.5-1.8c-0.5-0.2-0.9-0.2-1.4-0.2c-0.6,0-1.2,0.1-1.7,0.3c-1.5,0.6-3,1-4.6,1.3 c-0.7,0.2-1.4,0.5-2,0.9c-0.5,0.3-1.2,0.6-1.4,0.7h-0.1l0,0c-0.1-0.2,0.1-1.2,1.4-2.3c1.6-1.2,3-2.6,4.3-4.2l0.2-0.2l-0.1-0.2 c0.1-0.1,0.2-0.2,0.2-0.4v-0.3l0,0l2-6.7l1.3-5.4c2.5,3,13.2,5.5,23.2,5.5c10.1,0,20.8-2.5,23.2-5.5l3.5,13.2c1.3,3,6.7,5.7,6.9,5.8 c0.3,0.2,0.6,0.4,0.8,0.6c-0.3,0.1-0.6,0.1-0.9,0.1s-0.7,0-1,0.1h-0.2c-0.1,0-0.2,0-0.3,0c-1.1,0-4.6-0.3-6.7-1.9 c-0.2-0.1-0.3-0.2-0.5-0.3c-0.5-0.3-0.9-0.7-1.3-1.1c-0.1-0.2-0.3-0.2-0.5-0.3c-0.2,0-0.3,0.1-0.5,0.2c-0.1,0.2-0.2,0.4-0.1,0.6 c0.6,1.9,1.6,3.7,2.8,5.3c0.2,0.3,0.3,0.6,0.4,0.9c-0.4-0.1-0.7-0.2-1.1-0.3c-1-0.4-1.9-0.8-2.7-1.4c-0.9-0.5-1.7-1-2.5-1.6 c-1.3-1.1-3-1.7-4.7-1.7c-0.4,0-0.7,0-1.1,0.1c-4.5,0.6-9.1,0.9-13.6,0.8c-0.8,0-1.6,0.4-2.1,1c-0.3,0.5-0.7,0.9-1.2,1.2 c-2.1,1.8-6.6,2.6-6.7,2.6c-0.3,0-0.6,0.1-0.9,0.1c-0.3,0-0.6,0.1-0.9,0.1H62L61.4,336.3z"/><path class="st5" d="M75.3,317.6c-13.4,0-22.8-2.9-22.8-5.5s9.4-5.5,22.8-5.5s22.8,2.9,22.8,5.5C98.1,314.6,88.8,317.6,75.3,317.6z"/><path d="M75.3,307c13.8,0,22.3,3,22.3,5.1c0,0.9-1.9,2.3-6.1,3.4c-5.3,1.2-10.8,1.8-16.2,1.7c-5.4,0.1-10.9-0.5-16.2-1.7 c-4.2-1.1-6.1-2.5-6.1-3.4C53,309.9,61.5,307,75.3,307 M75.3,306c-12.8,0-23.2,2.7-23.2,6s10.4,6,23.2,6s23.2-2.7,23.2-6 C98.6,308.7,88.2,306,75.3,306z"/><path d="M75.3,308.7c11.8,0,18.6,2,18.9,3.1c-0.3,1.1-7,3.1-18.9,3.1s-18.6-2-18.9-3.1C56.8,310.7,63.5,308.7,75.3,308.7  M75.3,307.8c-10.9,0-19.8,1.8-19.8,4s8.8,4,19.8,4s19.8-1.8,19.8-4S86.2,307.8,75.3,307.8z"/><path d="M75.3,310.1c7.9,0,12.4,1,13.5,1.6c-1.1,0.6-5.7,1.6-13.5,1.6s-12.4-1-13.5-1.6C62.9,311.1,67.5,310.1,75.3,310.1  M75.3,309.4c-8,0-14.5,1.1-14.5,2.4s6.5,2.4,14.5,2.4s14.5-1.1,14.5-2.4S83.3,309.4,75.3,309.4z"/><path d="M75.3,311.6c2.1,0,3.8,0.1,5.2,0.1c-1.4,0.1-3.2,0.1-5.2,0.1s-3.8-0.1-5.2-0.1C71.5,311.7,73.3,311.6,75.3,311.6  M75.3,310.9c-5.1,0-9.3,0.4-9.3,0.8s4.2,0.8,9.3,0.8s9.3-0.4,9.3-0.8S80.4,310.9,75.3,310.9z"/><path d="M46.3,324.7c-1.7,0-3.3-0.3-4.9-0.9l-0.2-0.1c-0.3-0.2-0.6-0.3-0.9-0.4c-0.3-0.1-0.6-0.2-0.9-0.4c0.3-0.1,0.7-0.2,1-0.3 c0.2,0,6.2-0.7,8.4-3.1c0.5-0.6,2.1-2.1,2.8-2.6l-2.6,7.3c0,0.1-0.1,0.1-0.1,0.2h-0.2h-0.1C47.8,324.6,47.1,324.7,46.3,324.7 L46.3,324.7z"/><path d="M78,299.6c-0.2,0-0.4-0.1-0.6-0.1s-0.4-0.1-0.6-0.1c-0.1,0-3.1-0.5-4.5-1.8c-0.3-0.2-0.5-0.5-0.8-0.8 c-0.4-0.5-0.9-0.7-1.5-0.7c-3.1,0.1-6.2-0.1-9.2-0.5c-0.2,0-0.5-0.1-0.8-0.1c-1.2,0-2.4,0.4-3.3,1.2c-0.5,0.4-1,0.8-1.6,1.1 c-0.6,0.4-1.2,0.7-1.9,1c-0.1,0-0.3,0.1-0.4,0.1c0.1-0.1,0.1-0.3,0.2-0.4c0.8-1.1,1.4-2.3,1.9-3.6c0.1-0.2,0-0.4-0.1-0.5l-0.1-0.2 h-0.3c-0.2,0-0.3,0.1-0.5,0.2c-0.3,0.3-0.6,0.5-0.9,0.8c-0.1,0.1-0.2,0.1-0.3,0.2c-1.3,0.8-2.9,1.2-4.4,1.2c-0.1,0-0.1,0-0.2,0h-0.2 c-0.2,0-0.5,0-0.7-0.1c-0.1,0-0.2,0-0.3,0c0.1-0.1,0.2-0.1,0.3-0.2s3.9-1.9,4.7-4l2.3-9.1c2,2,9.1,3.9,15.8,3.9s13.5-1.9,15.5-3.9 l0.9,3.7l1.4,4.6v0.1c0,0.1,0.1,0.2,0.1,0.3v0.1l0.2,0.2c0.9,1.1,1.8,2,2.9,2.9c0.4,0.3,0.7,0.8,0.9,1.3c-0.2-0.1-0.5-0.3-0.8-0.4 c-0.4-0.3-0.9-0.5-1.4-0.6c-1.1-0.2-2.1-0.5-3.1-0.9c-0.4-0.2-0.8-0.2-1.2-0.2c-0.3,0-0.7,0.1-1,0.2c-2.3,0.7-4.7,1.1-7.1,1.2 c-0.3,0-0.6,0.2-0.7,0.6s0,0.7,0.2,0.9c0.9,0.9,1.9,1.6,3,2.3c0.1,0,0.1,0.1,0.2,0.1c-0.2,0-0.4,0-0.5,0L78,299.6L78,299.6z"/><path class="st5" d="M70,287.1c-9.3,0-15.5-2-15.5-3.8s6.2-3.8,15.5-3.8s15.5,2,15.5,3.8S79.3,287.1,70,287.1z"/><path d="M70,279.6c10.7,0,15.3,2.4,15.3,3.6c0,1.7-6.3,3.6-15.3,3.6s-15.3-1.9-15.3-3.6C54.7,282,59.3,279.6,70,279.6 M70,279.2 c-8.7,0-15.8,1.8-15.8,4.1s7.1,4.1,15.8,4.1s15.8-1.8,15.8-4.1S78.7,279.2,70,279.2z"/><path d="M70,280.8c8.4,0,13,1.5,13,2.3s-4.6,2.3-13,2.3s-13-1.5-13-2.3S61.6,280.8,70,280.8 M70,280.4c-7.4,0-13.4,1.2-13.4,2.7 s6,2.7,13.4,2.7s13.4-1.2,13.4-2.7S77.4,280.4,70,280.4z"/><path d="M70,281.9c5.7,0,8.8,0.8,9.3,1.2c-0.5,0.4-3.7,1.2-9.3,1.2c-5.7,0-8.8-0.8-9.3-1.2C61.2,282.6,64.3,281.9,70,281.9  M70,281.4c-5.4,0-9.8,0.7-9.8,1.6s4.4,1.6,9.8,1.6s9.8-0.7,9.8-1.6C79.8,282.2,75.4,281.4,70,281.4z"/><path d="M70,283c1.5,0,2.7,0,3.7,0.1c-1,0.1-2.2,0.1-3.7,0.1s-2.7,0-3.7-0.1C67.3,283,68.6,283,70,283 M70,282.5 c-3.5,0-6.3,0.2-6.3,0.6s2.8,0.6,6.3,0.6s6.3-0.2,6.3-0.6C76.3,282.8,73.5,282.5,70,282.5z"/><path d="M89.7,291.7c-0.5,0-1-0.1-1.5-0.2h-0.1H88h-1.1l-1.2-5.3c0.3,0.2,1.9,2,2.1,2.3c1.5,1.7,5.7,2.2,5.8,2.2 c0.1,0,0.2,0,0.3,0.1c-0.1,0-0.2,0.1-0.3,0.1c-0.2,0.1-0.4,0.2-0.7,0.3l-0.1,0.1C91.9,291.5,90.8,291.7,89.7,291.7z"/><path d="M241.6,556.1c9.2,0,14.1,2.4,14.1,3.8c0,1.5-5.5,3.8-14.1,3.8s-14.1-2.2-14.1-3.8C227.5,558.6,232.4,556.1,241.6,556.1  M241.6,555.2c-8.3,0-15,2.1-15,4.7c0,2.6,6.7,4.7,15,4.7s15-2.1,15-4.7S249.9,555.2,241.6,555.2z"/><path d="M247,481v3.1c-0.3,0.4-2.1,1.1-5.4,1.1c-3.3,0-5.1-0.8-5.4-1.1V481c1.7,0.4,3.5,0.5,5.2,0.5 C243.4,481.5,245.2,481.3,247,481 M247.9,479.7c0,0-1.7,0.9-6.4,0.9s-6.1-0.8-6.1-0.8v4.4c0,1.1,2.8,2,6.3,2s6.3-0.9,6.3-2v-4.5 H247.9z"/><path d="M241.7,472.8c3.9,0,6.1,0.9,6.4,1.4c-0.3,0.4-2.5,1.4-6.4,1.4s-6.1-1-6.4-1.4C235.6,473.7,237.7,472.8,241.7,472.8  M241.7,471.8c-4.1,0-7.4,1-7.4,2.3s3.3,2.3,7.4,2.3c4.1,0,7.4-1,7.4-2.3S245.7,471.8,241.7,471.8z"/><path d="M235.2,475.9c4.2,1.1,8.7,1.1,12.9,0v3.6c-0.5,0.4-2.8,1-6.5,1s-5.9-0.6-6.5-1L235.2,475.9 M249,474.1c0,1-3.3,1.7-7.4,1.7 c-4.1,0-7.4-0.8-7.4-1.7v5.6c0,1,3.3,1.7,7.4,1.7c4.1,0,7.4-0.8,7.4-1.7V474.1z"/><path class="st10" d="M235.4,484.1c-4.2,1.2-9,7.2-9,12.5c0,0.1,0,0.2,0,0.3c0,0,0,0,0,0.1v20.6c0,1.4,0.3,42.2,0.3,42.2 s-0.3,4.7,15.1,4.7s14.9-4.7,14.9-4.7s0.5-40.7,0.5-42.2V497c0,0,0,0,0-0.1s0-0.2,0-0.3c0-5.4-5-11.4-9.2-12.5"/><path d="M257,525.4c0,2.7-6.8,4.8-15.3,4.8s-15.3-2.2-15.3-4.8l-0.1-20.1c0,2.6,6.9,4.8,15.4,4.8s15.4-2.1,15.4-4.8L257,525.4z"/><path d="M288.5,591.2c3.1,0,4.9,0.7,5.4,1.1c-0.5,0.4-2.3,1.1-5.4,1.1s-4.9-0.7-5.4-1.1C283.5,591.9,285.4,591.2,288.5,591.2  M288.5,590.3c-3.5,0-6.4,0.9-6.4,2s2.8,2,6.4,2c3.5,0,6.3-0.9,6.3-2S292,590.3,288.5,590.3z"/><path d="M286.7,559.1c1,0,2.5,0,3.5,0.1v0.7c-1.1,0.3-2.4,0.3-3.5,0V559.1 M285.8,558.2v2c0,0.5,1.2,0.8,2.7,0.8s2.7-0.4,2.7-0.8 v-1.9C290.5,558.3,285.8,558.2,285.8,558.2z"/><path d="M288.5,555.9c0.3,0,0.7,0,1,0.1c-0.7,0.1-1.4,0.1-2.1,0C287.8,555.9,288.1,555.9,288.5,555.9 M288.5,555 c-1.7,0-3.1,0.4-3.1,1s1.4,1,3.1,1s3.1-0.4,3.1-1S290.2,555,288.5,555z"/><path d="M286.3,557.4c1.5,0.2,3,0.2,4.4,0v0.5c-1.5,0.3-3,0.3-4.4,0V557.4 M291.6,556c0,0.4-1.4,0.7-3.1,0.7s-3.1-0.3-3.1-0.7v2.4 c0,0.4,1.4,0.7,3.1,0.7s3.1-0.3,3.1-0.7V556z"/><path class="st10" d="M285.8,560.2c-2.2,0.9-3.7,3-3.8,5.3v0.1l0,0v8.7c0,0.6,0.1,17.8,0.1,17.8s-0.1,2,6.4,2s6.3-2,6.3-2 s0.2-17.2,0.2-17.8v-8.7l0,0v-0.1c-0.2-2.4-1.7-4.4-3.9-5.3"/><path d="M295,577.7c0,1.1-2.9,2-6.5,2s-6.5-0.9-6.5-2v-8.5c0,1.1,2.9,2,6.5,2s6.5-0.9,6.5-2V577.7z"/><path d="M324.9,594.3c5.9,0,9,1.5,9,2.2s-3.2,2.2-9,2.2c-5.9,0-9-1.5-9-2.2C315.9,595.9,319,594.3,324.9,594.3 M324.9,593.4 c-5.5,0-10,1.4-10,3.1c0,1.7,4.5,3.1,10,3.1s10-1.4,10-3.1C334.9,594.8,330.4,593.4,324.9,593.4z"/><path d="M321.7,527.3c1.6,0,4.9,0.1,6.5,0.1v1.9c-2.1,0.8-4.4,0.8-6.5,0V527.3 M320.8,526.4v3.1c0,0.7,1.9,1.3,4.2,1.3 s4.2-0.6,4.2-1.3v-3C328.1,526.6,320.8,526.4,320.8,526.4L320.8,526.4z"/><path d="M324.9,522.2c1.3,0,2.5,0.2,3.7,0.6c-2.4,0.8-5.1,0.8-7.5,0C322.4,522.4,323.7,522.2,324.9,522.2 M324.9,521.3 c-2.7,0-4.9,0.7-4.9,1.5s2.2,1.5,4.9,1.5c2.7,0,4.9-0.7,4.9-1.5S327.6,521.3,324.9,521.3z"/><path d="M321,524.5c2.6,0.6,5.4,0.6,8,0v1.8c-2.6,0.7-5.4,0.7-8,0V524.5 M329.8,522.9c0,0.6-2.2,1.2-4.9,1.2s-4.9-0.5-4.9-1.2v3.8 c0,0.6,2.2,1.2,4.9,1.2c2.7,0,4.9-0.5,4.9-1.2V522.9z"/><path class="st10" d="M320.8,529.5c-2.8,0.8-6,4.8-6,8.3c0,0.1,0,0.1,0,0.2l0,0v13.7c0,0.9,0.2,44.7,0.2,44.7s-0.2,3.1,10,3.1 s9.9-3.1,9.9-3.1s0.4-43.7,0.4-44.7V538l0,0c0-0.1,0-0.1,0-0.2c0-3.6-3.3-7.5-6.1-8.3"/><path d="M335.2,556.9c0,1.8-4.5,3.2-10.2,3.2s-10.2-1.4-10.2-3.2l-0.1-13.4c0,1.8,4.6,3.2,10.2,3.2s10.2-1.4,10.2-3.2L335.2,556.9z"/><path d="M272.7,554.6c5.1,0,8,1.3,8.1,1.9c-0.1,0.6-2.9,1.9-8.1,1.9s-8-1.3-8.1-1.9C264.7,555.9,267.6,554.6,272.7,554.6  M272.7,553.7c-5,0-9,1.2-9,2.8s4,2.8,9,2.8s9-1.2,9-2.8S277.6,553.7,272.7,553.7z"/><path d="M276.5,511.1c0,0.6-1.7,1.2-3.8,1.2c-2.1,0-3.8-0.5-3.8-1.2v-2.8c0,0,6.6,0.1,7.5,0.1L276.5,511.1z"/><path d="M268.9,511.1c-2.5,0.7-5.4,4.3-5.4,7.5c0,0.1,0,0.1,0,0.2l0,0v12.4c0,0.8,0.2,25.2,0.2,25.2s-0.2,2.8,9,2.8s8.9-2.8,8.9-2.8 s0.3-24.4,0.3-25.2v-12.4l0,0c0-0.1,0-0.1,0-0.2c0-3.2-3-6.8-5.5-7.5"/><path class="st5" d="M272.7,506.1c-2.6,0-3.9-0.7-4-0.9c0-0.2,1.4-0.9,4-0.9s3.9,0.7,4,0.9C276.6,505.4,275.2,506.1,272.7,506.1z"/><path d="M272.7,504.7c1.1,0,2.1,0.1,3.1,0.5c-2,0.6-4.2,0.6-6.3,0C270.6,504.8,271.6,504.7,272.7,504.7 M272.7,503.8 c-2.4,0-4.4,0.6-4.4,1.4s2,1.4,4.4,1.4s4.4-0.6,4.4-1.4S275.1,503.8,272.7,503.8z"/><path class="st5" d="M272.7,509.1c-2.3,0-3.7-0.4-4-0.6v-2.4c2.6,0.7,5.3,0.7,7.9,0v2.4C276.4,508.7,275,509.1,272.7,509.1z"/><path d="M269.2,506.7c2.3,0.5,4.7,0.5,7,0v1.5c-2.3,0.6-4.7,0.6-7,0V506.7 M277.1,505.1c0,0.6-2,1-4.4,1s-4.4-0.5-4.4-1v3.4 c0,0.6,2,1,4.4,1s4.4-0.5,4.4-1V505.1z"/><path d="M282.1,601c3.4,0,5.3,0.8,5.7,1.2c-0.4,0.4-2.3,1.2-5.7,1.2c-3.4,0-5.3-0.8-5.7-1.2C276.8,601.8,278.7,601,282.1,601  M282.1,600.1c-3.7,0-6.7,0.9-6.7,2.1c0,1.2,3,2.1,6.7,2.1s6.7-0.9,6.7-2.1S285.7,600.1,282.1,600.1z"/><path d="M284.9,568.5c0,0.5-1.2,0.9-2.8,0.9s-2.8-0.4-2.8-0.9v-2.1c0,0,4.9,0.1,5.6,0.1L284.9,568.5L284.9,568.5z"/><path d="M279.3,568.5c-2.3,0.9-3.9,3.1-4,5.6v0.1l0,0v9.2c0,0.6,0.1,18.7,0.1,18.7s-0.1,2.1,6.7,2.1c6.9,0,6.6-2.1,6.6-2.1 s0.2-18.1,0.2-18.7v-9.2l0,0v-0.1c-0.2-2.5-1.8-4.6-4.1-5.6"/><path class="st5" d="M282.1,564.7c-1,0.1-1.9-0.1-2.8-0.6c1.8-0.8,3.8-0.8,5.6,0C284,564.5,283,564.7,282.1,564.7z"/><path d="M282.1,564c0.5,0,0.9,0,1.4,0.1c-0.9,0.2-1.9,0.2-2.8,0C281.1,564,281.6,564,282.1,564 M282.1,563.1c-1.8,0-3.3,0.5-3.3,1 s1.5,1,3.3,1s3.3-0.5,3.3-1C285.4,563.5,283.9,563.1,282.1,563.1z"/><path class="st5" d="M282.1,566.9c-1,0.1-1.9-0.1-2.8-0.4V565c1.9,0.5,3.8,0.5,5.6,0v1.5C284,566.8,283,567,282.1,566.9z"/><path d="M279.7,565.6c1.6,0.3,3.2,0.3,4.7,0v0.6c-1.6,0.4-3.2,0.4-4.7,0V565.6 M285.4,564.1c0,0.4-1.5,0.8-3.3,0.8s-3.3-0.3-3.3-0.8 v2.5c0,0.4,1.5,0.8,3.3,0.8s3.3-0.3,3.3-0.8V564.1L285.4,564.1z"/><path d="M305.5,573.2c1.3-0.1,2.6,0.2,3.9,0.7c-2.5,0.9-5.3,0.9-7.8,0C302.8,573.4,304.2,573.2,305.5,573.2 M305.5,572.3 c-2.8,0-5,0.7-5,1.6s2.2,1.6,5,1.6s5-0.7,5-1.6S308.2,572.3,305.5,572.3z"/><path d="M304.3,547.9c0.7,0,1.7,0,2.4,0v0.2c-0.8,0.2-1.6,0.2-2.4,0V547.9 M303.4,547v1.6c0,0.4,0.9,0.7,2.1,0.7s2.1-0.3,2.1-0.7 v-1.5C307.1,547.1,303.4,547,303.4,547L303.4,547z"/><path d="M308,545.2c0,0.4-1.1,0.8-2.5,0.8s-2.5-0.3-2.5-0.8c0-0.4,1.1-0.8,2.5-0.8S308,544.8,308,545.2z"/><path d="M308,545.2v1.9c0,0.3-1.1,0.6-2.5,0.6s-2.5-0.3-2.5-0.6v-1.9c0,0.3,1.1,0.6,2.5,0.6S308,545.5,308,545.2z"/><path class="st10" d="M303.4,548.5c-1.7,0.7-2.9,2.3-3,4.2v0.1l0,0v6.9c0,0.5,0.1,14.1,0.1,14.1s-0.1,1.6,5,1.6s5-1.6,5-1.6 s0.2-13.6,0.2-14.1v-6.9l0,0v-0.1c-0.1-1.9-1.4-3.5-3.1-4.2"/><path d="M580.5,111.1c-0.1-0.2-0.2-0.4-0.2-0.6l0,0c0.1-0.1,0.2-0.1,0.3-0.1c0.8-0.1,4.3-0.8,4.3-0.8c0.3-0.1,0.5-0.1,0.8-0.1 c0.5,0,0.7,0.1,0.7,0.2v0.2l0.2,0.1c0.8,0.6,20.4,15.8,22.8,16.6c1.7,0.6,8,1.1,11.9,1.3l-29.1,7 C590.8,132.1,581.1,112.4,580.5,111.1z"/><path class="st5" d="M585.7,110c0.1,0,0.2,0,0.2,0v0.1l0.3,0.3c2.1,1.6,20.5,15.8,22.9,16.7c1.3,0.5,5.5,0.9,9.1,1.2l-25.9,6.2 L580.8,111c0-0.1,0-0.1-0.1-0.2c0.8-0.1,1.5-0.3,2.3-0.4l1.8-0.3C585.3,110,585.5,110,585.7,110 M585.7,109.1c-0.3,0-0.6,0-0.9,0.1 c-2,0.3-3,0.5-4.3,0.8c-0.9,0.2-0.8,0.6-0.5,1.4c0.7,1.4,11.8,24.2,11.8,24.2l32.4-7.8c0,0-12.5-0.7-14.8-1.5s-22.6-16.6-22.6-16.6 S586.9,109.1,585.7,109.1z"/><path class="st11" d="M581,110.8l1.8-0.3c0.3-0.1,0.5,0.1,0.7,0.3l0,0c0.1,0.2,0,0.4-0.1,0.5l-0.6,0.6c-0.1,0.1-0.2,0.3-0.1,0.5 l14.6,21.2"/><path d="M736.7,114.1c-0.5,1.1-6.9,7.1-18.6,9.5c-4.1,0.9-15.9,3.3-29.3,6.1c-0.2-0.9-0.6-1.8-1.3-2.5c-0.4-0.4-0.9-0.6-1.5-0.5 c-0.1-0.3-0.2-0.4-0.2-0.4l-4,0.9c-4,0.9-9.5,3.9-9.5,3.9v0.3l-2.3,1.4c0,0.1,0.1,0.1,0.1,0.2l-1.8,1.1c-18.1,3.8-34.1,7.1-34.1,7.1 s-17.8,2-25.7,1.1s-20.3-1.7-20.3-1.7l-3.7-0.6c0,0-0.7-1.6-0.3-2c0.3-0.4,10.5-3.9,39.9-10.3c0,0,81.1-17.5,83.5-17.8 s7.4-1.1,10.7-1.3c3.3-0.3,8.1,0.5,9,0.9l0.9,0.4c0,0,0,0.3-1.2,0.5s-2.9,0.5-2.9,0.5l0.2,1l3.2,0.5c0,0,1.2-0.9,1.6-1.1 c0.3-0.2,0.7-0.3,1.1-0.4c0,0,3.5,0.7,4.6,1.1C736.2,112.4,737.2,112.9,736.7,114.1z"/><path class="st12" d="M671.2,129c-11.8,0.8-31.6-0.9-31.6-0.9L628,116.7l-2,0.3c0,0,2.6,4.9,3.8,7.2s2.2,3.8,2.2,5.3 c-0.1,1.6-0.3,3.2-0.7,4.7l2.1-0.4l5.8-5"/><path class="st12" d="M637,130.9c0,0,3.5,0.8,7.3,1.5c3.9,0.8,9.6,1.7,9.6,1.7"/><path class="st13" d="M686.9,129.8l1,5.6v0.1c0,0-10.9,2.1-12.7,2.2s-1.5,0.1-1.5,0.1l-1.2-6.8c0,0,5.5-3,9.5-3.9l4-0.9 c0,0,0.1,0.2,0.2,0.4C686.5,127.7,686.7,128.7,686.9,129.8z"/><path class="st12" d="M688.8,134.4c-0.2,0.4-0.5,0.7-1,0.9l-1-5.6c-0.2-1.1-0.4-2.1-0.8-3.1c0.5,0,1.1,0.2,1.5,0.5 c0.7,0.7,1.1,1.6,1.3,2.5c0.1,0.3,0.2,0.6,0.2,1C689,130.7,689.6,133.1,688.8,134.4z"/><path class="st12" d="M672.5,131.3l1,5.8l-2.5-0.2c0,0,0-0.2,0-0.7c0-0.4-0.1-0.8-0.2-1.5c0-0.2,0-0.3-0.1-0.5v-0.1V134v-0.1 c0-0.1,0-0.1,0-0.2c0-0.1,0-0.1,0-0.2l0,0v-0.1c-0.1-0.2-0.1-0.4-0.2-0.5c0-0.1-0.1-0.1-0.1-0.2L672.5,131.3z"/><path class="st5" d="M670.7,133.7c0-0.1,0-0.1-0.1-0.2l0,0C670.6,133.6,670.7,133.7,670.7,133.7z"/><path d="M670.6,133.5L670.6,133.5c0,0.1,0,0.1,0,0.2C670.7,133.7,670.6,133.6,670.6,133.5L670.6,133.5z"/><path class="st12" d="M670.9,134.7c0.1,0.6,0.1,1.1,0.2,1.5l-4.4-0.7c-0.1,0-0.1-0.1-0.1-0.1s0-0.1,0.1-0.1l2-1.2l1.8-1.1 c0.1,0.2,0.2,0.4,0.2,0.5v0.1c0,0.1,0,0.1,0.1,0.2s0,0.1,0,0.2v0.1v0.1v0.1C670.8,134.4,670.8,134.5,670.9,134.7z"/><path class="st5" d="M670.7,133.7c0-0.1,0-0.1-0.1-0.2l0,0C670.6,133.6,670.7,133.7,670.7,133.7z"/><path d="M670.6,133.5L670.6,133.5c0,0.1,0,0.1,0,0.2C670.7,133.7,670.6,133.6,670.6,133.5L670.6,133.5z"/><line class="st10" x1="590" y1="138.7" x2="573.8" y2="139.1"/><polyline class="st12" points="573.8,139.1 576.4,138.5 603,135.5 "/><path d="M778.4,489.4c-1,3.2-4.5,13.5-6.5,18.8c-1.8,4.3-5.3,7.2-9.8,7.2h-61.3c-0.2,0-0.3,0-0.5,0c-2.3-0.1-4.5-1.1-6.2-2.8l0,0 c-3.7-2.9-7.1-13.6-7.1-13.6l-3.4-9.8c6.6,0.9,15.5,1.6,25.8,2c6.9,0.3,14.5,0.4,22.3,0.4c7.3,0,14.3-0.1,20.7-0.4 C762.8,490.9,771.7,490.3,778.4,489.4z"/><path class="st14" d="M700.9,515.5h-0.5l0,0C700.5,515.5,700.7,515.5,700.9,515.5z"/><path d="M785.9,484.7c0-3.3-20.8-6-54-6s-55.3,2.7-55.3,6c0,1.3-0.5,2.5,6.8,3.5c6.6,0.9,15.7,1.6,26.2,2c6.9,0.3,14.5,0.4,22.3,0.4 c7.3,0,14.3-0.1,20.7-0.4c10.3-0.4,19.4-1,26.1-1.9C787,487.5,785.9,486.2,785.9,484.7z M733.4,486c-0.2,0-0.5,0-0.7,0h-0.9 c-1,0-2.1,0-3.1,0c-0.2,0-0.5,0-0.7,0c-25.8-0.1-46.2-1.5-46.2-3.1c0-1.7,22.4-3.1,50-3.1s50,1.4,50,3.1S760.3,486,733.4,486z"/><rect x="724.4" y="466.3" width="1.3" height="12.8"/><rect x="726.4" y="465.3" width="2.8" height="1.3"/><rect x="725.3" y="465.3" width="5.5" height="1.3"/><path d="M727,467.5c0-0.2-0.1-0.3-0.2-0.4l0,0l-1.2-1c0-0.1,0-0.2,0-0.2l1.2-1l0,0c0.1-0.1,0.2-0.2,0.2-0.3l0,0c0-0.1,0-0.2-0.1-0.3 s-0.2-0.1-0.3-0.2c-0.2,0-0.3,0.1-0.4,0.2l0,0l-1,1.2c-0.1,0-0.2,0-0.2,0l-1-1.2l0,0c-0.1-0.2-0.4-0.3-0.6-0.1 c-0.2,0.1-0.2,0.3-0.2,0.4l0,0c0,0.1,0.1,0.2,0.1,0.3h0.1l0,0l1.2,1c0,0.1,0,0.2,0,0.2l-1.2,1l0,0c-0.2,0.1-0.3,0.4-0.2,0.6 c0,0,0,0.1,0.1,0.1l0,0c0.1,0.1,0.2,0.1,0.3,0.1l0,0c0.1,0,0.2-0.1,0.3-0.2l0,0l1-1.2c0.1,0,0.2,0,0.2,0l1,1.2l0,0 c0.1,0.1,0.2,0.2,0.3,0.2l0,0C726.8,467.9,727,467.7,727,467.5z M725.4,465.6L725.4,465.6L725.4,465.6L725.4,465.6 C725.5,465.6,725.5,465.6,725.4,465.6C725.5,465.6,725.4,465.6,725.4,465.6L725.4,465.6z M724.7,465.6L724.7,465.6L724.7,465.6 L724.7,465.6C724.8,465.6,724.8,465.6,724.7,465.6L724.7,465.6L724.7,465.6z M724.8,466.3L724.8,466.3L724.8,466.3L724.8,466.3 C724.7,466.3,724.7,466.3,724.8,466.3L724.8,466.3L724.8,466.3z M725.4,466.3L725.4,466.3C725.5,466.3,725.5,466.3,725.4,466.3 L725.4,466.3L725.4,466.3z"/><circle cx="730.8" cy="466" r="1.5"/><circle cx="725.1" cy="466" r="1.1"/><rect x="735.8" y="466.3" width="1.3" height="12.8"/><rect x="732.3" y="465.3" width="2.8" height="1.3"/><rect x="730.8" y="465.3" width="5.5" height="1.3"/><path d="M734.5,467.5c0-0.2,0.1-0.3,0.2-0.4l0,0l1.2-1c0-0.1,0-0.2,0-0.2l-1.2-1l0,0c-0.1-0.1-0.2-0.2-0.2-0.3l0,0 c0-0.1,0-0.2,0.1-0.3s0.2-0.1,0.3-0.2c0.2,0,0.3,0.1,0.4,0.2l0,0l1,1.2c0.1,0,0.2,0,0.2,0l1-1.2l0,0c0.1-0.2,0.4-0.3,0.6-0.1 c0.2,0.1,0.2,0.3,0.2,0.4l0,0c0,0.1-0.1,0.2-0.1,0.3h-0.1l0,0l-1.2,1c0,0.1,0,0.2,0,0.2l1.2,1l0,0c0.2,0.1,0.3,0.4,0.2,0.6 c0,0,0,0.1-0.1,0.1l0,0c-0.1,0.1-0.2,0.1-0.3,0.1l0,0c-0.1,0-0.2-0.1-0.3-0.2l0,0l-1-1.2c-0.1,0-0.2,0-0.2,0l-1,1.2l0,0 c-0.1,0.1-0.2,0.2-0.3,0.2l0,0C734.8,467.9,734.5,467.7,734.5,467.5z M736.1,465.6L736.1,465.6L736.1,465.6L736.1,465.6L736.1,465.6 L736.1,465.6L736.1,465.6z M736.8,465.6L736.8,465.6L736.8,465.6L736.8,465.6L736.8,465.6L736.8,465.6L736.8,465.6z M736.8,466.3 L736.8,466.3L736.8,466.3L736.8,466.3L736.8,466.3L736.8,466.3L736.8,466.3z M736.1,466.3L736.1,466.3L736.1,466.3L736.1,466.3 L736.1,466.3z"/><circle cx="736.4" cy="466" r="1.1"/><polygon points="730,466.3 729.5,468.8 732.1,468.8 731.5,466.3 "/><rect x="729.5" y="468.8" width="2.6" height="1.8"/><path d="M730.8,482.9c-1.5,0-2.7,1.2-2.7,2.7c0,0.1,0,0.3,0,0.4c0.2,1.5,1.6,2.5,3.1,2.3c1.2-0.2,2.1-1.1,2.3-2.3c0-0.1,0-0.3,0-0.4 C733.5,484.1,732.3,482.9,730.8,482.9z M731.8,486c-1,0-2.1,0-3.1,0c-0.2-1.1,0.5-2.2,1.6-2.4c0.1,0,0.3,0,0.4,0c1.1,0,2,0.9,2,2 c0,0.1,0,0.3,0,0.4H731.8L731.8,486z"/><path class="st5" d="M732.8,485.6c0,0.1,0,0.3,0,0.4h-0.9c-1,0-2.1,0-3.1,0c-0.2-1.1,0.5-2.2,1.6-2.4c0.1,0,0.3,0,0.4,0 C731.9,483.6,732.8,484.5,732.8,485.6z"/><path d="M762.2,515.5c0,0,3.8,0,5.4,2.1c1.3,1.7,2.7,5.8,2.7,5.8h2.7c0,0-2.7-8.3-2.3-10.3c0.3-1.6,0.8-3.3,1.4-4.8l-8.7,0.6 L762.2,515.5z"/><path d="M700.9,515.5c0,0-3.8,0-5.4,2.1c-1.3,1.7-2.7,5.8-2.7,5.8h-2.7c0,0,2.7-8.3,2.3-10.3c-0.3-1.6-0.8-3.3-1.4-4.8l8.7,0.6 L700.9,515.5z"/><path d="M822.4,226.6l-6.4-6.2c0,0-3.5,0.2-3.1,3.7c0.3,1.7,0.8,3.4,1.6,5l0,0c0.3,0.6,0.7,1.2,1.1,1.8l0,0l-2.1,1.5l-1,0.8l-4.1,3 l-6,4.4l0,0l-4.4,3.2l-8.3,6l0,0l-0.2,0.1l0,0l-6.5,4.7l-6,4.3l-3.7,2.7l-7.7,5.5l-0.7,0.5l3.6,4.8l51.2-37.8l8.3,11.7l-0.4,0.3 c0.6-0.1,1.1,0.1,1.6,0.4c0.4,0.5,1.1,0.6,1.6,0.4c0.6-0.3,4.2-3.3,4.2-3.3L822.4,226.6z M819.5,236.1L769,273.3l0,0l8,11.2l9.8-7.3 l2-1.5l12.6-9.4l2.3-1.7l23.3-17.4L819.5,236.1z M783.7,273.5L783.7,273.5l-7.2,5.2c-0.2,0.1-0.5,0.1-0.6-0.1l-3.4-4.5 c-0.2-0.2-0.1-0.5,0.1-0.6l0,0l7.2-5.2c0.2-0.1,0.5-0.1,0.6,0.1l3.4,4.5C783.9,273.1,783.8,273.4,783.7,273.5z M793.6,266.4 L793.6,266.4l-7.2,5.2c-0.2,0.1-0.5,0.1-0.6-0.1l-3.4-4.5c-0.2-0.2-0.1-0.5,0.1-0.6l0,0l7.2-5.2c0.2-0.1,0.5-0.1,0.6,0.1l3.4,4.5 C793.8,265.9,793.8,266.2,793.6,266.4z M803.5,259.1L803.5,259.1l-7.2,5.2c-0.2,0.1-0.5,0.1-0.6-0.1l-3.4-4.5 c-0.2-0.2-0.1-0.5,0.1-0.6l0,0l7.2-5.2c0.2-0.1,0.5-0.1,0.6,0.1l3.4,4.5C803.7,258.7,803.7,259,803.5,259.1z M813.2,251.9 L813.2,251.9l-7.2,5.2c-0.2,0.1-0.5,0.1-0.6-0.1l-3.4-4.5c-0.2-0.2-0.1-0.4,0.1-0.6l0,0l7.2-5.2c0.2-0.1,0.5-0.1,0.6,0.1l3.4,4.5 C813.5,251.5,813.4,251.8,813.2,251.9z M823.1,244.9l-7.2,5.2c-0.2,0.1-0.5,0.1-0.6-0.1l-3.4-4.5c-0.2-0.2-0.1-0.4,0.1-0.6l0,0 l7.2-5.2c0.2-0.1,0.5-0.1,0.6,0.1l3.4,4.5C823.4,244.5,823.3,244.8,823.1,244.9L823.1,244.9z M768.3,273.8l-6.6,4.6l8.8,10.9 l6.3-4.7l-0.5,0.4L768.3,273.8z M767.7,273.1l-3.6-4.8l0.5-0.4l-3.7,2.7l-1.5-2.2l-2.2,1.5v3.1l4.1,5.1l-0.2-0.3L767.7,273.1z"/><polygon class="st5" points="761.4,278 761.7,278.4 761.7,278.4 "/><circle class="st5" cx="799.7" cy="299.2" r="5"/><polygon class="st15" points="852.5,285.7 852.5,265.4 863.2,265.9 863.2,285.9 "/><path class="st15" d="M863.2,285.9l7,0.3c1.8,0,3.5,0.9,4.4,2.5c0.9,1.4,1.7,2.8,2.4,4.3l7,0.3c0,0,0.6-7.8,0.6-11.4v-3.6 c0,0-2.4-5.1-3-6s-2.9-4.6-3.6-4.9s-14.8-1.4-14.8-1.4L863.2,285.9L863.2,285.9z"/><line class="st15" x1="843.5" y1="267.3" x2="852.5" y2="265.4"/><path d="M849.3,288.9v-2.4h-61.9v4.8h3.2l2-2h12.2c3.6,1.6,6.2,4.8,7.1,8.7l0.1,0.6h40.3v-9.8L849.3,288.9L849.3,288.9z"/><path d="M867.3,290.9c-0.7,0-1.3,0.1-1.9,0.5c-2.4,1.2-4.2,4.5-4.2,8.4c0,3.6,1.5,6.6,3.6,8c0.6,0.4,1.3,0.7,2,0.8h0.6 c3.4,0,6.1-4,6.1-8.8C873.4,294.9,870.7,290.9,867.3,290.9z M867.9,304.3c0,0-0.1,0-0.2,0c-1.8,0-3.2-2.1-3.2-4.6s1.4-4.6,3.2-4.6 c0.2,0,0.3,0,0.5,0c1.5,0.3,2.7,2.2,2.7,4.5C870.9,302.2,869.5,304.2,867.9,304.3L867.9,304.3z"/><path d="M866.7,308.5L866.7,308.5l-4-0.3h-0.6c-0.5-0.1-1-0.2-1.4-0.4c-2.4-1.2-4.1-4.5-4.1-8.3c0-4.9,2.8-8.8,6.1-8.8 c0.1,0,0.2,0,0.3,0l4.2,0.3c-0.7,0-1.3,0.1-1.9,0.5c-2.4,1.2-4.2,4.5-4.2,8.4c0,3.6,1.5,6.6,3.6,8 C865.3,308.2,866,308.4,866.7,308.5z"/><line class="st16" x1="863.1" y1="290.6" x2="863" y2="290.5"/><path class="st10" d="M870.9,299.7c0,2.5-1.3,4.5-3,4.6c0,0-0.1,0-0.2,0c-1.8,0-3.2-2.1-3.2-4.6s1.4-4.6,3.2-4.6c0.2,0,0.3,0,0.5,0 C869.7,295.5,870.9,297.4,870.9,299.7z"/><g><path d="M800,301.5c0-0.1-0.1-0.3-0.3-0.3l0,0c-0.2,0-0.3,0.1-0.3,0.3s0.1,0.3,0.3,0.3l0,0C800,301.7,800,301.6,800,301.5z"/><path d="M798.5,300.7c0-0.1-0.1-0.3-0.3-0.3l0,0c-0.2,0-0.3,0.1-0.3,0.3s0.1,0.3,0.3,0.3l0,0C798.4,301,798.5,300.8,798.5,300.7z"/><path d="M801.6,300.8c0-0.1-0.1-0.3-0.3-0.3l0,0c-0.2,0-0.3,0.1-0.3,0.3s0.1,0.3,0.3,0.3l0,0C801.5,301,801.6,300.9,801.6,300.8z"/><path d="M802.3,299.3c0-0.1-0.1-0.3-0.3-0.3l0,0c-0.2,0-0.3,0.1-0.3,0.3s0.1,0.3,0.3,0.3l0,0C802.2,299.6,802.3,299.5,802.3,299.3z "/><path d="M797.7,299.3c0-0.1-0.1-0.3-0.3-0.3l0,0c-0.2,0-0.3,0.1-0.3,0.3s0.1,0.3,0.3,0.3l0,0C797.6,299.6,797.7,299.5,797.7,299.3z "/><path d="M798.5,297.8c0-0.1-0.1-0.3-0.3-0.3l0,0c-0.2,0-0.3,0.1-0.3,0.3s0.1,0.3,0.3,0.3l0,0C798.4,298,798.5,297.9,798.5,297.8z"/><path d="M800.1,296.8c0-0.1-0.1-0.3-0.3-0.3l0,0c-0.2,0-0.3,0.1-0.3,0.3s0.1,0.3,0.3,0.3l0,0C800,297.1,800.1,297,800.1,296.8z"/><path d="M801.6,297.8c0-0.1-0.1-0.3-0.3-0.3l0,0c-0.2,0-0.3,0.1-0.3,0.3s0.1,0.3,0.3,0.3l0,0C801.5,298,801.6,297.9,801.6,297.8z"/></g><g><path d="M867.8,297.6c0-0.1-0.1-0.2-0.2-0.3l0,0c-0.1,0-0.2,0.1-0.2,0.3c0,0.1,0.1,0.2,0.2,0.2l0,0 C867.8,297.8,867.8,297.7,867.8,297.6z"/><path d="M868,301.9c0-0.1-0.1-0.2-0.2-0.3l0,0c-0.1,0-0.2,0.1-0.2,0.3c0,0.1,0.1,0.2,0.2,0.2l0,0C867.9,302.1,868,302,868,301.9z"/><path d="M867.1,301.1c0-0.1-0.1-0.2-0.2-0.3l0,0c-0.1,0-0.2,0.1-0.2,0.3c0,0.1,0.1,0.2,0.2,0.2l0,0 C867,301.3,867.1,301.2,867.1,301.1z"/><path d="M866.8,299.8c0-0.1-0.1-0.2-0.2-0.3l0,0c-0.1,0-0.2,0.1-0.2,0.3c0,0.1,0.1,0.2,0.2,0.2l0,0 C866.7,300,866.8,299.9,866.8,299.8z"/><path d="M867.1,298.2c0-0.1-0.1-0.2-0.2-0.3l0,0c-0.1,0-0.2,0.1-0.2,0.3c0,0.1,0.1,0.2,0.2,0.2l0,0 C867,298.5,867.1,298.3,867.1,298.2z"/><path d="M868.6,298.1c0-0.1-0.1-0.2-0.2-0.3l0,0c-0.1,0-0.2,0.1-0.2,0.3c0,0.1,0.1,0.2,0.2,0.2l0,0 C868.6,298.3,868.6,298.2,868.6,298.1z"/><path d="M869,299.6c0-0.1-0.1-0.2-0.2-0.3l0,0c-0.1,0-0.2,0.1-0.2,0.3c0,0.1,0.1,0.2,0.2,0.2l0,0C868.9,299.8,869,299.7,869,299.6z "/><path d="M868.7,301c0-0.1-0.1-0.2-0.2-0.3l0,0c-0.1,0-0.2,0.1-0.2,0.3c0,0.1,0.1,0.2,0.2,0.2l0,0 C868.6,301.2,868.7,301.1,868.7,301z"/></g><polygon points="786.9,277.1 790.4,286.5 793.5,286.4 788.9,275.6 "/><polygon points="801.5,266.1 812.9,286.5 817.8,286.5 803.9,264.4 "/><path class="st9" d="M763.6,263.9c0.7-1.3,1.6-2.5,2.8-3.4c1.2-0.8,0.5,0.9,1.6,0.3c4.8-2.7,5.2,0.8,5.2,0.8l-7.7,5.5 c0,0-1.5-1.3-0.7-2.3C765.7,263.8,763.4,264.9,763.6,263.9z"/><path class="st9" d="M769.7,257.1c0,0-1.1-3.5,3-4s1.1,1.6,1.8,3c0.7,1,1.5,2,2.4,2.8l-3.7,2.7c0,0-0.7-3.8-5.2-0.8 C767.4,261.3,769.7,257.1,769.7,257.1z"/><path class="st9" d="M775.3,257.2c0,0,0.9-0.3,2.2-3c1.3-2.7,5.5,0.5,5.5,0.5l-6,4.3L775.3,257.2z"/><path class="st9" d="M782.3,250c0,0,0.2,1.1-0.3,1.5c-0.8,0.6-0.6,2.2-0.6,2.2l1.6,1l6.8-4.9c0,0-0.3,0.9-2.6-1.2s0.3-2.7-2-2.7 s-1.4,1.2-0.8,1.4c0.6,0.2-1.2,0.1-1.2,0.6C783.1,248.6,782.8,249.4,782.3,250z"/><path class="st9" d="M728.7,304.5c0,0-0.6,1.1-1.3,1.1c-1.2,0-2.1,1.5-2.1,1.5l0.7,2l9.5,0.2c0,0-0.9,0.5-1.5-2.9s2.1-2.2,0-3.9 c-2.1-1.6-2.1,0.1-1.6,0.7s-1.1-0.7-1.5-0.3C730.3,303.7,729.5,304.2,728.7,304.5z"/><path class="st9" d="M764.2,262.9c0.3-0.5,0.6-0.8-0.9-1c-2.3-0.3-1.5,1-0.9,1.3s-1.2,0-1.3,0.5c-0.2,0.8-0.5,1.5-1,2.1 c0,0,0.1,1.1-0.5,1.5c-0.5,0.3-0.8,0.9-0.8,1.5"/><path class="st9" d="M802.4,240.6c0,0,1.3-1-1.4-1.7s-2.5,0.1-3.7,0s-1.7,0.8-2.1,0.7s-0.8-1.7-0.8-1.7s-2.3,1.3-1.4,1.4 c0,0,2.1,0,2.3,1.9s0.2,2.2,0.2,2.2l2.5,0.4c0,0,0,0-1.8-0.3s-0.9-0.7-4.7,0s-4.3,5.1-4.3,5.1"/><path class="st9" d="M800,236.3c0,0,0.8,1,0.5,1.5c-0.2,0.4-0.5,0.6-0.9,0.7c0,0,3.1,0.1,3,1.1l-0.2,1l6-4.4c0,0,0.4-1.8-2.3-1.8 s-2.1-0.1-4,0C800.3,234.6,800.3,235.8,800,236.3z"/><path class="st9" d="M804.9,232.2l-1.3,2.1l1.5,0.3c0,0,3.1,0.1,3.2,0.9l0.1,0.8l4.1-3c-1.7-0.9-0.7-0.6-3.1-2s-1.9-1.9-2.7-0.4 C806.1,231.9,805.6,230.7,804.9,232.2z"/><path class="st9" d="M810.9,229.8l-1.5,1.5l3.1,2l1-0.8l2.1-1.5c0,0-1.3-3.1-2.8-3.1S811.6,229.1,810.9,229.8z"/><path class="st9" d="M734.9,309.4c0.4-1.5,1.8-1.9,2-3.7c0.2-1.8,2.1-0.3,3.8,0.9c1,0.6,1.6,1.7,1.6,2.8L734.9,309.4L734.9,309.4z"/><path class="st9" d="M741.9,300.5c4.8-0.8,5.3,4,7.1,6.2c1.8,2.3,0.5,3.4-2,2.9s-3.7-0.1-4.2-0.6c-0.5-0.4-0.4-0.7-0.4-0.7 c0-2.5-0.7-4.9-2.2-6.9c-2.3-2.9-0.5-0.8,0.5-1.8C741.7,298.7,741.9,300.5,741.9,300.5z"/><path class="st9" d="M726,309.1h-1.6c0.4-1.6-0.1-3.2-1.2-4.5c-1.8-2,0-3.8,3-4c1,0.8,2.3,1.1,3.5,0.9c2.3-0.2,0-1.4,2.5-1.4 c2.4,0,1.7,0.8,1.7,0.8"/><path class="st9" d="M739.3,300.2c0,0-2.1-1.5-2.1-3.2c0-1.8-0.3,1.5-1.6,1.2c-2.4-0.5-1.3,3.8-1.5,4.4"/><path class="st10" d="M842.1,286.3v0.2"/><path class="st5" d="M864.7,267.3l0.4,8.6l9.3,0.5c0.7,0.1,1.3,0.5,1.6,1.1c0.6,1,1.6,2.6,1.6,2.6c0.5,0.7,1.2,1.2,2,1.4 c1.2,0,3.1,0,3.1,0s0.5,0.4,0.4-1.1c0.1-1.1-0.1-2.3-0.4-3.3c-0.4-1.1-4-8.1-5.3-8.5C876.5,268.3,864.7,267.3,864.7,267.3z"/><path class="st5" d="M845.6,267.9c0,0-0.2,1-0.4,2.1c-0.2,1-0.3,1.6,0.2,1.6c0.6,0,3.7-0.4,3.7-0.4s0.7,0.1,1-1.4 c0.2-0.9,0.2-1.9,0.2-2.8c0,0,0-0.8-1-0.6c-1.1,0.2-2.7,0.7-2.7,0.7S845.8,267.3,845.6,267.9z"/><path class="st2" d="M281.7,370.8"/></svg>