<svg data-name="Layer 1" xmlns="http://www.w3.org/2000/svg" viewBox="0 0 562.341 1025.444" height="400"><path fill="#fff" d="M438.389 918.727l-15.545 13.564-14.435-16.543-16.235 14.166-13.714-15.717-2.626-.205-15.426 13.46-14.435-16.543-16.234 14.166-13.713-15.715-2.493-.193-15.423 13.457-14.434-16.543-16.235 14.166-14.528-16.65-16.34 14.258-14.435-16.543-16.235 14.166-13.708-15.71-2.503-.194-15.417 13.453-14.435-16.543-16.235 14.166-12.168-13.945-19.396-336.121 6.198-8.545-6.245-17.321v-25.665l8.085-20.52-8.063-371.409 13.556-13.556 15.8 15.801 15.801-15.801 15.042 15.043h2.504l15.042-15.043 15.8 15.801 15.8-15.801 15.903 15.903 15.902-15.903 15.801 15.801 15.8-15.801 15.042 15.043h2.504l15.042-15.043 15.801 15.801 15.8-15.801 15.042 15.043h2.645l15.042-15.043 15.801 15.801 15.8-15.801 15.24 15.24 15.589-10.705 12.79 8.783-17.35 30.153 7.933 15.865 41.695-1.751-13.327 321.556-8.92 18.04 20.759 180.483-10.575 21.15 8.388 213.707-17.492 6.335-14.989 13.079-14.638-16.776z"/><path d="M189.76 107.104l12.266 12.265 3.535 3.535 3.536-3.535 12.264-12.265 12.367 12.367 3.536 3.536 3.535-3.536 12.367-12.367 12.265 12.265 3.536 3.535 3.535-3.535 12.265-12.265 12.542 12.543 1.465 1.464h4.574l1.465-1.464 12.542-12.543 12.265 12.265 3.535 3.535 3.536-3.535 12.265-12.265 12.542 12.543 1.465 1.464h4.715l1.465-1.464 12.542-12.543 12.265 12.265 3.536 3.535 3.535-3.535 12.265-12.265 12.002 12.003 2.94 2.939 3.426-2.353 12.461-8.557 8.283 5.687-.003.004 1.183.829-15.52 26.972-1.34 2.328 1.202 2.402 6.608 13.216 1.448 2.895 3.234-.135 37.363-1.569-13.193 318.311-8.358 16.904-.654 1.322.168 1.466 20.59 179.011-9.955 19.91-.574 1.15.05 1.283 8.29 211.238-15.332 5.554-.88.319-.705.615-12.753 11.128-11.35-13.01-3.288-3.767-3.767 3.287-11.779 10.278-11.147-12.776-3.287-3.767-3.768 3.287-12.468 10.879-11.398-13.064-1.342-1.538-2.036-.16-.561-.043-2.094-.164-1.583 1.38-12.75 11.127L349.5 911.15l-3.287-3.768-3.768 3.287-12.468 10.879-11.396-13.061-1.343-1.54-2.037-.158-.429-.033-2.093-.163-1.581 1.38-12.749 11.124-11.147-12.776-3.287-3.767-3.768 3.287-12.467 10.879-11.241-12.883-3.287-3.767-3.768 3.287-12.573 10.97-11.147-12.775-3.287-3.767-3.768 3.287-12.467 10.879-11.393-13.056-1.342-1.54-2.036-.158-.438-.034-2.094-.163-1.582 1.38-12.743 11.12-11.148-12.776-3.287-3.767-3.767 3.287-12.468 10.879-9.962-11.417L114.59 561.33l4.896-6.752 1.554-2.142-.897-2.49-5.648-15.664V509.53l5.542-14.063 2.185-5.55.368-.936-.022-1.005-8.028-369.84 11.033-11.032 12.265 12.265 3.536 3.535 3.535-3.535 12.265-12.265 12.542 12.543 1.465 1.464h4.574l1.464-1.464 12.543-12.543m223.525-7.071l-15.8 15.8-15.8-15.8-16.079 16.078h-.573l-16.078-16.078-15.8 15.8-15.8-15.8-16.079 16.078h-.432l-16.078-16.078-15.8 15.8-15.8-15.8-15.903 15.903-15.903-15.903-15.8 15.8-15.8-15.8-16.078 16.078h-.432l-16.078-16.078-15.8 15.8-15.8-15.8-16.079 16.078 8.075 371.974-2.186 5.55-5.648 14.335-.24.601v26.584l5.943 16.488-5.944 8.195L128.955 897.1l-.279.243 14.689 16.833 16.235-14.166 14.434 16.543 16.511-14.406.438.034 14.68 16.824 16.235-14.166 14.434 16.543 16.34-14.258 14.528 16.65 16.236-14.166 14.434 16.543 16.516-14.411.428.033 14.684 16.829 16.236-14.166 14.434 16.543 16.518-14.413.562.043 14.685 16.832 16.236-14.166 14.434 16.543 15.546-13.565 14.638 16.776 16.52-14.415 18.77-6.798-8.434-214.891 10.62-21.24-20.76-180.49 8.83-17.854 13.461-324.8L449 160.338l-6.608-13.216 17.801-30.938-.043-.03.043-.043-16.077-11.04-15.292 10.5-15.538-15.538z"/><path d="M117.569 488.085l-8.075 20.486 370.149 194.355.055-1.388 10.566-19.853-3.573-2.513-369.122-191.087zM469.504 501.196l8.828-17.854-362.359-68.757.178 8.186 353.353 78.425zM109.494 559.838l359.813 364.777.162-.059-.162.183 14.163 11.272 4.607-18.194-372.639-366.174-5.944 8.195zM428.037 148.554l16.078 16.077 47.679-6.089-31.601-42.718-2.78 2.544-13.298-13.298-13.632 13.633 13.563 13.563.001.279-16.01 16.009zM163.812 163.008v41.234h-9.031v-41.234h-14.702v-8.401h38.434v8.4zM206.652 204.242V181.77c0-4.2-1.4-6.791-6.02-6.791-5.251 0-7.492 5.6-7.492 10.081v19.182h-8.75v-50.545h8.75v17.992c2.1-3.08 6.16-4.76 9.941-4.76 7.771 0 12.322 5.53 12.322 13.02v24.293zM256.492 188.77h-24.363a9.612 9.612 0 002.66 7.141 7.678 7.678 0 005.39 2.24c2.52 0 4.061-.49 5.322-1.75a6.621 6.621 0 001.75-3.08h8.4a14.405 14.405 0 01-3.08 6.72c-3.08 3.641-7.63 5.111-12.25 5.111a15.882 15.882 0 01-11.482-4.48c-3.64-3.5-5.601-8.61-5.601-14.562 0-5.81 1.75-10.99 5.251-14.561a15.787 15.787 0 0111.621-4.62c5.39 0 10.291 2.17 13.301 6.72 2.66 3.99 3.29 8.12 3.15 12.671 0 0-.07 1.68-.07 2.45zm-10.921-12.74a7.312 7.312 0 00-5.531-2.101 7.466 7.466 0 00-6.091 2.8 8.918 8.918 0 00-1.89 5.67h15.752a9.475 9.475 0 00-2.24-6.37zM164.932 261.035h-10.501v17.782h-8.961V229.18h19.462c11.412 0 17.502 6.371 17.502 15.892s-6.09 15.962-17.502 15.962zm-.35-23.943H154.43v16.032h10.15c6.022 0 8.752-3.22 8.752-7.981s-2.73-8.05-8.751-8.05zM215.472 279.377c-3.78 0-5.88-2.38-6.16-5.11-1.68 2.94-5.88 5.46-11.061 5.46-8.68 0-13.161-5.46-13.161-11.412 0-6.93 5.39-10.92 12.32-11.41l10.712-.77v-2.24c0-3.431-1.19-5.742-6.16-5.742-4.061 0-6.442 1.82-6.652 5.181h-8.47c.49-8.19 7-11.831 15.121-11.831 6.231 0 11.551 1.96 13.652 7.42a20.132 20.132 0 011.05 7.351v13.512c0 1.68.56 2.31 2.03 2.31a5.308 5.308 0 001.12-.14v6.44a8.847 8.847 0 01-4.34.98zm-7.35-16.732l-9.241.7c-2.66.21-5.25 1.82-5.25 4.76 0 2.8 2.45 4.551 5.18 4.551 5.46 0 9.31-2.94 9.31-8.33zM254.602 276.786a13.704 13.704 0 01-8.89 2.94c-4.341 0-7.841-1.54-9.522-3.57v16.592h-8.75v-50.335H235l.56 3.99c2.17-3.36 6.23-4.83 10.221-4.83a13.715 13.715 0 018.821 3.08c4.341 3.57 6.511 9.031 6.511 15.892 0 7.14-2.17 12.671-6.51 16.241zm-4.69-24.992a7.185 7.185 0 00-5.881-2.87c-6.86 0-8.26 6.51-8.26 11.76 0 5.251 1.4 11.692 8.26 11.692a7.185 7.185 0 005.88-2.87c1.821-2.38 2.311-5.671 2.311-8.821 0-3.15-.49-6.51-2.31-8.891zM300.243 263.345H275.88a9.612 9.612 0 002.66 7.14 7.68 7.68 0 005.39 2.241c2.52 0 4.061-.49 5.322-1.75a6.621 6.621 0 001.75-3.08h8.4a14.404 14.404 0 01-3.08 6.72c-3.08 3.64-7.63 5.11-12.251 5.11a15.882 15.882 0 01-11.481-4.48c-3.64-3.5-5.601-8.61-5.601-14.561 0-5.81 1.75-10.991 5.251-14.562a15.787 15.787 0 0111.621-4.62c5.39 0 10.291 2.17 13.301 6.72 2.66 3.99 3.29 8.121 3.15 12.672 0 0-.07 1.68-.07 2.45zm-10.921-12.741a7.312 7.312 0 00-5.531-2.1 7.466 7.466 0 00-6.091 2.8 8.92 8.92 0 00-1.89 5.67h15.752a9.475 9.475 0 00-2.24-6.37zM326.7 250.184c-6.16 0-9.38 4.41-9.38 10.29v18.343H308.5v-36.404h7.42l.77 5.46c1.68-4.2 6.022-5.95 10.292-5.95a17.917 17.917 0 012.73.21v8.4a14.718 14.718 0 00-3.01-.35zM345.88 279.237c-5.952 0-9.942-2.87-9.942-9.801V228.2h8.821v39.765c0 2.1.49 3.5 3.5 3.5.77 0 .98-.07 1.47-.07v7.35a14.522 14.522 0 01-3.85.49zM387.672 263.345h-24.363a9.612 9.612 0 002.66 7.14 7.68 7.68 0 005.39 2.241c2.52 0 4.061-.49 5.321-1.75a6.621 6.621 0 001.75-3.08h8.401a14.404 14.404 0 01-3.08 6.72c-3.08 3.64-7.631 5.11-12.251 5.11a15.882 15.882 0 01-11.482-4.48c-3.64-3.5-5.6-8.61-5.6-14.561 0-5.81 1.75-10.991 5.25-14.562a15.787 15.787 0 0111.622-4.62c5.39 0 10.29 2.17 13.301 6.72 2.66 3.99 3.29 8.121 3.15 12.672 0 0-.07 1.68-.07 2.45zm-10.922-12.741a7.312 7.312 0 00-5.53-2.1 7.466 7.466 0 00-6.091 2.8 8.92 8.92 0 00-1.89 5.67h15.751a9.475 9.475 0 00-2.24-6.37zM421.06 275.526c-2.94 2.94-7.49 4.2-12.461 4.2-4.62 0-8.751-1.33-11.761-4.2a12.04 12.04 0 01-3.85-8.47h8.19a5.86 5.86 0 001.96 4.27 8.152 8.152 0 005.53 1.61c2.941 0 7.422-.63 7.422-4.62 0-2.1-1.4-3.5-3.64-3.85-3.22-.49-6.861-.7-10.082-1.401a10.107 10.107 0 01-8.33-9.731 10.357 10.357 0 013.71-8.191 16.678 16.678 0 0111.06-3.64c4.341 0 8.752 1.4 11.412 4.27a11.334 11.334 0 013.22 7.49h-8.33a4.99 4.99 0 00-1.47-3.43 7.029 7.029 0 00-4.761-1.68 9.048 9.048 0 00-3.78.56 4.175 4.175 0 00-2.8 3.85c0 2.591 2.24 3.361 4.2 3.641 3.29.42 4.2.49 7.77 1.05 5.741.91 9.942 4.55 9.942 10.291a10.838 10.838 0 01-3.15 7.981zM457.53 275.526c-2.94 2.94-7.491 4.2-12.462 4.2-4.62 0-8.75-1.33-11.76-4.2a12.039 12.039 0 01-3.851-8.47h8.191a5.86 5.86 0 001.96 4.27 8.153 8.153 0 005.53 1.61c2.94 0 7.421-.63 7.421-4.62 0-2.1-1.4-3.5-3.64-3.85-3.22-.49-6.86-.7-10.081-1.401a10.106 10.106 0 01-8.33-9.731 10.356 10.356 0 013.71-8.191 16.679 16.679 0 0111.061-3.64c4.34 0 8.75 1.4 11.411 4.27a11.334 11.334 0 013.22 7.49h-8.33a4.99 4.99 0 00-1.47-3.43 7.029 7.029 0 00-4.762-1.68 9.048 9.048 0 00-3.78.56 4.175 4.175 0 00-2.8 3.85c0 2.591 2.24 3.361 4.2 3.641 3.29.42 4.2.49 7.771 1.05 5.741.91 9.941 4.55 9.941 10.291a10.84 10.84 0 01-3.15 7.981zM164.932 335.61h-10.501v17.781h-8.961v-49.635h19.462c11.412 0 17.502 6.371 17.502 15.892s-6.09 15.961-17.502 15.961zm-.35-23.943H154.43v16.032h10.15c6.022 0 8.752-3.22 8.752-7.981s-2.73-8.051-8.751-8.051zM198.53 353.812c-5.95 0-9.94-2.87-9.94-9.802v-41.234h8.82v39.764c0 2.1.49 3.5 3.5 3.5.77 0 .98-.07 1.47-.07v7.351a14.522 14.522 0 01-3.85.49zM240.323 337.92H215.96a9.612 9.612 0 002.66 7.14 7.681 7.681 0 005.39 2.24c2.521 0 4.061-.49 5.321-1.75a6.622 6.622 0 001.75-3.08h8.401a14.404 14.404 0 01-3.08 6.72c-3.08 3.641-7.63 5.112-12.251 5.112a15.882 15.882 0 01-11.481-4.48c-3.641-3.501-5.601-8.612-5.601-14.562 0-5.811 1.75-10.992 5.25-14.562a15.788 15.788 0 0111.622-4.62c5.39 0 10.29 2.17 13.3 6.72 2.661 3.99 3.291 8.121 3.151 12.672 0 0-.07 1.68-.07 2.45zM229.4 325.178a7.312 7.312 0 00-5.53-2.1 7.465 7.465 0 00-6.091 2.8 8.92 8.92 0 00-1.89 5.671h15.751a9.473 9.473 0 00-2.24-6.37zM272.171 353.391l-.56-3.99c-2.17 3.36-6.23 4.83-10.22 4.83a13.915 13.915 0 01-8.892-3.08c-4.34-3.57-6.44-9.03-6.44-15.891 0-7.141 2.17-12.672 6.51-16.242a13.705 13.705 0 018.891-2.94c4.62 0 7.981 1.54 9.521 3.43v-16.662h8.751v50.545zm-9.03-29.963a7.186 7.186 0 00-5.881 2.87c-1.82 2.38-2.31 5.671-2.31 8.821 0 3.15.49 6.511 2.31 8.891a7.185 7.185 0 005.88 2.87c6.86 0 8.261-6.51 8.261-11.76 0-5.251-1.4-11.692-8.26-11.692zM305.14 370.403c-4.41 0-9.101-.35-12.881-3.01a9.358 9.358 0 01-4.41-7.98 8.082 8.082 0 014.34-7.422 7.259 7.259 0 01-3.64-6.23 8.243 8.243 0 014.34-7.351 12.337 12.337 0 01-3.64-8.961c0-8.68 6.72-13.372 14.91-13.372a16.382 16.382 0 018.262 2.24 7.886 7.886 0 017.42-4.55 13.574 13.574 0 012.38.14v6.791c-.21 0-.49-.07-.7-.07-2.03 0-3.85.56-4.41 2.31a12.45 12.45 0 011.89 6.58c0 8.332-7 13.232-14.841 13.232a18.18 18.18 0 01-5.88-.98 3.27 3.27 0 00-1.82 2.59c0 2.17 2.17 2.66 3.99 2.66h6.02c3.64 0 8.4.07 11.832 2.45a10.019 10.019 0 014.41 8.752c0 9.591-9.451 12.181-17.572 12.181zm.63-16.452h-6.86a4.5 4.5 0 00-3.291 4.48c0 4.621 5.74 5.041 9.17 5.041 3.501 0 9.662-.21 9.662-5.04 0-4.48-5.39-4.48-8.68-4.48zm-1.61-31.293c-3.99 0-6.44 2.87-6.44 6.79s2.45 6.721 6.44 6.721 6.44-2.8 6.44-6.72-2.45-6.79-6.44-6.79zM359.252 337.92h-24.363a9.61 9.61 0 002.66 7.14 7.68 7.68 0 005.391 2.24c2.52 0 4.06-.49 5.32-1.75a6.614 6.614 0 001.751-3.08h8.4a14.409 14.409 0 01-3.08 6.72c-3.08 3.641-7.63 5.112-12.25 5.112a15.883 15.883 0 01-11.482-4.48c-3.64-3.501-5.6-8.612-5.6-14.562 0-5.811 1.75-10.992 5.25-14.562a15.789 15.789 0 0111.62-4.62c5.391 0 10.292 2.17 13.303 6.72 2.66 3.99 3.29 8.121 3.15 12.672 0 0-.07 1.68-.07 2.45zm-10.921-12.742a7.313 7.313 0 00-5.531-2.1 7.463 7.463 0 00-6.09 2.8 8.92 8.92 0 00-1.89 5.671h15.751a9.475 9.475 0 00-2.24-6.37z"/></svg>