<svg id="Layer_1" xmlns="http://www.w3.org/2000/svg" xmlns:xlink="http://www.w3.org/1999/xlink" x="0px" y="0px" viewBox="0 0 571.22 644.19" xml:space="preserve" class="css-15epj6f" style=""><style type="text/css">
	.rist0{fill:#FFFFFF;}
	.rist1{fill:#FDEAE4;}
	.rist2{fill:#EBC9B1;}
	.rist3{fill:#88BADE;}
	.rist4{fill:#F2F2F2;}
	.rist5{fill:#6BB39A;}
	.rist6{fill:#51B79C;}
	.rist7{fill:none;stroke:#FFFFFF;stroke-miterlimit:10;}
	.rist8{fill:#DEABB0;}
	.rist9{fill:none;stroke:#DEABB0;stroke-width:2;stroke-miterlimit:10;}
	.rist10{clip-path:url(#SVGID_2_);fill:#007666;}
	.rist11{clip-path:url(#SVGID_2_);}
	.rist12{fill:#034C42;}
	.rist13{fill:#248E7A;}
	.rist14{fill:#007666;}
	.rist15{fill:#EECFCE;}
	.rist16{fill:#F8E2DD;}
	.rist17{fill:#F3D9D5;}
	.rist18{fill:#FDEBE5;}
	.rist19{fill:none;}
	.rist20{fill:#E5E5E6;}
	.rist21{fill:#F5F6F7;}
	.rist22{fill:#EDECED;}
	.rist23{fill:#FBFBFB;}
	.rist24{fill:none;stroke:#248E7A;stroke-width:2;stroke-miterlimit:10;}
	.rist25{fill:#D17657;}
	.rist26{fill:#EB9F6E;}
	.rist27{fill:none;stroke:#FFFFFF;stroke-width:7;stroke-miterlimit:10;}
	.rist28{fill:#EBC9B2;}
	.rist29{fill:none;stroke:#FDEBE5;stroke-width:5;stroke-miterlimit:10;}
	.rist30{fill:none;stroke:#EB9F6E;stroke-width:4;stroke-miterlimit:10;}
	.rist31{fill:#6AB29A;}
	.rist32{fill:#D28E77;}
	.rist33{fill:#3C66AF;}
	.rist34{clip-path:url(#SVGID_4_);}
	.rist35{fill:#DFE4EB;}
	.rist36{fill:#FFE69F;}
	.rist37{clip-path:url(#SVGID_6_);fill:#315CA7;}
	.rist38{clip-path:url(#SVGID_6_);}
	.rist39{clip-path:url(#SVGID_6_);fill:#248E7A;}
	.rist40{clip-path:url(#SVGID_6_);fill:#EB9F6E;}
	.rist41{clip-path:url(#SVGID_6_);fill:#EBC9B2;}
	.rist42{fill:#020203;}
	.rist43{fill:none;stroke:#020203;stroke-width:0.5;stroke-miterlimit:10;}
	.rist44{fill:none;stroke:#020203;stroke-miterlimit:10;}
	.rist45{fill:#FFFFFF;stroke:#020203;stroke-width:0.75;stroke-miterlimit:10;}
	.rist46{fill:#FFFFFF;stroke:#020203;stroke-miterlimit:10;}
	.rist47{fill:#020203;stroke:#FFFFFF;stroke-miterlimit:10;}
	.rist48{fill:none;stroke:#C1BFB2;stroke-miterlimit:10;}
	.rist49{fill:none;stroke:#FFFFFF;stroke-width:0.5;stroke-miterlimit:10;}
	.rist50{fill:none;stroke:#B8B7B7;stroke-miterlimit:10;}
	.rist51{clip-path:url(#SVGID_8_);fill:#315CA7;}
	.rist52{clip-path:url(#SVGID_8_);}
	.rist53{clip-path:url(#SVGID_8_);fill:#248D7B;}
	.rist54{clip-path:url(#SVGID_8_);fill:#EC9F6F;}
	.rist55{fill:none;stroke:#248D7B;stroke-width:2;stroke-miterlimit:10;}
	.rist56{fill:none;stroke:#FDEAE4;stroke-width:5;stroke-miterlimit:10;}
	.rist57{clip-path:url(#SVGID_8_);fill:#EBC9B1;}
	.rist58{fill:none;stroke:#020203;stroke-width:2;stroke-miterlimit:10;}
	.rist59{clip-path:url(#SVGID_10_);fill:#315CA7;}
	.rist60{clip-path:url(#SVGID_10_);}
	.rist61{clip-path:url(#SVGID_10_);fill:#248D7B;}
	.rist62{clip-path:url(#SVGID_10_);fill:#EC9F6F;}
	.rist63{clip-path:url(#SVGID_10_);fill:#EBC9B1;}
	.rist64{fill:none;stroke:#020203;stroke-width:5;stroke-miterlimit:10;}
	.rist65{fill:#191B1D;}
	.rist66{fill:#FDFDFD;stroke:#191B1D;stroke-width:14.0745;stroke-miterlimit:10;}
</style><g><path class="rist1" d="M533.76,416.25c0.2-2.46,0.18-3.91-0.68-5.43c-14.18-25-168.9,91.98-276.97,49.1 c-83.24-33.03-79.53-137.39-128.4-137.83c-59.99-0.53-147.7,156.04-98.5,249.76c26.21,49.92,91.39,75.66,142.74,74.2 c39.69-1.13,48.3-18.6,115.95-30.84c67.49-12.21,68.86,3.37,107.42-8.44C500.1,574.68,531.33,446.94,533.76,416.25z"/></g><g><path class="rist65" d="M394.38,64.89l11,11.04L415.41,86l9.97-10.13L436.08,65l6.78,6.81v440.72c0,5.53,1.02,10.83,2.88,15.71 H203.61c-13.73,0-24.9-11.44-24.9-25.51V71.81l6.78-6.81l10.7,10.87l9.91,10.07l10.03-9.95l11.12-11.04l10.76,10.93L247.99,86 l10.03-10.07l10.94-10.98l10.94,10.98l9.97,10.01l9.97-10.01l10.94-10.98l10.94,10.98l9.97,10.01l9.97-10.01L352.55,65l10.7,10.87 l9.91,10.07l10.03-9.96L394.38,64.89 M436.02,45l-20.67,21l-20.91-21l-21.15,21l-20.67-21l-20.91,21l-20.91-21l-20.91,21l-20.91-21 l-20.91,21l-20.67-21l-21.15,21l-20.67-21l-20.91,21v436.74c0,21.86,17.45,39.58,38.97,39.58h282.65 c-16.1,0-29.33-13.43-29.33-29.79V65.99L436.02,45L436.02,45z"/></g><g><path class="rist65" d="M464.04,257.56l6.03,6.12l9.99,10.15l10.03-10.11l4.67-4.71l0.55,0.56v252.96c0,8.18-8.03,15.62-16.86,15.62 c-7.14,0-20.65-5.08-20.65-24.29V262.15L464.04,257.56 M494.8,238.99l-14.7,14.82l-14.59-14.82l-21.76,16.05v248.83 c0,26.1,18.95,38.36,34.72,38.36c16.08,0,30.93-13.36,30.93-29.7V253.81L494.8,238.99L494.8,238.99z"/></g><line class="rist66" x1="201.04" y1="266.1" x2="355.82" y2="266.1"/><line class="rist66" x1="201.04" y1="305.81" x2="331.45" y2="305.81"/><line class="rist66" x1="201.04" y1="345.53" x2="282.72" y2="345.53"/><line class="rist66" x1="201.04" y1="385.25" x2="331.45" y2="385.25"/><line class="rist66" x1="201.04" y1="424.96" x2="307.09" y2="424.96"/><line class="rist66" x1="201.04" y1="464.68" x2="331.45" y2="464.68"/><line class="rist66" x1="384.91" y1="266.1" x2="419.93" y2="266.1"/><line class="rist66" x1="384.91" y1="306.94" x2="419.93" y2="306.94"/><line class="rist66" x1="384.91" y1="343.07" x2="419.93" y2="343.07"/><line class="rist66" x1="384.91" y1="382.34" x2="419.93" y2="382.34"/><line class="rist66" x1="384.91" y1="425.28" x2="419.93" y2="425.28"/><line class="rist66" x1="384.91" y1="463.51" x2="419.93" y2="463.51"/><g><path class="rist65" d="M278.79,133.54v53c0,5.1,4.12,9.23,9.21,9.23h52.86c5.09,0,9.21-4.13,9.21-9.23v-53 c0-5.1-4.12-9.23-9.21-9.23H288C282.92,124.31,278.79,128.44,278.79,133.54z"/></g><g><path class="rist65" d="M394.38,64.89l11,11.04L415.41,86l9.97-10.13L436.08,65l6.78,6.81v440.72c0,5.53,1.02,10.83,2.88,15.71 H203.61c-13.73,0-24.9-11.44-24.9-25.51V71.81l6.78-6.81l10.7,10.87l9.91,10.07l10.03-9.95l11.12-11.04l10.76,10.93L247.99,86 l10.03-10.07l10.94-10.98l10.94,10.98l9.97,10.01l9.97-10.01l10.94-10.98l10.94,10.98l9.97,10.01l9.97-10.01L352.55,65l10.7,10.87 l9.91,10.07l10.03-9.96L394.38,64.89 M436.02,45l-20.67,21l-20.91-21l-21.15,21l-20.67-21l-20.91,21l-20.91-21l-20.91,21l-20.91-21 l-20.91,21l-20.67-21l-21.15,21l-20.67-21l-20.91,21v436.74c0,21.86,17.45,39.58,38.97,39.58h282.65 c-16.1,0-29.33-13.43-29.33-29.79V65.99L436.02,45L436.02,45z"/></g><g><path class="rist65" d="M464.04,257.56l6.03,6.12l9.99,10.15l10.03-10.11l4.67-4.71l0.55,0.56v252.96c0,8.18-8.03,15.62-16.86,15.62 c-7.14,0-20.65-5.08-20.65-24.29V262.15L464.04,257.56 M494.8,238.99l-14.7,14.82l-14.59-14.82l-21.76,16.05v248.83 c0,26.1,18.95,38.36,34.72,38.36c16.08,0,30.93-13.36,30.93-29.7V253.81L494.8,238.99L494.8,238.99z" style=""/></g><line class="rist66" x1="201.04" y1="266.1" x2="355.82" y2="266.1" style=""/><line class="rist66" x1="201.04" y1="305.81" x2="331.45" y2="305.81"/><line class="rist66" x1="201.04" y1="345.53" x2="282.72" y2="345.53"/><line class="rist66" x1="201.04" y1="385.25" x2="331.45" y2="385.25"/><line class="rist66" x1="201.04" y1="424.96" x2="307.09" y2="424.96"/><line class="rist66" x1="201.04" y1="464.68" x2="331.45" y2="464.68"/><line class="rist66" x1="384.91" y1="266.1" x2="419.93" y2="266.1"/><line class="rist66" x1="384.91" y1="306.94" x2="419.93" y2="306.94"/><line class="rist66" x1="384.91" y1="343.07" x2="419.93" y2="343.07"/><line class="rist66" x1="384.91" y1="382.34" x2="419.93" y2="382.34"/><line class="rist66" x1="384.91" y1="425.28" x2="419.93" y2="425.28"/><line class="rist66" x1="384.91" y1="463.51" x2="419.93" y2="463.51"/><g><path class="rist65" d="M278.79,133.54v53c0,5.1,4.12,9.23,9.21,9.23h52.86c5.09,0,9.21-4.13,9.21-9.23v-53 c0-5.1-4.12-9.23-9.21-9.23H288C282.92,124.31,278.79,128.44,278.79,133.54z"/></g></svg>