<svg id="Layer_1" data-name="Layer 1" xmlns="http://www.w3.org/2000/svg" viewBox="0 0 115.69 96.674" class="css-1tn9vwf"><defs><style>.sbusiness-1{fill:none;stroke:#000;stroke-miterlimit:10;stroke-width:2px}</style></defs><path class="sbusiness-1" d="M94.449 63.757a4.459 4.459 0 00-2.302-.64H23.199a4.459 4.459 0 00-2.294.635L7.452 70.247l-.01 2.35 100.462.028v-2.341z"/><path d="M92.532 32.18v30.698h-1.411V32.18h1.411m1-1h-3.411v32.7h3.411v-32.7zM24.412 32.18v30.698H23V32.18h1.412m1-1H22v32.7h3.412v-32.7z"/><path class="sbusiness-1" d="M7.447 71.826h100.457v23.808H7.447z"/><path d="M104.492 31.179h3.411v40.647h-3.411zM7.447 31.179h3.411v40.647H7.447z"/><path class="sbusiness-1" d="M114.001 25.01H1.351L14.136 3.39a4.459 4.459 0 013.838-2.188h79.402a4.459 4.459 0 013.837 2.189z"/><path d="M14.349 26.01a6.041 6.041 0 01-11.916 0h11.916m1.082-1H1.351a7.04 7.04 0 1014.08 0z"/><path d="M28.43 26.01a6.041 6.041 0 01-11.916 0H28.43m1.083-1H15.43a7.04 7.04 0 1014.082 0zM42.512 26.01a6.041 6.041 0 01-11.916 0h11.916m1.082-1H29.513a7.04 7.04 0 0014.081 0zM56.593 26.01a6.041 6.041 0 01-11.916 0h11.916m1.083-1H43.594a7.04 7.04 0 1014.082 0z"/><path d="M70.674 26.01a6.041 6.041 0 01-11.916 0h11.916m1.083-1H57.676a7.04 7.04 0 1014.08 0zM84.755 26.01a6.041 6.041 0 01-11.915 0h11.915m1.083-1H71.757a7.04 7.04 0 1014.081 0z"/><path d="M98.837 26.01a6.041 6.041 0 01-11.916 0h11.916m1.083-1H85.838a7.04 7.04 0 0014.082 0zM112.918 26.01a6.041 6.041 0 01-11.916 0h11.916m1.083-1H99.92a7.04 7.04 0 1014.081 0z"/></svg>