<svg id="Layer_1" xmlns="http://www.w3.org/2000/svg" xmlns:xlink="http://www.w3.org/1999/xlink" x="0px" y="0px" viewBox="0 0 1096.15 962.64" xml:space="preserve" class="top left"><style type="text/css">
	.herost0{fill:#248E7A;}
	.herost1{fill:#EB9F6E;}
	.herost2{fill:#FDEBE5;}
	.herost3{fill:#EBC9B2;}
	.herost4{fill:#51B79C;}
	.herost5{fill:none;stroke:#FFFFFF;stroke-miterlimit:10;}
	.herost6{fill:#DEABB0;}
	.herost7{fill:#FFFFFF;}
	.herost8{fill:#D17657;}
	.herost9{fill:none;stroke:#DEABB0;stroke-width:2;stroke-miterlimit:10;}
	.herost10{clip-path:url(#SVGID_2_);fill:#007666;}
	.herost11{clip-path:url(#SVGID_2_);}
	.herost12{fill:#034C42;}
	.herost13{fill:#007666;}
	.herost14{fill:#EECFCE;}
	.herost15{fill:#F8E2DD;}
	.herost16{fill:#F3D9D5;}
	.herost17{fill:none;}
	.herost18{fill:#E5E5E6;}
	.herost19{fill:#F5F6F7;}
	.herost20{fill:#EDECED;}
	.herost21{fill:#FBFBFB;}
	.herost22{fill:none;stroke:#FFFFFF;stroke-width:7;stroke-miterlimit:10;}
	.herost23{fill:none;stroke:#248E7A;stroke-width:2;stroke-miterlimit:10;}
	.herost24{fill:none;stroke:#FDEBE5;stroke-width:5;stroke-miterlimit:10;}
	.herost25{fill:none;stroke:#EB9F6E;stroke-width:4;stroke-miterlimit:10;}
</style><g><path class="herost3" d="M914.81,961.55c-82.47,11.52-162.54-69.78-183.06-183.44c-4.49-0.6-9-1.38-13.51-2.34 c-72.04-15.33-124.42-72.51-137.09-140.67c-54.79-13.83-99.66-67.84-118.62-139.55c-92.48-11.23-164.12-90.01-164.12-185.52 c0-103.22,83.68-186.89,186.9-186.89c63.68,0,119.93,31.85,153.66,80.49c71.89,19.66,126.16,108.65,126.16,215.45 c0,0.13-0.46,1.45-0.01,2.94c0.86,2.83,4.27,4.17,5.79,4.74c3.63,1.36,5.92,0.95,10.02,1.2c0,0,2.32,0.14,10.88,1.97 c59.58,12.68,105.71,53.99,127.04,106.46h0.01c59.13,26.07,107.81,97.22,120.23,186.16 C1055.87,842.61,1000.23,949.61,914.81,961.55z"/></g><g><path class="herost7" d="M155.97,255.05c0,0,21.21,32.64,34.01,50.71s13.43,23.58,13.43,23.58s56.67,16.71,115.32,8.71 c58.65-8,129.53-19.24,191.05,84.14s10.98,112.89,28.49,152.34s35.4,50.73,35.4,50.73s-9.24-18.7-58.81-11.25 s-80.94,13.83-100.13,12.15c-19.19-1.68-20.01-5.82-34.04-4.67c-14.03,1.15-51.36,5.37-62.69-3.06 c-11.34-8.43-5.43-11.08-26.22-16.23c-20.8-5.14-44.07-22.7-54.66-36.61c-10.59-13.91-7.52-26.24-17.89-36.71 c-10.36-10.47-23.94-2.44-37.11-17.77c-13.17-15.33-20.03-82.1-9.07-121.79c10.95-39.69,22.47-58.06,5.49-81.01 c-16.99-22.95-32.89-49.4-32.89-49.4L155.97,255.05z"/><path class="herost7" d="M562.3,614.43c-21.32-8.89-77.27-51.93-77.27-51.93c-8.82-6.91-71.91-52.4-94.04-72.58 c-22.14-20.18-60.8-55.12-90.96-70.11c-30.16-14.99-93.85-71.43-100.75-77.04c0,0-2.59-14.06-6.89-20.38"/><path class="herost7" d="M225.99,365.52c0,0,56.4,4.69,94.37,5.3s42.76-9.47,76.32-5.07c28.79,3.78,84.41,35.41,100.78,44.98 c2.71,1.58,5.82,6.92,5.82,6.92"/><path class="herost7" d="M256.9,390.41c0,0,137.71,12.06,187.93,30.27c50.22,18.21,82.62,52.57,82.62,52.57l9.97,11.6"/><path class="herost7" d="M314.47,426.85c0,0,103.49,21.82,135.44,36.65s88.11,71.74,88.11,71.74"/><path class="herost7" d="M378.02,477.08c0,0,40.49,11.35,92.31,39.25c51.82,27.9,65.91,53.82,65.91,53.82"/><path class="herost7" d="M202.05,346.01c0,0-2.71,39.31-6.96,65.12c-4.25,25.8-11.37,74.52,13.75,103.21l17.67,16.65"/><path class="herost7" d="M225.99,365.52c0,0-10.85,47.13-3.52,77.47c7.33,30.34,12.57,59.92,32.47,96.5s27.38,49.76,27.38,49.76 s8.53,10.85,16.85,15.05"/><path class="herost7" d="M249.41,384.55c0,0,15.04,94.44,30.88,125.75c15.84,31.31,60.78,85.57,60.78,85.57s17.87,24.41,39.63,25.65"/><path class="herost7" d="M296.5,417.95c0,0,9.11,57.56,41.59,102.08c32.48,44.52,60.83,76.4,60.83,76.4s37.06,28.65,68.88,20.86 c1.09-0.27,22.01,0.82,23.09,0.46"/><path class="herost7" d="M382.22,481.97c0,0,12.33,71.35,50.62,94.69c0,0,51.23,32.8,73.22,32.75c22.91-0.05,43.37,3.77,43.37,3.77"/></g><g><path class="herost8" d="M1082.57,658.28c23.78-17.21,13.7-79.49-10.01-123.67c-21.41-39.9-38.9-37.01-53.24-64.45 c-39.54-75.68,52.3-176.52,36.07-190.02c-21.02-17.49-244.1,94.05-210.91,240.49c26.23,115.73,188.03,145.21,224.03,142.38 C1072.66,662.68,1077.82,661.72,1082.57,658.28z"/></g><g><path class="herost24" d="M57.43,0.05c11.38,1.39,24.48,31.38,39.1,64.86c0.32,0.73,1.19,2.75,3.13,3.55c2.65,1.1,5.71-0.75,7.12-1.58 c5.62-3.26,12.26-4.46,18-7.51c14.14-7.51,35.44-1.21,45.47,1.76c10.74,3.18,29.29,10.66,28.63,16.93 c-0.38,3.57-6.89,5.78-7.3,5.92c-5.57,1.83-8.6-1-13.79-0.43c-7.03,0.77-8.05,6.68-14.87,11.07c-13.36,8.58-32.88,0.97-38.06-1.04 c-13.13-5.12-20.5-13.38-21.15-12.63c-0.96,1.09,20.08,13.06,30.76,37.08c5.99,13.46,6.59,25.91,12.46,26.72 c3.66,0.51,6.88-3.86,9.33-6.95c6.46-8.13,18.57-17.25,42.79-35.49c14.65-11.03,28.75-21.65,34.42-17.57 c5.3,3.82,0.59,18.61-0.63,22.47c-6.03,18.96-23.22,40.39-45.95,44.44c-0.03,0.01-0.05,0.01-0.08,0.01 c-12.77,1.61-18-0.92-27.98,1.18c-2.68,0.57-4.05,0.71-4.5,1.24c-6.03,7.15,32.97,46.85,35.53,52.79c0.11,0.26,0.57,1.41,1.71,2.24 c1.46,1.07,3.23,1.02,4.14,0.95c16.33-1.2,22.58-4.16,22.58-4.16c17.8-8.42,44.34-2.57,81.31,5.58c4.15,0.92,10.39,2.41,10.78,5.33 c0.58,4.38-12.33,9.28-17.36,11.19c-14.14,5.37-37.05,14.07-63.45,6.27c-17.2-5.08-28.68-15.03-29.95-13.25 c-0.68,0.95,2.58,3.88,11.21,13.27c17.48,19,26.22,28.51,28.75,34.64c1.04,2.54,1.84,5.06,4.02,5.75 c5.32,1.69,11.99-9.93,18.76-17.79c23.18-26.88,61.41-25.9,88.87-25.19c2.86,0.07,7.32,0.32,8.42,2.74 c2.69,5.92-16.83,19.89-22.38,23.86c-19.16,13.71-37.2,26.62-59.8,24.78c-10.5-0.85-20.88-4.8-22.58-1.49 c-1.14,2.22,2.43,6.11,4.8,8.81c23.58,26.76,24.9,43.86,38.45,44.87c5.61,0.42,9.39-2.2,13.41-4.27 c39.31-20.18,112.18,12.51,110.96,28.38c-0.14,1.77-1.17,3.05-2.02,3.97c-15.97,17.13-58.32,19.52-77.1,6.05 c0,0-10.04-7.2-25.38-14.84c-1.64-0.82-3.51-1.48-3.65-1.53c-2.98-1.05-4.47-1.58-4.83-1.23c-2.3,2.25,30.49,34.93,40.89,42.01 c2.77,1.88,5.09,2.73,6.42,3.14c4.4,1.35,8.13,1,9.56,0.85c22.74-2.38,34.1-3.56,43.98-5.72c29.17-6.37,65.09,10.37,65.1,19.82 c0.01,8.58-29.58,19.45-57.2,16.48c-26.04-2.79-44.33-17.22-46.37-14.03c-1.22,1.91,5.84,6.33,19.24,21.92 c11.44,13.31,16.44,21.9,23.54,21.21c3.45-0.33,5.71-2.69,6.98-3.91c16.97-16.27,55.16-17.89,66.26-18.36 c5.71-0.24,41.34-1.75,43.52,7.23c1.81,7.43-19.04,22.96-41.13,26.38c-13.35,2.07-44.65,2.42-59.8-2.13 c-1.01-0.3-4.36-1.35-5.08-0.26c-0.92,1.4,2.95,5.46,11.36,13.7c1.39,1.36,13.05,12.67,36.8,30.22c1.36,1,2.88,2.1,5.07,2.35 c7.98,0.92,11.97-10.83,21.12-18.93c10.73-9.49,24.84-9.88,53.04-10.65c14.85-0.41,23.14-0.55,24.95,3.55 c3.27,7.39-17.2,22.4-22.58,26.35c-10.68,7.83-28.51,20.91-43.94,16.42c-1.83-0.53-6.95-2.28-15.17-4.41 c-12.36-3.2-13.55-2.54-13.81-2.03c-0.64,1.28,3.38,4.31,7.28,7.63c18.87,16.09,19.37,25.92,32.56,30.25 c2.24,0.74,6.67,2.14,12.21,1.51c13.84-1.57,16.64-13.8,29.25-23.48c14.83-11.39,34.84-9.43,74.85-5.49 c3.02,0.3,7.88,0.85,9.34,3.91c2.69,5.65-7.67,16.68-16.02,22.87c-23.46,17.39-54.93,14.3-59.34,13.87 c-8.49-0.83-17.03-1.17-25.46-2.49c-7.59-1.19-12.12-2.32-12.73-0.98c-0.81,1.78,6.33,5.79,15.59,13.14 c15.12,12.01,23.93,23.46,36.03,31.55c0.34,0.23,4.87,3.22,11.48,5.49c3.82,1.31,5.78,1.97,7.97,1.54 c5.51-1.07,7.75-8.05,9.86-11.71c6.08-10.52,21.79-12,40.28-13.75c22.05-2.08,55.92-0.79,57.33,7.59c0.31,1.85-0.98,3.91-9.1,9.85 c-19.06,13.94-33.82,24.74-54.64,25.75c-22.17,1.09-38.65-9.53-40.1-6.37c-0.72,1.57,3.31,4.31,10.78,11.05 c19.94,18.01,23,27.25,29.58,26.3c5.48-0.79,5.6-7.51,14.24-18.89c8.44-11.11,17.69-17.05,24.78-21.6 c1.58-1.01,23.75-14.92,46.11-13.26c2.75,0.2,6.16,0.69,7.2,2.87c1.49,3.12-2.77,7.84-11.61,17.81 c-15.21,17.14-14.66,16.72-15.07,17.04c-18.61,14.53-40.68,5.23-46.58,16.97c-1.43,2.84-2,7.36-0.34,11.12 c1.63,3.69,4.71,4.93,8.6,7.36c13.54,8.48,12.78,16.42,23.38,19.72c1.39,0.43,5.96,1.79,11.4,0.72 c10.21-2.01,10.96-11.8,20.05-19.98c11.29-10.17,26.44-10.36,45.1-10.6c11.33-0.15,21.11-0.27,22.85,4.1 c2.72,6.85-16.24,19.97-24.71,25.84c-12.72,8.8-20.76,14.37-32.85,14.77c-15.05,0.49-25.56-9.49-26.62-7.78 c-1.01,1.62,10.33,7.18,22.36,21.84c2.99,3.64,4.57,6.08,8.07,7.36c7.59,2.78,15.43-3.07,20.29-5.68 c23.23-12.48,62.67,3.56,63.26,13.38c0.39,6.48-16.04,11.91-19.63,13.1c-24.34,8.04-48.2-7.83-49.6-4.73 c-0.77,1.71,6.89,4.99,17.76,16.31c6.07,6.32,6.98,8.74,10.23,9.47c8.69,1.96,18.26-11.78,22.22-16.82 c26.77-34.04,89.66-42.39,95.03-33.15c3.52,6.06-15.89,22.91-20.46,26.87c-7.78,6.75-33.6,29.16-58.35,25.25 c-3.4-0.54-10.51-2.16-13.48,1.41c-2.97,3.56,0.89,9.02-2.72,15.28c-2.24,3.87-4.84,3.72-6.15,6.29 c-3.16,6.22,7.49,15.18,14.7,25.97c12.46,18.65,17.21,46.18,6.25,60.08c-1.53,1.94-4.9,6.22-9.96,6.66 c-13.2,1.17-26.75-24.66-31.67-42.55c-5.23-19.01-5.06-44.92,1.86-53.53c0.77-0.96,3.76-4.36,2.99-8.01 c-0.7-3.32-4.13-5.19-5.32-5.87c-15.36-8.92-21.04-32.79-33.22-31.77c-3.22,0.27-5.44,2.17-6.21,2.82 c-7.93,6.77-2.73,20.65-3.26,32.34c-1.28,28.31-36.59,53.18-45.05,48.23c-3.63-2.13-2.6-9.94-1.07-21.54 c1.21-9.15,3.54-26.79,16.66-41.8c11.52-13.18,25.1-17.19,23.58-23.43c-0.59-2.39-2.73-2.39-8.83-7.94 c-7.61-6.92-9.79-11.94-10.97-11.4c-1.66,0.76,2.47,10.78,5.69,27.42c2.23,11.55,3.32,17.45,1.8,23.62 c-2.47,10-10.88,21.98-17.71,20.96c-12.01-1.8-26.83-44.96-12.67-69.77c3.05-5.34,9.04-12.65,6.6-20.2 c-1.26-3.9-3.61-4.23-11.31-11.05c-11.8-10.45-12.56-15.23-21.89-20.02c-3.95-2.03-10.46-4.59-11.52-3.06 c-1.37,2,8.16,8.46,15.26,18.32c14.21,19.74,17.14,50.95,3.24,66.7c-2.5,2.83-4.8,5.44-8.24,5.61 c-13.82,0.67-35.94-38.66-29.39-71.76c1.96-9.94,5.29-13.12,4.14-21.92c-2.72-20.77-25.64-36.53-29.09-33.88 c-2.03,1.56,4.26,8.29,8.76,24.27c1.2,4.25,11.86,44.13-9.6,67.82c-3.65,4.03-5.83,6.44-8.93,6.31 c-15.72-0.65-36.6-66.04-18.69-96.15c1.56-2.62,4.53-6.84,4.56-12.93c0.06-9.96-7.77-15.93-23.1-30.91 c-22.78-22.25-30.81-33.81-35.5-31.34c-2.7,1.42-2.46,6.54-2.42,7.31c0.46,9.62,11.38,12.66,18.52,21.1 c12.67,14.96,5.55,37.52-7.62,79.28c-0.66,2.09-1.73,5.36-3.97,5.79c-5.93,1.16-16.09-18.28-20.96-34.82 c-7.45-25.28-3.87-48.32-1.43-63.11c1.2-7.28,5.66-11.76,4.09-18.69c-1.77-7.83-7.79-10.85-20.74-21.93 c-18.13-15.51-21.16-22.27-24.46-20.89c-6.19,2.6,6.01,25.85-0.74,55.66c-5.46,24.13-22,46.61-29.95,44.47 c-2.41-0.65-3.8-3.51-5.41-8.96c-2.74-9.28-16.27-55.05,8.28-80.64c6.72-7.01,15.1-11.25,14.77-19.26 c-0.22-5.44-4.34-9.32-7.51-12.34c-29.77-28.37-34.24-36.62-38.1-34.55c-4.55,2.44,2.55,13.39,1.29,35.28 c-1.83,31.71-19.16,51.03-26.8,59.55c-8.52,9.5-11.29,8.85-12.07,8.56c-5.97-2.26-4.33-24.5-0.37-41.06 c0.8-3.34,10.82-44.43,25.37-63.95c1.2-1.61,4.51-5.87,3.55-10.54c-0.79-3.83-3.96-5.58-10.02-10.46 c-11.44-9.21-12.06-12.59-13.95-11.96c-7.31,2.42-2.13,54.19,9.68,69.17c1.06,1.34,5.29,6.34,3.73,9.65 c-1.12,2.38-4.74,2.82-5.55,2.92c-11.7,1.42-44.69-31.79-41.88-66.59c1.52-18.73,13.1-34.11,3.91-48.89 c-1.62-2.6-3.26-4.19-4.51-5.4c-26.9-26.23-38.82-49.17-44.24-46.56c-2.67,1.29-1.08,7.32-3.93,8.17 c-3.97,1.18-10.42-9.52-10.87-10.28c-5.24-8.84-4.76-14.52-6.99-21.84c-5.21-17.05-21.21-30.03-25.43-27.84 c-2.48,1.29-0.41,7.58,1,18.66c4.59,36.01-5.32,63.23-17.02,75.44c-1.97,2.06-4.18,3.88-6.39,3.43c-1.69-0.34-6-2.53-8.52-31.68 c-2.22-25.66-3.32-38.49,0.13-51.58c5.4-20.5,15.03-26.89,11.36-39.6c-2.08-7.22-6.83-10.86-13.53-16.88 c-7.25-6.53-41.39-38-60.01-74.96c-5.16-10.24-9.1-20.86-11.21-20.29c-2.94,0.79,5.55,21.1-2.3,43.45 c-2.25,6.41-7.67,13.81-18.51,28.62c-11.7,15.99-16.09,18.83-19.2,17.93c-2.7-0.78-4.03-4.26-4.87-7.1 c-8.94-30,4.53-52.29,4.53-52.29c11.83-19.59,29.08-22.38,30.19-40.23c0.19-2.99-0.17-5.01-0.83-8.82 c-2.46-14.08-8.65-19.94-29.67-47.66c-8.83-11.64-11.06-14.99-14.85-14.84c-7.23,0.29-7.75,12.81-18.05,25.73 c-19.46,24.39-52.46,23.42-64.11,21.43c-6.49-1.11-7.95-2.8-8.21-4.02c-0.79-3.58,7.82-6.94,16.89-14.53 c11.27-9.42,8.61-13.11,16.79-19.95C50.69,82.2,70.96,90.59,77.2,78.47c2.09-4.07,1.41-8.11,0.63-12.73 c-4.61-27.22-37.75-35.19-36.18-51.02C42.41,7.1,51.06-0.72,57.43,0.05z"/></g></svg>