<svg id="Layer_1" xmlns="http://www.w3.org/2000/svg" xmlns:xlink="http://www.w3.org/1999/xlink" x="0px" y="0px" viewBox="0 0 846.67 833.58" xml:space="preserve" class="top right"><style type="text/css">
	.herost0{fill:#248E7A;}
	.herost1{fill:#EB9F6E;}
	.herost2{fill:#FDEBE5;}
	.herost3{fill:#EBC9B2;}
	.herost4{fill:#51B79C;}
	.herost5{fill:none;stroke:#FFFFFF;stroke-miterlimit:10;}
	.herost6{fill:#DEABB0;}
	.herost7{fill:#FFFFFF;}
	.herost8{fill:#D17657;}
	.herost9{fill:none;stroke:#DEABB0;stroke-width:2;stroke-miterlimit:10;}
	.herost10{clip-path:url(#SVGID_2_);fill:#007666;}
	.herost11{clip-path:url(#SVGID_2_);}
	.herost12{fill:#034C42;}
	.herost13{fill:#007666;}
	.herost14{fill:#EECFCE;}
	.herost15{fill:#F8E2DD;}
	.herost16{fill:#F3D9D5;}
	.herost17{fill:none;}
	.herost18{fill:#E5E5E6;}
	.herost19{fill:#F5F6F7;}
	.herost20{fill:#EDECED;}
	.herost21{fill:#FBFBFB;}
	.herost22{fill:none;stroke:#FFFFFF;stroke-width:7;stroke-miterlimit:10;}
	.herost23{fill:none;stroke:#248E7A;stroke-width:2;stroke-miterlimit:10;}
	.herost24{fill:none;stroke:#FDEBE5;stroke-width:5;stroke-miterlimit:10;}
	.herost25{fill:none;stroke:#EB9F6E;stroke-width:4;stroke-miterlimit:10;}
</style><path class="herost0" d="M591.86,535.85c-50.71-18.61-87.65,44.8-154.05,47.81C259.4,591.75,15.09,157.13,113.76,41.81 C214.22-75.6,736.52,60.56,830.91,371.17c66.76,219.67-97.32,471.27-143.43,462.17C643.15,824.59,686.81,570.71,591.86,535.85z"/><g><path class="herost8" d="M238.27,485.26c-7.24-15.37,15.52-75.35-10.01-123.67s-46.45-61.57-53.24-64.45 c-6.79-2.88-31.45-4.49-56.11-21.97S-4.77,274.69,0.18,347.61s152.28,89.43,184.97,110.47c13.81,11.31,31.3,22.07,39.06,31.91 C241.4,511.76,243.3,495.93,238.27,485.26z"/><path class="herost8" d="M118.91,275.17c0,0,23.05,21.99,34.16,24.74c11.1,2.74,22.69,4.19,30.71,14.11c8.02,9.92,2.52,7.01,7.55,15.49 c5.04,8.48-0.24,6.4-1.87,11.18s-10.82,5.16-12.41,5.33c-1.59,0.18-0.19,1.79,9.05,6.21c9.24,4.41,30.84,22.57,36.56,33.55 c5.73,10.98,7.99,16.69,5.63,20.19c-2.36,3.5,10.87,14.1,8.42,19.58c-2.44,5.48-12.91-11.74-8.52,13.49 c4.39,25.23,5.59,43.58,10.23,53.49c4.64,9.91-2.39,8.14-2.39,8.14s-11.66-16.81-18.19-21.55s-5.04-8.48-9.81-17.35 s-10.09-8.03-15.07-17.27s-1.23-9.42-4.7-18.55s-6.28-8.98-7.26-0.47s-7.99,5.48-11.3,1.33c-3.31-4.15-8.58-0.69-11.82-16.21 c-3.24-15.52-11.28-14.83-12.31-22.2c-1.03-7.37,4.56-30.29,8.73-38.68c4.17-8.39-5.97,13.74-10.52,18.48 c-4.55,4.74-8.99-26.97-7.96-41.77C136.87,311.63,134.25,289.53,118.91,275.17z"/></g><g><path class="herost22" d="M570.92,157.06c0,0-8.75,24.11-13.17,38.01c-4.43,13.9-7.07,16.42-7.07,16.42s13.7,36.44,41.18,64.11 s61.52,60.49,31.56,133.87c-29.96,73.38-55.01,50.57-68.81,75.44c-13.8,24.87-12.64,38.75-12.64,38.75s6.17-12.28-17.42-35.39 c-23.59-23.11-39.4-37.08-46.13-47.84c-6.73-10.76-4.88-12.83-11.05-19.75c-6.17-6.92-23.2-24.88-23.27-34.19 c-0.07-9.31,3.68-7.25-1.87-20.23s-5.55-32.18-2.44-43.27c3.12-11.09,10.81-14.37,12.21-23.98c1.4-9.61-8.22-13.56-5.38-26.57 c2.84-13.01,35.23-43.11,60.45-53.1c25.22-9.99,39.45-11.22,44.78-29.26c5.33-18.04,12.93-36.9,12.93-36.9L570.92,157.06z"/><path class="herost22" d="M543.17,513.38c-3.79-14.74-3.36-61.25-3.36-61.25c0.14-7.38-0.98-58.61,0.85-78.26s4.86-53.85,0.78-75.66 s0.32-77.71,0.53-83.56c0,0,6.37-6.94,7.99-11.72"/><path class="herost22" d="M540.61,237.72c0,0,19.92,31.52,34.67,51.74s21.95,18.73,32.95,38.13c9.44,16.64,14.88,58.45,16.34,70.85 c0.24,2.05-1.33,5.81-1.33,5.81"/><path class="herost22" d="M539.79,263.86c0,0,48.31,77.21,58.66,110.85s5.14,64.31,5.14,64.31l-2.15,9.84"/><path class="herost22" d="M543.47,308.6c0,0,29.6,63.09,34.48,85.77c4.88,22.68-2.76,74.81-2.76,74.81"/><path class="herost22" d="M542.27,361.96c0,0,10.1,25.8,15.99,64.13s-2.15,56.02-2.15,56.02"/><path class="herost22" d="M541.37,217.39c0,0-21.75,14.18-37.01,22.18c-15.26,8-43.71,23.59-48.83,48.19l-1.74,15.9"/><path class="herost22" d="M540.61,237.72c0,0-29.09,12.99-42.14,28.89s-26.52,30.39-37.87,55.37s-15.3,34.14-15.3,34.14 s-2.32,8.79-1.23,14.84"/><path class="herost22" d="M539.9,257.59c0,0-43.7,45.39-53.88,66.14c-10.18,20.76-20.89,65.92-20.89,65.92s-5.75,19.08,2.24,31.02"/><path class="herost22" d="M541.02,295.62c0,0-26.66,27.63-37.18,62.38s-16.04,62.31-16.04,62.31s-0.36,30.86,16.36,44.5 c0.57,0.47,8.31,11.9,8.92,12.33"/><path class="herost22" d="M541.37,366.11c0,0-32.63,34.8-29.71,64.2c0,0,3.08,39.96,11.83,51.5c9.12,12.03,15.23,24.31,15.23,24.31"/></g><path class="herost3" d="M245.77,133.4c-6.05,36.61,31.41,48.95,30.93,99.68c-0.62,66.05-64.5,85.44-96.24,154.67 c-45.06,98.27-3.36,248.93,65.31,268.1c55.78,15.57,136.54-53.63,161.55-127.18c13.51-39.73-0.92-46.4,6.87-92.8 c20.07-119.5,126.19-137.36,151.24-254.35c3.2-14.96,19.81-92.5-20.62-134.05C473.21-26.1,259.41,50.79,245.77,133.4z"/><path class="herost1" d="M440.6,347.13c-2.77,2.89-16.06-5.5-22.56-10.43c-5.19-3.94-8.02-6.92-9.24-8.78 c-2.24-3.42-2.43-6.18-6.52-11.25c-6.86-8.51-24.39-28.17-26.9-37.3c-2.07-7.52,5.46-11.78,3.88-23.49 c-0.35-2.59-1.26-7.16-2.41-7.17c-1.5-0.01-1.75,7.71-3.72,14.93c-4.01,14.67-13.98,23.16-35.03,49.62 c-0.81,1.02-2.5,3.17-3.81,6.39c-0.5,1.23-3.66,9.23-1.08,17.12c2.62,8.02,8.33,7.26,16.82,19.58c5.98,8.68,4.85,11.53,4.49,12.28 c-1.25,2.56-4.11,1.86-10.49,4.28c-10.52,4-12.63,9.65-18.74,8.69c-3.26-0.51-3.28-2.22-6.63-2.35c-5.4-0.21-7.53,4.14-11.14,3.68 c-4.92-0.64-7.49-9.55-7.78-10.56c-3.31-11.48,1.52-26.95,13.17-34.18c4.77-2.96,9.96-0.21,12.97-4.12 c0.55-0.72,0.92-1.47,3.08-9.52c1.27-4.74,1.9-7.11,1.7-7.24c-1.99-1.25-12.98,30.38-39.38,47.15c-3.48,2.21-11.61,6.95-16.24,16.37 c-0.98,2-4.9,9.96-1.57,15.54c2.07,3.46,6.01,4.49,7.69,5.03c17.39,5.65,26.94,36.02,28.36,40.79c3.81,12.76,7.49,36.8-1.49,42.38 c-2.62,1.63-7.82,2.62-9.99,7.37c-1.22,2.68-1.23,6-1.74,5.98c-0.52-0.02-0.03-3.44-1.92-5.08c-1.96-1.7-5.43-0.57-6.47-0.32 c-7.93,1.93-22-11.51-28.9-22.33c-10.09-15.82-11.27-35-6.73-48.75c3.18-9.65,9.41-17.5,9.41-17.5c1.99-2.5,3.95-4.54,5.66-6.13 c0.17-0.16,0.94-0.58,1.61-1.45c0.07-0.09,0.64-0.85,0.98-1.89c0.84-2.6,1.1-9.72,1.14-10.44c0.13-2.88,1.44-5.27,5.99-10.62 c8.76-10.32,20.74-21.25,21.89-22.3c5.67-5.19,12.69-14.12,26.74-31.98c4.3-5.47,8.22-10.7,16.07-21.18 c18.24-24.35,23.73-32.66,28.62-44.67c1.86-4.56,1.08-3.39,3.57-9.81c8.14-20.95,13.65-26.19,20.36-40.62 c11.66-25.05,11.06-43.62,18.11-44.03c1.7-0.1,3.56,0.87,4.4,2.24c2.4,3.92-3.87,10.6-9.18,20.15c-5.16,9.28-3.39,10.45-8.44,22.22 c-10.62,24.74-22.8,29.71-20.4,42.13c1.3,6.75,6.04,11.18,6.9,11.98c5.58,5.08,11.17,4.34,16.77,6.02 c20.59,6.18,30.17,41.04,31.91,53.38c0.69,4.91,0.73,10.39,3.36,18.97C439.92,342.99,441.89,345.78,440.6,347.13z"/></svg>