<svg id="Layer_1" xmlns="http://www.w3.org/2000/svg" xmlns:xlink="http://www.w3.org/1999/xlink" x="0px" y="0px" viewBox="0 0 1190.21 618.41" xml:space="preserve" class="css-509z9a"><style type="text/css">
	.tist0{fill:#FFFFFF;}
	.tist1{fill:#FDEAE4;}
	.tist2{fill:#EBC9B1;}
	.tist3{fill:#88BADE;}
	.tist4{fill:#F2F2F2;}
	.tist5{fill:#6BB39A;}
	.tist6{fill:#51B79C;}
	.tist7{fill:none;stroke:#FFFFFF;stroke-miterlimit:10;}
	.tist8{fill:#DEABB0;}
	.tist9{fill:none;stroke:#DEABB0;stroke-width:2;stroke-miterlimit:10;}
	.tist10{clip-path:url(#SVGID_2_);fill:#007666;}
	.tist11{clip-path:url(#SVGID_2_);}
	.tist12{fill:#034C42;}
	.tist13{fill:#248E7A;}
	.tist14{fill:#007666;}
	.tist15{fill:#EECFCE;}
	.tist16{fill:#F8E2DD;}
	.tist17{fill:#F3D9D5;}
	.tist18{fill:#FDEBE5;}
	.tist19{fill:none;}
	.tist20{fill:#E5E5E6;}
	.tist21{fill:#F5F6F7;}
	.tist22{fill:#EDECED;}
	.tist23{fill:#FBFBFB;}
	.tist24{fill:none;stroke:#248E7A;stroke-width:2;stroke-miterlimit:10;}
	.tist25{fill:#D17657;}
	.tist26{fill:#EB9F6E;}
	.tist27{fill:none;stroke:#FFFFFF;stroke-width:7;stroke-miterlimit:10;}
	.tist28{fill:#EBC9B2;}
	.tist29{fill:none;stroke:#FDEBE5;stroke-width:5;stroke-miterlimit:10;}
	.tist30{fill:none;stroke:#EB9F6E;stroke-width:4;stroke-miterlimit:10;}
	.tist31{fill:#6AB29A;}
	.tist32{fill:#D28E77;}
	.tist33{fill:#3C66AF;}
	.tist34{clip-path:url(#SVGID_4_);}
	.tist35{fill:#DFE4EB;}
	.tist36{fill:#FFE69F;}
	.tist37{clip-path:url(#SVGID_6_);fill:#315CA7;}
	.tist38{clip-path:url(#SVGID_6_);}
	.tist39{clip-path:url(#SVGID_6_);fill:#248E7A;}
	.tist40{clip-path:url(#SVGID_6_);fill:#EB9F6E;}
	.tist41{clip-path:url(#SVGID_6_);fill:#EBC9B2;}
	.tist42{fill:#020203;}
	.tist43{fill:none;stroke:#020203;stroke-width:0.5;stroke-miterlimit:10;}
	.tist44{fill:none;stroke:#020203;stroke-miterlimit:10;}
	.tist45{fill:#FFFFFF;stroke:#020203;stroke-width:0.75;stroke-miterlimit:10;}
	.tist46{fill:#FFFFFF;stroke:#020203;stroke-miterlimit:10;}
	.tist47{fill:#020203;stroke:#FFFFFF;stroke-miterlimit:10;}
	.tist48{fill:none;stroke:#C1BFB2;stroke-miterlimit:10;}
	.tist49{fill:none;stroke:#FFFFFF;stroke-width:0.5;stroke-miterlimit:10;}
	.tist50{fill:none;stroke:#B8B7B7;stroke-miterlimit:10;}
	.tist51{clip-path:url(#SVGID_8_);fill:#315CA7;}
	.tist52{clip-path:url(#SVGID_8_);}
	.tist53{clip-path:url(#SVGID_8_);fill:#248D7B;}
	.tist54{clip-path:url(#SVGID_8_);fill:#EC9F6F;}
	.tist55{fill:none;stroke:#248D7B;stroke-width:2;stroke-miterlimit:10;}
	.tist56{fill:none;stroke:#FDEAE4;stroke-width:5;stroke-miterlimit:10;}
	.tist57{clip-path:url(#SVGID_8_);fill:#EBC9B1;}
	.tist58{fill:none;stroke:#020203;stroke-width:2;stroke-miterlimit:10;}
	.tist59{clip-path:url(#SVGID_10_);fill:#315CA7;}
	.tist60{clip-path:url(#SVGID_10_);}
	.tist61{clip-path:url(#SVGID_10_);fill:#248D7B;}
	.tist62{clip-path:url(#SVGID_10_);fill:#EC9F6F;}
	.tist63{clip-path:url(#SVGID_10_);fill:#EBC9B1;}
	.tist64{fill:none;stroke:#020203;stroke-width:5;stroke-miterlimit:10;}
</style><g><path class="tist1" d="M1190.21,411.92c0.42-29.72-29.77-38.91-403.58-253.37C623.33,64.86,615.82,59,582.47,46.76 C316.85-50.76,8.1,32.65,0.15,109.18c-5,48.16,113.04,55.6,250.54,203.56c99.91,107.51,91.69,161.8,151.37,219.22 C608.87,730.97,1188.38,541.56,1190.21,411.92z"/></g><path class="tist58" d="M663.46,281.88c0,26.15-115.17,47.38-257.17,47.38h-1.87c-141.04-0.18-255.03-21.27-255.3-47.29v-0.09 c0-26.15,115.12-47.33,257.17-47.33C548.3,234.55,663.46,255.73,663.46,281.88z"/><ellipse class="tist58" cx="406.29" cy="281.9" rx="188.81" ry="28.59"/><ellipse class="tist58" cx="406.29" cy="281.9" rx="120.47" ry="9.83"/><path class="tist42" d="M693.35,394.36l-95.67,21.5c-26.43,5.57-53.59,6.77-80.41,3.55c-21.27-2.34-42.67-3.18-64.05-2.5l-48.79,1.23 l-48.79-1.23c-21.37-0.67-42.76,0.17-64.01,2.5c-26.83,3.22-54.01,2.02-80.45-3.55l-95.62-21.5l33.43-112.39h0.14 c0.27,26.01,114.26,47.11,255.3,47.29h1.87c127.98,0,234.17-17.24,253.88-39.79c1.15-1.38,3.2-1.56,4.57-0.41 c0.51,0.43,0.88,1.01,1.06,1.65L693.35,394.36z"/><polygon class="tist42" points="154.63,108.81 168.29,79.69 408.05,151.07 395.39,180.12 "/><path class="tist1" d="M170.42,84.42l232.26,69.14l-9.5,21.8l-233.04-69.03L170.42,84.42 M166.17,74.96l-17.05,36.31l248.47,73.61 l15.78-36.2l6.54,1.81L166.17,74.96z"/><path class="tist42" d="M358.07,269.05l36.03-83.92l14.46-33.63l9.95,2.69l0.46,0.15l50.95,13.86l-10.66,82.11 c-1.53,11.81-2.08,23.73-1.65,35.63L358.07,269.05z"/><path class="tist1" d="M410.82,156.18l6.3,1.71l0.09,0.04l0.74,0.2l47.64,12.96l-10.22,78.71c-1.35,10.43-1.95,20.94-1.8,31.45 l-89.91-15.25l5.72-13.32l28.33-66.01L410.82,156.18 M406.29,146.81l-15.81,36.76l-28.34,66.01l-9.66,22.51l109.28,18.53 c-0.79-13.28-0.32-26.61,1.39-39.81l11.1-85.51l-54.26-14.76l-0.09-0.05L406.29,146.81L406.29,146.81z"/><path class="tist0" d="M461.51,271.72l0.27,24.12l-109.28-23.75l9.66-22.5C381.97,253.45,439.18,266.57,461.51,271.72z"/></svg>