<svg id="Layer_1" xmlns="http://www.w3.org/2000/svg" xmlns:xlink="http://www.w3.org/1999/xlink" x="0px" y="0px" viewBox="0 0 632.68 671.54" xml:space="preserve" class="css-509z9a"><style type="text/css">
	.list0{fill:#FFFFFF;}
	.list1{fill:#FDEAE4;}
	.list2{fill:#EBC9B1;}
	.list3{fill:#88BADE;}
	.list4{fill:#F2F2F2;}
	.list5{fill:#6BB39A;}
	.list6{fill:#51B79C;}
	.list7{fill:none;stroke:#FFFFFF;stroke-miterlimit:10;}
	.list8{fill:#DEABB0;}
	.list9{fill:none;stroke:#DEABB0;stroke-width:2;stroke-miterlimit:10;}
	.list10{clip-path:url(#SVGID_2_);fill:#007666;}
	.list11{clip-path:url(#SVGID_2_);}
	.list12{fill:#034C42;}
	.list13{fill:#248E7A;}
	.list14{fill:#007666;}
	.list15{fill:#EECFCE;}
	.list16{fill:#F8E2DD;}
	.list17{fill:#F3D9D5;}
	.list18{fill:#FDEBE5;}
	.list19{fill:none;}
	.list20{fill:#E5E5E6;}
	.list21{fill:#F5F6F7;}
	.list22{fill:#EDECED;}
	.list23{fill:#FBFBFB;}
	.list24{fill:none;stroke:#248E7A;stroke-width:2;stroke-miterlimit:10;}
	.list25{fill:#D17657;}
	.list26{fill:#EB9F6E;}
	.list27{fill:none;stroke:#FFFFFF;stroke-width:7;stroke-miterlimit:10;}
	.list28{fill:#EBC9B2;}
	.list29{fill:none;stroke:#FDEBE5;stroke-width:5;stroke-miterlimit:10;}
	.list30{fill:none;stroke:#EB9F6E;stroke-width:4;stroke-miterlimit:10;}
	.list31{fill:#6AB29A;}
	.list32{fill:#D28E77;}
	.list33{fill:#3C66AF;}
	.list34{clip-path:url(#SVGID_4_);}
	.list35{fill:#DFE4EB;}
	.list36{fill:#FFE69F;}
	.list37{clip-path:url(#SVGID_6_);fill:#315CA7;}
	.list38{clip-path:url(#SVGID_6_);}
	.list39{clip-path:url(#SVGID_6_);fill:#248E7A;}
	.list40{clip-path:url(#SVGID_6_);fill:#EB9F6E;}
	.list41{clip-path:url(#SVGID_6_);fill:#EBC9B2;}
	.list42{fill:#020203;}
	.list43{fill:none;stroke:#020203;stroke-width:0.5;stroke-miterlimit:10;}
	.list44{fill:none;stroke:#020203;stroke-miterlimit:10;}
	.list45{fill:#FFFFFF;stroke:#020203;stroke-width:0.75;stroke-miterlimit:10;}
	.list46{fill:#FFFFFF;stroke:#020203;stroke-miterlimit:10;}
	.list47{fill:#020203;stroke:#FFFFFF;stroke-miterlimit:10;}
	.list48{fill:none;stroke:#C1BFB2;stroke-miterlimit:10;}
	.list49{fill:none;stroke:#FFFFFF;stroke-width:0.5;stroke-miterlimit:10;}
	.list50{fill:none;stroke:#B8B7B7;stroke-miterlimit:10;}
	.list51{clip-path:url(#SVGID_8_);fill:#315CA7;}
	.list52{clip-path:url(#SVGID_8_);}
	.list53{clip-path:url(#SVGID_8_);fill:#248D7B;}
	.list54{clip-path:url(#SVGID_8_);fill:#EC9F6F;}
	.list55{fill:none;stroke:#248D7B;stroke-width:2;stroke-miterlimit:10;}
	.list56{fill:none;stroke:#FDEAE4;stroke-width:5;stroke-miterlimit:10;}
	.list57{clip-path:url(#SVGID_8_);fill:#EBC9B1;}
	.list58{fill:none;stroke:#020203;stroke-width:2;stroke-miterlimit:10;}
	.list59{clip-path:url(#SVGID_10_);fill:#315CA7;}
	.list60{clip-path:url(#SVGID_10_);}
	.list61{clip-path:url(#SVGID_10_);fill:#248D7B;}
	.list62{clip-path:url(#SVGID_10_);fill:#EC9F6F;}
	.list63{clip-path:url(#SVGID_10_);fill:#EBC9B1;}
	.list64{fill:none;stroke:#020203;stroke-width:5;stroke-miterlimit:10;}
</style><g><path class="list4" d="M0.24,569.16c-4.65-60.78,58.4-115.57,142.38-125.38c0.64-3.25,1.42-6.51,2.33-9.76 c14.49-51.94,58.66-87.6,109.04-93.74c12.61-39.4,54.12-69.72,107.38-80.3c12.43-67.06,73.26-115.8,143.04-111.44 c75.42,4.71,132.73,69.67,128.02,145.09c-2.91,46.53-28.75,86.17-65.82,108.6c-17.65,51.63-85.14,87.22-163.17,82.34 c-0.1-0.01-1.04-0.4-2.15-0.14c-2.11,0.5-3.24,2.93-3.72,4.01c-1.16,2.59-0.96,4.28-1.33,7.27c0,0-0.21,1.69-1.93,7.86 c-11.98,42.95-44.27,74.77-83.58,87.96l0,0.01c-21.75,42.01-75.95,74.33-141.5,79.35C80.71,677.65,5.07,632.11,0.24,569.16z"/></g><g><g><path class="list42" d="M403.41,158.83c-2.27,0.57-6.13,1.49-11.05,2.69c-0.92,0.25-1.91,0.46-2.9,0.71 c-5.38,1.31-11.72,2.87-18.59,4.53c-1.31,0.32-2.69,0.67-4.04,0.99c-11.69,2.87-24.4,5.95-35.87,8.75l-5.6,1.35 c-2.83,0.71-5.56,1.38-8.15,1.98l-3.75,0.92c-10.8,2.66-18.1,4.43-18.1,4.43l-19.41-79.64c-1.44-5.83-7.33-9.38-13.15-7.95 c-0.75,0.19-1.49,0.45-2.18,0.79c-4.67,2.45-7.02,7.8-5.67,12.89l19.3,79.08l-28.58,6.98l-19.44-79.64 c-1.41-5.83-7.28-9.41-13.11-8c-1.19,0.29-2.33,0.78-3.36,1.45c-3.9,2.68-5.71,7.52-4.53,12.11l19.34,79.22 c0,0-1.56,0.39-3.44,0.85l-21.71,5.28c-1.91,0.46-3.44,0.85-3.44,0.85l-19.44-79.64c-0.7-2.8-2.47-5.22-4.92-6.73 c-3.18-1.91-7.12-2.07-10.45-0.42c-4.64,2.5-6.96,7.87-5.6,12.96l19.26,78.97l-3.44,0.85l-21.67,5.28l-3.44,0.85l-19.44-79.64 c-1.44-5.84-7.35-9.4-13.18-7.95c-0.76,0.19-1.49,0.45-2.19,0.8c-4.64,2.5-6.96,7.87-5.6,12.96l19.26,79.01l-3.44,0.81 l-21.67,5.31l-3.44,0.81l-19.44-79.64c-1.44-5.84-7.35-9.4-13.18-7.95c-0.76,0.19-1.49,0.45-2.19,0.8 c-4.64,2.51-6.95,7.87-5.6,12.96l19.27,79.01l-3.44,0.81l-11.61,2.83l-17.74,4.36L10.65,115.52c-2.3-9.49,3.51-19.06,13-21.39 l326.33-79.61c9.51-2.31,19.1,3.52,21.43,13.03L403.41,158.83z"/><path class="list42" d="M423.35,240.53l-360.76,88l-19.9-81.7l17.74-4.36l11.61-2.83l3.44-0.81l1.98,8 c1.1,5.14,5.62,8.83,10.87,8.89c5.99-0.09,10.78-5.02,10.68-11.02c-0.01-0.81-0.12-1.62-0.31-2.4l-2.09-8.64l3.44-0.81l21.67-5.31 l3.44-0.81l1.95,8c1.13,5.14,5.65,8.82,10.91,8.89c5.99-0.09,10.78-5.02,10.68-11.02c-0.01-0.81-0.12-1.62-0.31-2.4l-2.09-8.64 l3.44-0.85l21.67-5.28l3.44-0.85l1.95,8.04c1.13,5.14,5.65,8.82,10.91,8.89c3.72-0.07,7.15-2.03,9.1-5.21 c1.48-2.47,1.94-5.42,1.28-8.22l-2.09-8.64c0,0,1.52-0.39,3.44-0.85l21.71-5.28c1.88-0.46,3.44-0.85,3.44-0.85l2.02,8.22 c1.04,4.62,4.86,8.09,9.56,8.68c5.97,0.58,11.29-3.79,11.87-9.76c0.12-1.21,0.03-2.44-0.26-3.62l-2.09-8.64l28.58-6.98l1.95,8.04 c1.3,5.76,6.8,9.55,12.64,8.71c5.92-1.07,9.85-6.74,8.77-12.66c-0.04-0.21-0.08-0.41-0.13-0.62l-2.13-8.64c0,0,7.3-1.77,18.1-4.43 l3.75-0.92c2.59-0.6,5.31-1.27,8.15-1.98l5.6-1.35c11.47-2.8,24.19-5.88,35.87-8.75c1.35-0.32,2.73-0.67,4.04-0.99 c6.87-1.66,13.21-3.22,18.59-4.53c0.99-0.25,1.98-0.46,2.9-0.71c4.92-1.2,8.78-2.12,11.05-2.69L423.35,240.53z"/><rect x="520.98" y="171.24" class="list42" width="66.22" height="87.19"/><path class="list64" d="M587.2,148.75v165.17c0,9.29-7.52,16.82-16.81,16.82c0,0-0.01,0-0.01,0h-98.8 c-9.29,0.02-16.84-7.5-16.86-16.79c0-0.01,0-0.02,0-0.04V148.75c0-9.31,7.54-16.85,16.85-16.86c0,0,0.01,0,0.01,0h98.8 C579.68,131.91,587.21,139.45,587.2,148.75z"/><path class="list42" d="M570.91,344.11c0,9.29-7.52,16.82-16.81,16.82c0,0-0.01,0-0.01,0H78.64c-9.29,0.02-16.84-7.5-16.86-16.79 c0-0.01,0-0.02,0-0.04H570.91z"/><ellipse transform="matrix(0.0709 -0.9975 0.9975 0.0709 -273.9212 525.7202)" class="list42" cx="145.24" cy="409.9" rx="38.43" ry="38.43"/><circle class="list42" cx="515.66" cy="409.9" r="38.43"/></g></g></svg>