<svg id="Layer_1" xmlns="http://www.w3.org/2000/svg" xmlns:xlink="http://www.w3.org/1999/xlink" x="0px" y="0px" viewBox="0 0 498.55 684.49" xml:space="preserve" class="css-509z9a"><style type="text/css">
	.wist0{fill:#FFFFFF;}
	.wist1{fill:#FDEAE4;}
	.wist2{fill:#EBC9B1;}
	.wist3{fill:#88BADE;}
	.wist4{fill:#F2F2F2;}
	.wist5{fill:#6BB39A;}
	.wist6{fill:#51B79C;}
	.wist7{fill:none;stroke:#FFFFFF;stroke-miterlimit:10;}
	.wist8{fill:#DEABB0;}
	.wist9{fill:none;stroke:#DEABB0;stroke-width:2;stroke-miterlimit:10;}
	.wist10{clip-path:url(#SVGID_2_);fill:#007666;}
	.wist11{clip-path:url(#SVGID_2_);}
	.wist12{fill:#034C42;}
	.wist13{fill:#248E7A;}
	.wist14{fill:#007666;}
	.wist15{fill:#EECFCE;}
	.wist16{fill:#F8E2DD;}
	.wist17{fill:#F3D9D5;}
	.wist18{fill:#FDEBE5;}
	.wist19{fill:none;}
	.wist20{fill:#E5E5E6;}
	.wist21{fill:#F5F6F7;}
	.wist22{fill:#EDECED;}
	.wist23{fill:#FBFBFB;}
	.wist24{fill:none;stroke:#248E7A;stroke-width:2;stroke-miterlimit:10;}
	.wist25{fill:#D17657;}
	.wist26{fill:#EB9F6E;}
	.wist27{fill:none;stroke:#FFFFFF;stroke-width:7;stroke-miterlimit:10;}
	.wist28{fill:#EBC9B2;}
	.wist29{fill:none;stroke:#FDEBE5;stroke-width:5;stroke-miterlimit:10;}
	.wist30{fill:none;stroke:#EB9F6E;stroke-width:4;stroke-miterlimit:10;}
	.wist31{fill:#6AB29A;}
	.wist32{fill:#D28E77;}
	.wist33{fill:#3C66AF;}
	.wist34{clip-path:url(#SVGID_4_);}
	.wist35{fill:#DFE4EB;}
	.wist36{fill:#FFE69F;}
	.wist37{clip-path:url(#SVGID_6_);fill:#315CA7;}
	.wist38{clip-path:url(#SVGID_6_);}
	.wist39{clip-path:url(#SVGID_6_);fill:#248E7A;}
	.wist40{clip-path:url(#SVGID_6_);fill:#EB9F6E;}
	.wist41{clip-path:url(#SVGID_6_);fill:#EBC9B2;}
	.wist42{fill:#020203;}
	.wist43{fill:none;stroke:#020203;stroke-width:0.5;stroke-miterlimit:10;}
	.wist44{fill:none;stroke:#020203;stroke-miterlimit:10;}
	.wist45{fill:#FFFFFF;stroke:#020203;stroke-width:0.75;stroke-miterlimit:10;}
	.wist46{fill:#FFFFFF;stroke:#020203;stroke-miterlimit:10;}
	.wist47{fill:#020203;stroke:#FFFFFF;stroke-miterlimit:10;}
	.wist48{fill:none;stroke:#C1BFB2;stroke-miterlimit:10;}
	.wist49{fill:none;stroke:#FFFFFF;stroke-width:0.5;stroke-miterlimit:10;}
	.wist50{fill:none;stroke:#B8B7B7;stroke-miterlimit:10;}
	.wist51{clip-path:url(#SVGID_8_);fill:#315CA7;}
	.wist52{clip-path:url(#SVGID_8_);}
	.wist53{clip-path:url(#SVGID_8_);fill:#248D7B;}
	.wist54{clip-path:url(#SVGID_8_);fill:#EC9F6F;}
	.wist55{fill:none;stroke:#248D7B;stroke-width:2;stroke-miterlimit:10;}
	.wist56{fill:none;stroke:#FDEAE4;stroke-width:5;stroke-miterlimit:10;}
	.wist57{clip-path:url(#SVGID_8_);fill:#EBC9B1;}
	.wist58{fill:none;stroke:#020203;stroke-width:2;stroke-miterlimit:10;}
	.wist59{clip-path:url(#SVGID_10_);fill:#315CA7;}
	.wist60{clip-path:url(#SVGID_10_);}
	.wist61{clip-path:url(#SVGID_10_);fill:#248D7B;}
	.wist62{clip-path:url(#SVGID_10_);fill:#EC9F6F;}
	.wist63{clip-path:url(#SVGID_10_);fill:#EBC9B1;}
	.wist64{fill:none;stroke:#020203;stroke-width:5;stroke-miterlimit:10;}
</style><path class="wist3" d="M130,123.51c-6.84,39.14,35.54,52.34,35,106.58c-0.7,70.62-72.97,91.35-108.89,165.38 C5.14,500.54,52.32,661.63,130,682.12c63.11,16.65,154.48-57.34,182.77-135.98c15.29-42.48-1.04-49.61,7.78-99.23 c22.71-127.77,142.77-146.87,171.11-271.96c3.62-16,22.41-98.9-23.33-143.33C387.34-47.02,145.44,35.19,130,123.51z"/><path class="wist42" d="M211.63,203.9h0.03l-0.37-0.75c-0.5-1.06-1.03-2.1-1.56-3.14L110.92,36.94L14.93,194.86 c-30.68,53.02-12.58,120.87,40.45,151.55c53.02,30.69,120.87,12.58,151.55-40.44C225.01,274.73,226.76,236.66,211.63,203.9z  M81,178.56c-11,18.25-30.91,48.85-28.98,78.39c1.51,19.06,7.26,37.54,16.84,54.09l-4.55,3.04c-13.22-16.66-21.11-36.91-22.67-58.12 c-2.47-33.4,11.17-64.64,23.09-82.47c0.08-0.17,0.17-0.32,0.27-0.48c2.06-3.32,6.43-4.35,9.75-2.29 C74.75,170.72,83.65,174.18,81,178.56z"/></svg>